<?xml version="1.0" encoding="UTF-8"?>
<!DOCTYPE svg PUBLIC "-//W3C//DTD SVG 1.1//EN" "http://www.w3.org/Graphics/SVG/1.1/DTD/svg11.dtd">
<!-- Creator: CorelDRAW -->
<svg xmlns="http://www.w3.org/2000/svg" xml:space="preserve" width="42.3333mm" height="42.3334mm" version="1.1" style="shape-rendering:geometricPrecision; text-rendering:geometricPrecision; image-rendering:optimizeQuality; fill-rule:evenodd; clip-rule:evenodd"
viewBox="0 0 354.48 354.48"
 xmlns:xlink="http://www.w3.org/1999/xlink"
 xmlns:xodm="http://www.corel.com/coreldraw/odm/2003">
 <defs>
  <style type="text/css">
   <![CDATA[
    .fil3 {fill:#FAAF40}
    .fil0 {fill:white}
    .fil1 {fill:white}
    .fil2 {fill:#262362;fill-rule:nonzero}
    .fil4 {fill:white;fill-rule:nonzero}
   ]]>
  </style>
 </defs>
 <g id="Layer_x0020_1">
  <metadata id="CorelCorpID_0Corel-Layer"/>
  <g id="_2289861150928">
   <path class="fil0" d="M261.9 122.85c-1.14,0.12 -1.55,-0.13 -1.47,-1.27 0.49,-0.16 1.51,-0.41 2.08,-0.29 0.21,0.91 -0.23,1.11 -0.61,1.56zm-5.79 -20.76c2.02,0.63 2.28,0.75 3.15,2.57 0.08,-0.1 0.08,-0.06 0.18,-0.27 0.85,-1.86 0.58,-4.1 -0.29,-5.79 -0.58,-1.13 -1.26,-1.09 -2.76,-0.96 -1.41,0.12 -1.59,0.95 -2.58,1.32 -0.63,-0.39 -1.5,-1.16 -2.39,-0.7l-0.11 0.51c0.45,0.31 1.03,0.34 1.56,0.79 0.69,0.59 0.81,1.04 1.07,1.27l0.03 0.97c-0.89,-0.4 -0.35,-0.7 -1.92,-0.57l0.22 0.09c0.77,0.27 0.73,0.06 1.05,0.56 0.32,0.15 0.26,0.07 0.51,0.45 0.54,0.79 0.4,1.56 0.09,2.3 -0.75,0.12 -1.41,-0.06 -1.68,0.61 0.72,0.23 3.1,0.11 3.48,3.31 0.27,2.32 -0.75,4.68 -0.62,5.24 0.09,0.37 0.33,0.44 0.33,0.44 0.02,-0.03 0.07,0.04 0.1,0.07l-0.66 1.17c-0.27,0.48 -0,0.03 -0.22,0.35 -0.35,0.53 -0.57,1.09 -1.15,1.35 -0.52,-1.01 0.15,-1.48 0.45,-2.62 0.24,-0.23 2.5,-7.35 -1.84,-8.74 -1.12,-0.36 -1.62,0.28 -2.62,-0.44 -0.53,-0.38 -1.41,-0.82 -1.8,-1.21 -0.97,-0.94 -0.61,-3.97 0.04,-4.52 0.42,-1.32 1.51,-2.33 2.64,-2.84 1.62,-0.73 2.98,-0.37 4.27,0.29 -0.38,-0.93 -1.41,-1.24 -2.46,-1.51 0.27,-0.67 0.5,-0.88 1.14,-1.09 1.19,-1.21 3.59,0.46 4.36,0.96 0.31,0.2 0.18,0.15 0.42,0.33 0.13,0.1 0.07,0.06 0.23,0.16 0.01,0.01 0.07,0.06 0.08,0.04 0.01,-0.02 0.05,0.03 0.08,0.04 0.41,0.91 4.38,3.31 1.41,9.59 -0.14,0.3 -0.51,0.79 -0.55,0.96l-0.2 -1.16 -0.25 0.78c0.05,0.6 0.02,0.5 -0.17,1.11l-0.14 -0.01c-1.03,-0.18 -0.71,-0.47 -2.07,-0.18 -1.23,-1.69 -0.04,-0.8 -2.22,-2.29 0.2,-1.7 0.04,-1.26 -0.14,-2.76l1.93 0.06zm8.28 0.61c0.14,0.52 0.12,0.23 0.53,0.73l0.12 0.17c0.28,0.4 0.41,0.62 0.57,1.09 -0.32,-0.19 -0.19,-0.1 -0.47,-0.34 -0.68,-0.57 -2.04,-1.72 -2.94,-1.68l-0.28 -0.24c-0.41,-0.47 -0.26,-0.41 -0.21,-0.77 1.11,-0.45 1.99,0.73 2.69,1.04zm-0.62 3.39l0.13 0.24c0.01,0.02 0.03,0.06 0.05,0.08 0.01,0.02 0.04,0.06 0.05,0.09 0.08,0.15 0.11,0.2 0.18,0.39 0.59,1.59 0.21,3.62 -0.39,5.14 -0.23,0.6 -0.66,1.1 -0.73,1.64 -0.41,0.26 -0.19,0.09 -0.46,0.46 -0.59,0.79 -2.06,2.73 -3.13,2.55 -0.06,-0.41 0.03,-0.36 0.36,-0.73 0.21,-0.24 0.37,-0.44 0.52,-0.63 0.78,-1.06 2.25,-3.13 2.29,-4.45 -0.43,0.42 -0.94,2.29 -3.06,4.52 0.23,-1.12 3.83,-5.04 1.61,-6.83 0.65,0.06 0.81,0.33 1.13,0.79 0.02,0.03 0.05,0.07 0.06,0.1 0.02,0.03 0.05,0.07 0.07,0.1l0.15 0.2c-0.02,-1.07 -0.29,-1.74 -0.95,-2.06 0.25,-0.47 0.37,-0.38 0.52,-0.75 0.15,-0.37 0.16,-0.31 -0.03,-0.68l-0.04 0.19c-0.06,0.2 -0.13,0.63 -0.65,0.8 -1.96,0.65 -1.21,-3.16 1.32,-1.66 0.44,0.26 0.59,0.34 1.01,0.5zm-1.3 11.08c0.99,-0.09 2.42,-1.81 2.98,-2.61 1.61,-2.27 2.65,-6.26 1.66,-8.88 -0.35,-0.91 -1.57,-2.91 -2.37,-3.13 -0.29,-0.46 -0.41,-0.49 -1.08,-0.87 -1.24,-0.7 -0.89,-0.42 -0.9,-0.68 1.2,-0.39 1.71,0.19 2.62,0.44 0.21,0.39 0.18,0.28 0.53,0.38 0.31,0.66 1.73,1.83 2.34,3.85 0.47,1.56 0.56,3.82 0.22,5.49 -0.53,2.56 -3.03,6.02 -5.26,6.2 -1.15,0.09 -0.41,0.13 -0.74,-0.19zm-4.11 2.98c1.43,-0.43 0.45,-1 3.52,-1.71 1.46,-0.34 3.18,-0.13 4.33,-0.82 2,-1.19 3.98,-3.31 4.49,-5.95 0.89,-2.02 -0.15,-7.07 -1.86,-7.65 0.11,1.8 2.19,4.98 0.49,8.47 0.07,-1.09 0.45,-1.86 0.4,-3.26 -0.09,-2.72 -1.17,-4.65 -2.75,-6.57 -0.8,-0.97 -0.68,-0.38 -0.82,-1.08 0.99,0.53 1.91,1.09 2.42,1.97 0.35,-0.71 -1.49,-1.98 -2.03,-2.21 0.14,-1.72 0.12,-2.88 -0.86,-4.27 -0.19,-0.27 -0.56,-0.6 -0.85,-0.87 -1.88,-1.79 -4.07,-1.04 -5.47,-0.68 -0.44,-0.76 -2.13,-1.75 -3.1,-2.08 -1.91,-0.65 -2.59,-0.22 -3.73,0.77l-1.03 0.98c-0.02,0.02 -0.05,0.06 -0.07,0.08l-0.13 0.15c-0.29,0.28 -1.4,0.52 -1.94,0.79 -0.99,0.5 -0.77,0.05 -1.92,-0.12 -0.83,-0.12 -1.56,0.07 -2.29,0.04 -0.43,0.4 -1.22,0.57 -1.7,0.9 -2.84,1.95 -2.85,3.61 -3.48,4.27l-0.13 0.68 -0.05 0.49 -0.12 0.2c-0.02,0.03 -0.04,0.07 -0.06,0.1 -0.5,0.76 -0.84,0.51 -1.31,1.55 -1.86,0.03 -3.49,0.82 -3.98,2.78 -0.57,2.24 0.9,3.88 2.19,4.35 -0.21,0.78 -0.55,1.52 -0.4,2.44 0.2,1.18 0.88,1.5 1.03,1.7 1.18,0.45 1.1,0.3 1.49,-0.73 0.46,-1.2 0.66,-1.1 0.93,-1.53 -0.21,0.9 -0.72,1.44 -0.25,2.67 0.18,0.48 0.74,1.21 1.34,1.2 0.72,-0.02 0.31,0.02 0.55,-0.22 -0.43,-0.35 -1.08,-0.34 -1.19,-1.29 -0.09,-0.8 0.09,-1.53 0.49,-2.1 0.46,-0.65 2.01,-2.3 3.4,-1.33 1.47,0.5 2.33,1.53 2.61,3.39 0.28,1.84 -0.29,3.38 -1.13,4.58 -0.58,0.72 -1.12,1.62 -1.73,2.24 -0.61,0.61 -1.35,1.13 -2.18,1.69 -1.24,0.83 -2.42,1.48 -3.91,1.95 -0.43,0.14 -1.1,0.19 -1.44,0.34 0.49,0.22 1.64,-0.01 2.2,0.05 0.6,-0.49 1.69,-0.72 2.37,-1.11 0.61,-0.34 1.55,-0.95 1.99,-1.47 1.07,-0.77 1.71,-1.43 2.59,-2.41 2.18,-2.42 3.15,-6.38 0.65,-8.97 -0.37,-0.39 -0.97,-0.62 -1.38,-1.07 -1.47,-0.09 -1.98,-0.91 -4.02,-0.14 -1.41,0.54 -1.83,1.31 -2.62,2.21 0.15,0.32 0.68,1 0.01,1.34 -0.97,0.49 -1.59,-1.12 -0.77,-2.48 0.38,-0.63 0.73,-0.48 0.8,-1.27 -0.33,-0.57 -1.13,-0.65 -1.72,-1.35 -0.41,-0.49 -0.78,-1.19 -0.72,-2.05 0.09,-1.51 1.22,-2.75 2.69,-3.03 0.11,1.53 -0.2,0.92 -0.53,1.9 -0.21,0.61 -0.24,1.33 0.08,1.76 -0.14,-1.73 0.23,-2.51 1.8,-2.73 -0,1.22 0.71,2.35 1.68,2.7 0.26,-0.25 -0.09,-0.04 0.37,-0.22l1.74 -0.28c1.08,-0.01 1.52,0.23 2.44,0.38l1.4 0.78 0.12 1.35c0.6,2.36 4.05,1.99 2.95,-0.55l-0.25 0.7c-0.08,0.31 -0.07,0.3 -0.18,0.52l-0.75 0.18c-0.76,-0.58 -0.71,-1.21 -0.58,-2.36 0.44,-0.29 0.25,-0.44 0.9,-0.69 0.43,-0.17 0.97,-0.17 1.41,-0.04 0.86,0.26 1.09,1.09 1.27,2.02 0.03,1.69 -0.2,2.44 -0.68,3.89 -0.55,1.62 -0.64,2.74 -1.52,3.08 0.43,-4.13 -1.72,-5.48 -1.7,-4.55 0,0.02 0,0.07 0.01,0.09 0.02,0.13 0.1,0.27 0.16,0.38 0.4,0.87 0.56,1.83 0.53,2.84 -0.04,1.39 -0.44,2.52 -0.9,3.62 -1.15,2.74 -3.05,3.82 -3.74,5.14 2.08,-0.79 5.01,-5.29 6.63,-4.81 0.22,0.62 -0.33,1.38 -0.6,1.82 -0.41,0.67 -0.79,0.74 -1.26,1.25 0.55,0.23 2.64,-1.93 2.95,-2.28 0.41,-0.45 0.45,-1.19 0.79,-1.92 0.25,-0.53 0.8,-1.29 1.39,-1.15 0.42,0.54 0.05,0.58 -0.08,1.31 1.17,-0.4 1.09,-1.2 1.69,-2.19 0.53,-0.87 1.74,-1.68 2.43,-0.44 0.82,1.49 -2.29,3.87 -2.88,4.43 -1.7,1.6 -4.84,3.47 -6.91,4.69 -0.82,0.48 -1.7,0.86 -2.51,1.39 -0.4,0.18 -1.12,0.57 -1.57,0.69 0.26,0.42 -0.1,0.1 0.47,0.22 0.18,-0.16 3.02,-1.49 3.51,-1.66l4.4 -2.65c0.75,-0.46 1.43,-0.98 2.12,-1.45 0.79,-0.54 1.36,-1.14 2.15,-1.58 0.14,0.27 0.24,0.38 0.44,0.58 -1.02,1.09 -4.47,3 -5.15,3.62l-0.16 0.16c0.82,-0.28 1.37,-0.76 2.16,-1.07 0.15,-0.25 2.13,-1.43 2.56,-1.73 0.57,-0.4 0.73,-0.75 1.46,-0.57 0.76,0.19 1,0.24 1.86,0.25 -0.17,1.93 1.32,2.05 2.43,1.16 1.53,0.81 2.38,0.93 4.26,-0.58 1.82,-1.46 1.43,-2.52 0.62,-3.83 0.36,-0.45 0.44,-0.44 0.83,-0.75 2.1,-1.64 3.62,-4.24 3.58,-7.21 -0.21,0.48 -0.17,1.63 -0.53,2.15 -0.26,1.57 -1.31,2.8 -2.1,3.73 -1.3,1.53 -2.71,1.88 -3.04,2.6 0.64,-0.03 1.44,-0.76 1.6,0.77 0.15,1.46 -1.46,2.72 -2.62,3.17 -1.05,0.41 -1.59,0.04 -2.37,-0.29 0.09,-0.81 0.08,-0.76 -0.1,-1.44 0.38,-0.13 0.54,-0.26 0.84,-0.37 -1.46,0.29 -2.61,1.14 -3.98,0.08 -0.49,-0.38 -0.62,-0.2 -1.18,-0.55zm-7.22 -2.88c1.27,-0.68 0.68,1.15 -0.05,1.59 -0.94,0.56 -1.42,-0.79 0.05,-1.59zm7.09 -3.02c0.09,1.29 -1.08,1.43 -1.34,0.77 -0.37,-0.92 0.53,-1.25 1.34,-0.77zm-0.07 -1.25c-0.39,0.09 -0.11,0.15 -0.42,-0.07 0.01,-0.39 0.15,-0.35 0.43,-0.33 0.01,0.04 0.05,0.08 0.05,0.1l-0.06 0.3zm-12.14 -8.31c-1.64,0.73 -1.32,1.53 -3,0.33 0.21,-1.86 0.2,-1.86 1.08,-3.34 0.47,-0.78 1.2,-2.1 2.36,-1.58 0.18,0.39 0.22,3.5 0.17,4.16l-0.48 0.3c-0.01,0.01 -0.06,0.09 -0.07,0.06 -0.01,-0.02 -0.05,0.04 -0.07,0.06zm-4.07 -0.33c0.03,0.53 0.06,1.22 -0.32,1.45 -0.98,0.61 -1.51,-2.4 0.36,-1.49l-0.04 0.04zm-2.76 0.87l-0.57 0.15c-0.04,-0.09 -0.06,0.11 -0.09,-0.31l0.17 -0.77c0.17,-0.39 0.36,-0.49 0.61,-0.78 0.18,0.13 0.16,-0.21 0.14,0.25l-0.07 1.34 -0.19 0.13z"/>
   <path class="fil1" d="M177.24 309.59c-73.09,0 -132.35,-59.25 -132.35,-132.35 0,-73.09 59.25,-132.35 132.35,-132.35 73.09,0 132.35,59.25 132.35,132.35 0,73.09 -59.25,132.35 -132.35,132.35zm0 44.89c97.89,0 177.24,-79.35 177.24,-177.24 0,-97.89 -79.35,-177.24 -177.24,-177.24 -97.89,0 -177.24,79.35 -177.24,177.24 0,97.89 79.35,177.24 177.24,177.24z"/>
   <path class="fil0" d="M117.67 272.54c-5.08,-1.62 -4.38,-4.53 -6.35,-8.48l17.87 11.93c-3.6,-1.01 -7.35,-2.13 -11.51,-3.45zm91.2 -116.58c2.66,-4.47 4.72,-4.06 7.54,-5.96 -1.23,-0.41 -2.47,-0.8 -3.71,-1.17 -2.67,0.94 -3.9,2.9 -3.83,7.13zm-37.14 -5c4.06,-1.78 16.43,-2.73 21.81,-3.46 4.06,-0.55 5.69,-0.99 6.57,-1.74 -2.67,-0.5 -5.36,-0.92 -8.09,-1.25 -1.06,-0.13 -2.12,-0.24 -3.18,-0.34 -3.84,-0.37 -7.73,-0.56 -11.67,-0.57 -3.93,0.01 -7.82,0.2 -11.67,0.57 -1.06,0.1 -2.12,0.22 -3.18,0.34 -3.62,0.44 -7.19,1.03 -10.71,1.78 -1.06,0.23 -2.12,0.46 -3.18,0.72 -1.75,0.42 -3.49,0.87 -5.21,1.36 2.23,0.85 5.29,1.14 10.39,2.06 5.3,0.95 5.28,3.03 9.45,3.53 5.27,0.63 4.99,-1.39 8.66,-3zm-33.32 3.43c4.56,3.9 2.78,3.13 5.09,7.3 0.48,-8.12 0.01,-9.01 -7.7,-9.75l2.61 2.45zm-20.28 23.6l0.33 -19.59c-1.08,0.58 -2.15,1.17 -3.21,1.78 0.56,5.71 0.1,12.13 2.88,17.81zm-47.63 31.67zm232.9 -60.72l-232.9 60.72zm232.9 -60.72c-0.01,-0.02 -0.01,-0.04 -0.02,-0.07l0.02 0.07zm-97.95 109.51c0.73,4.52 -1.13,-3.82 0,0zm-113.36 -81.33c-4.08,3.75 -7.93,7.76 -11.52,12 -1.08,1.28 -2.14,2.58 -3.18,3.91 -3.08,3.54 -6.26,9.34 -6.9,16.62 3.24,1.77 5,4.43 9.05,6.64 7.58,4.13 5.08,0.4 8.8,8.02 0.7,9.86 -1.06,9.89 5.37,14.3 4.04,2.77 6.82,3.96 8.22,10.42 -2.88,-2.07 -2.64,-3.16 -5.99,-5.51 -2.25,-1.58 -4.53,-2.46 -7,-4.16 -5.6,-3.85 -3.27,-8.61 -6.07,-14.99l-0.71 15.96c-1.06,-4.04 0.46,0.09 -1.78,-1.95 0.78,-4.24 -0.31,-9.99 -2.18,-13.7 -2.11,-4.18 -5.29,-5.38 -8.87,-7.19 -0.37,-12.49 -3.4,-20.51 -3.4,-20.51l-3.18 -11.32 0 0.24 -0.19 -0.92 -6.6 -31.8c0,0 -0.82,-4.73 -3.53,-9.95 -3.05,11.21 -4.57,22.38 -4.57,34.03 0,48.27 26.45,90.37 65.65,112.59 1.74,0.99 3.5,1.93 5.29,2.84 0.05,0 0.09,0 0.14,0 6.38,0.11 12.48,-0.04 14.51,0.02 10.27,0.31 21.48,0.46 31.14,2.12l-37.28 1.73 -0.13 0.01c1.52,0.64 3.06,1.25 4.61,1.83 0.06,0 0.13,0.01 0.19,0.01 15.09,0.98 36.42,0.82 47.48,1.17 -4.22,1.78 -18.72,2.69 -32.76,3.34 -0.06,0 -0.12,0.01 -0.18,0.01 3.01,0.73 6.05,1.36 9.14,1.87l0.31 0.01 38.52 0.6 0.2 0c10.71,-1.45 21.01,-4.21 30.72,-8.12 -0.01,0 -0.03,0 -0.04,0 -11.85,0.25 -25.47,-0.44 -28.69,-1.94 3.35,-1.25 22.62,-1.54 35.53,-1.04 0.01,0 0.01,0 0.02,0 2.6,-1.23 5.16,-2.54 7.67,-3.93 2.65,-1.47 5.24,-3.04 7.78,-4.68 5.06,-3.29 9.87,-6.93 14.4,-10.88 -0.62,0.23 -1.33,0.49 -2.15,0.83 -4.08,1.69 -6.14,3.21 -10.25,4.59 3.56,-5.89 11.85,-8.36 15.16,-12.85 2.79,-3.79 4.39,-11.23 13.92,-15.23 -0.74,3.38 -3.92,8.7 -6.8,13.1 21.45,-23.08 34.56,-54.01 34.56,-88.01 0,-9.73 -1.07,-19.2 -3.11,-28.31 0.01,-0.04 0.03,-0.08 0.04,-0.11 -0.42,-1.88 -0.88,-3.75 -1.39,-5.6 -2.71,5.22 -3.53,9.95 -3.53,9.95l-6.79 32.72 -3.18 11.08c0,0 -3.56,-2.64 -9,-2.96l-0.95 1.15c-0.06,0.08 -0.11,0.17 -0.17,0.26l-0 0c-1.11,1.72 -2.24,3.95 -2.85,7.6 -0.97,5.8 -0.75,16.26 -2.55,20.78l-0.31 -26.47c-0.69,0.89 -0.68,0.6 -1.34,2.24l-0.89 5.45c-1.12,9.39 -8.1,8.43 -6.83,19.35 -1.9,2.99 -2.22,9.74 -2.85,13.87 -2.85,-28.62 3.67,-24.98 5.42,-31.38 1.45,-5.31 -0.87,-10.62 2.47,-15.65 0.71,-1.08 2.12,-2.39 3.74,-3.67 -3.2,-3.67 -6.59,-7.15 -10.16,-10.42 -0.55,-0.5 -1.1,-1 -1.65,-1.49 -0.51,-0.45 -1.02,-0.9 -1.53,-1.34 -0.74,-0.64 -1.49,-1.27 -2.25,-1.89 -5.85,13.13 -3.14,47.74 -6.72,53.57 -3.51,-1.89 -1.93,-14.69 -1.93,-18.92 -0.01,-14.37 -0.51,-26.85 5.57,-37.1 -1.01,-0.78 -2.03,-1.55 -3.07,-2.3 -13.45,18.54 -6.82,67.95 -12.6,87.22 -2.37,-2.57 -2.1,-6.21 -2.67,-9.94 -0.31,1.42 -0.77,4.15 -1.05,5.08 -1.67,5.57 0.29,2.53 -2.52,4.13l-1.4 -32.88c0,-10.83 0,-21.65 0,-32.48 -0.01,-20.28 0.75,-28.32 2.02,-32.16 -0.65,-0.32 -1.31,-0.64 -1.97,-0.96 -0.87,-0.41 -1.74,-0.81 -2.61,-1.21 -0.76,1.09 -1.56,2.47 -2.66,4.49 0.42,-1.87 1.07,-3.46 1.83,-4.85 -1.03,-0.45 -2.07,-0.89 -3.12,-1.32 -1.71,3.06 -2.95,6.61 -3.51,10.26 -4.11,27.08 -3.3,87.45 -5.83,96.72 -1.14,-0.94 -1.53,-0.29 -2.09,-4.97 -0.21,-1.77 -0.3,-4.09 -0.46,-5.93 -3.12,13.33 0.64,11.42 -5.57,12.64l-0.69 -1.77c-0.14,-0.52 -0.26,-0.93 -0.36,-1.26 -0.03,-0.19 -0.06,-0.39 -0.1,-0.62l-0.11 -107.38c-8.51,0.22 -13,0.79 -16.42,6.52 -0.56,-2.69 1,-2.28 -0.59,-4.48 -4.11,1.73 -5.54,3.62 -7.86,6.55l2.51 -5.62c-3.86,0.81 -7.01,3.82 -7.31,7.37 0.17,-2.51 1.2,-4.37 1.95,-6.79 -10.54,1.62 -11.14,9.9 -12.1,24.51 -2.46,-9.45 -0.96,-20.02 -9.68,-23.4 -0.11,0.19 -0.18,0.51 -0.21,0.63 -0.03,0.11 -0.16,0.48 -0.19,0.61l-0.23 2.8c-2.24,-3.78 -3.1,-5.1 -8.4,-5.59 0.37,7.5 1.9,14.45 1.88,24.07l-0.01 52.78c-0.03,4.19 -0.19,8.56 -0.29,12.56 -0.09,3.67 0.68,9.11 -1.7,11.94 -2.74,-4.33 -0.41,-6.23 -3.16,-10.77 -0.34,5.13 0.56,8.47 -2.93,10.4 -0.89,-1.93 -2.62,-60.61 -3.52,-70.16 -0.99,-10.51 -1.39,-23.41 -9.69,-27.09 -1.25,-0.56 -2.25,-1.16 -3.06,-1.8 -0.13,0.06 -0.26,0.12 -0.39,0.19 -1.07,0.51 -2.13,1.03 -3.18,1.56 -0.04,0.02 -0.07,0.04 -0.11,0.06 5.98,11.2 6.31,37.54 7.34,50.54 4.07,-13.02 0.43,-30.42 0.4,-44.36 7.71,8.68 6.31,46.72 6.27,60.85 -0.01,4.38 0.68,18.24 -1.15,21.43 -2.8,-3.94 -2.08,-12.66 -2.61,-18.38 -3.45,-2.12 -2.87,6.72 -6.07,-11.73l-0.83 36.97c-3.9,-0.61 -2.78,-0.64 -4.07,-3.59 -1.68,5.03 0.59,1.63 -2.66,2.89 -4.28,-9.34 -2.94,-63.88 -10.96,-86.04 -1.62,1.11 -3.21,2.26 -4.77,3.45 5.66,13.2 4.45,33.6 4.5,47.94 0.03,7.94 0.19,7.39 -1.97,9.38 -3.54,-5.63 -0.03,-40.43 -6.9,-53.86 -0.61,0.5 -1.22,1.02 -1.82,1.53 -0.95,0.81 -1.88,1.64 -2.8,2.48 -0.13,0.11 -0.25,0.23 -0.38,0.35zm132.87 110.94c2.15,-3.41 3.11,-2.92 6.9,-3.58 -1.73,2.21 -0.36,1.58 -3.05,2.96 -1.41,0.73 -2.36,0.54 -3.86,0.62zm-2.32 -9.97c2.19,-3.05 5.72,-7.59 10.6,-8.34 -0.17,0.24 -0.42,0.3 -0.51,0.71 -0.09,0.39 -0.39,0.53 -0.51,0.68 -4.17,4.89 -4.35,5.83 -9.57,6.95zm-60.47 3.83c-1.39,-1.11 -0.77,-0.92 -1.79,-2.26l5.87 2.17c-0.92,0.65 1.83,2.44 -2.76,0.91 -0.26,-0.09 -1.07,-0.62 -1.32,-0.82zm45.16 1.3c2,-3.96 2.89,-5.85 8.22,-5.85 -3.93,3.07 -2.87,4.58 -8.22,5.85zm-68.3 -8.82c-7.05,-1.33 -4.59,-3.3 -7.41,-6.04 3.36,1.16 4.96,1.52 7.41,6.04zm28.98 -21.65c-0.74,-4.35 -1.13,-75.02 5.24,-82.88l-2.97 86.44c-1.86,-1.13 -1.76,-0.59 -2.26,-3.56zm11.08 5.97c-3.18,-4.84 -2.24,-41.67 -2.23,-52.7 -0,-15.86 0.46,-32.18 6.99,-44.5 -1.18,16.48 -2.76,31.37 -2.81,48.56 -0.02,8.36 0.9,44.11 -1.95,48.64zm9.13 2.1c-2.71,-5.52 -1.61,-50.22 -1.6,-64.95 0.01,-13.11 1.54,-28.5 7.22,-38.01 -3.53,18.85 -3.23,68.77 -3.74,92.84 -0.03,1.57 0.04,4.63 -0.13,6.03 -0.45,3.8 0.35,2.07 -1.75,4.09zm9.13 -0.21c-1.89,-5.58 -0.86,-45.42 -0.86,-54.59 -0,-8.99 0.34,-18.16 1.08,-27.09 0.6,-7.29 4.1,-18.9 4.13,-21.98l-0.7 103.59 -3.65 0.06zm25.37 -6.22c-3,-4.55 -1.56,-65.81 1.01,-72.72 1.91,4.86 1.13,53.69 0.93,66.01 -0.07,4.25 0.99,5.53 -1.95,6.71zm-62.02 -4.04l-6.61 -0.69c-0.58,-15.75 -0.5,-31.9 -0.68,-47.7 -0.17,-14.98 -1.88,-29.29 -2.31,-43.12 5.53,10.43 5.46,35.24 6.47,49.1l2.7 -36.14c2.07,26.06 0.62,52.26 0.43,78.54zm94.51 9.52c2.6,-9.35 5.87,-8.91 13.84,-12.83 3.93,-2.01 6.25,-4.08 9.99,-5.5 -0.62,1.65 -0.67,2.58 -0.89,3.4 -3.39,2.05 -4.87,4.55 -8.43,7.07 -2.36,1.67 -8.38,4.34 -9.8,6.42 -3.42,4.99 1.18,7.13 -15.55,15.2 3.3,-3.43 9.17,-7.76 10.84,-13.75zm-159.54 5.56c0.08,0.13 -0.26,-0.02 0,0zm-9.68 -14.45c2.48,-4.95 13.86,2.33 18.75,15.67 -3.78,-3.59 -3.94,-5.15 -8.22,-7.16 -0.7,-2.52 2.05,0.69 -1.63,-2.72 -1.04,-0.96 -1.91,-1.31 -3.03,-2.1 -2.66,-1.88 -2.94,-3.02 -5.88,-3.69z"/>
   <path class="fil0" d="M212.82 125.48c0.12,-0.58 0.32,-0.45 0.57,-0.98 0.21,-0.45 0.12,-0.75 0.25,-1.24 0.12,-0.46 0.67,-1.57 0.87,-2.01 0.25,0.51 0.17,1.34 0.17,1.97 0,1.44 0.13,1.36 -0.45,2.27l-1.42 0zm-67.22 -0.14c-0.25,-0.47 -0.09,-0.08 -0.58,-0.41 -0.64,-0.43 -0.32,-0.77 0.1,-1.86l1.75 0.38 -0.32 2.2 -4.29 0.04c-0.42,-0.87 -0.64,-0.71 0.4,-1.29 0.34,-0.19 0.37,-0.23 0.65,-0.48 0.37,-0.34 0.24,-0.4 0.62,-0.4 0.23,0.84 -0.2,1 0.37,1.52 0.29,0.26 0.83,0.71 1.31,0.31zm83.07 -2.45c0.07,0.11 0.37,0.87 0.38,1.2 0.01,0.31 -0.06,0.51 -0.22,0.69 -0.31,0.35 -0.21,0.19 -0.48,0.24l-0.48 0.3c-0.02,0.02 -0.05,0.05 -0.07,0.07 -0.21,0.18 -0.09,0.18 -0.43,0.25l-2.43 -0.04c0.14,-0.78 0.37,-0.57 0.18,-1.4 -0.13,-0.59 -0.16,-0.95 -0.09,-1.58 0.63,-0.08 1.26,-0.01 1.92,-0.11 0.55,-0.08 1.02,-0.33 1.52,-0.32l0.19 0.68zm-26.61 -0.59c0.31,0.48 0.65,2.1 -0.93,1.84l0.65 -0.46 0.27 -1.38zm-36.86 -1.44l0.07 -0.22c0.64,0.27 0.58,0.26 0.94,0.88 0.23,0.38 0.48,0.76 0.51,1.2l0.23 0.31c0.02,0.03 0.03,0.06 0.04,0.08 0.06,0.11 0.13,0.32 0.19,0.48 -0.34,0.62 0.08,-0.14 -0.43,0.5 -0.01,0.02 -0.04,0.09 -0.05,0.07 -0.01,-0.02 -0.03,0.05 -0.05,0.08 -0.32,-0.64 -0.21,0.01 -1.23,-0.42 -0.82,-0.35 -0.43,0.38 -0.63,-0.17 -0.01,-0.03 -0.05,-0 -0.07,-0.01 -0.07,0.48 0.29,0.39 -1.13,0.89 -0.03,-0.76 1.16,-3.27 1.61,-3.66zm28.09 1.56c0.03,0.04 0.24,0.18 0.23,0.42 -0.01,0.33 -0.04,0.13 -0.2,0.23 -0.19,-0.32 -0.11,-0.22 -0.02,-0.65zm1.65 -0.89c1.07,0.12 1.75,0.41 3.01,0.35 1.31,-0.06 1.59,-0.49 2.5,-0.69 0.31,0.49 0.4,1.07 0.33,1.73 -0.13,1.17 -0.77,0.86 -1.13,1l-0.24 -0.57c-0.12,0.72 0.07,0.2 -0.27,0.5 -0.41,-0.29 0.09,0.18 -0.9,-0.18 -1.02,-0.38 -0.49,-0.13 -1.23,-0.17l-0.32 -0.02c-0.02,0 -0.06,0.01 -0.08,0.01 -0.56,0.05 -0.42,-0.13 -0.84,-0.03 0.04,-0.25 0.19,-0.53 0.18,-0.57 -0.42,0.25 -0.35,0.12 -0.84,0.07 -0.03,-0 -0.07,-0.01 -0.1,-0.01l-0.16 -0.01c-0.02,-0 -0.05,0 -0.07,0l-0.21 0.01c-0.01,-0.02 -0.05,0.01 -0.07,-0 0.06,-0.61 0.05,-0.87 0.45,-1.43zm14.83 3.89c-0.17,-2.2 0.03,-2.62 0.05,-4.09 0.02,-1.19 -0.32,-2.54 0.39,-3.58 0.97,0.22 0.97,0.49 2.27,0.47 0.23,0.71 0.82,1.61 0.88,2.11 0.16,1.32 -0.47,4.07 -1.13,4.77 -0.46,0.48 -0.35,0.4 -1.13,0.4 -0.44,-0 -0.89,-0 -1.33,-0.07zm-47.44 -2.52c-0.3,1.17 -0.03,1.21 -0.74,1.66 -0.13,0.08 -0.15,0.09 -0.23,0.15 -0.59,0.38 -0.19,-0.25 -1.04,0.24 -0.6,0.35 -0.36,0.4 -0.53,0.18 -0.5,0.37 -0.05,0.21 -0.46,0.32 -0.52,0.14 -0.28,0.01 -0.42,-0.13 -0.36,-0.37 -1.03,-1.57 -0.99,-2.37 -0.19,-0.24 -0.18,-0.22 -0.2,-0.74 0.51,-0.46 0.88,-0.18 1.36,-0.79 0.45,-0.57 0.38,-0.87 1.29,-0.98l2.6 -0.58c-0.03,1.2 -0.61,2.2 -0.65,3.05zm7.83 -2.7c-0.03,3.01 0.89,2.1 0.76,3.51l-0.24 -0.17c-0.02,-0.02 -0.05,-0.04 -0.07,-0.05 -0.92,-0.61 -0.64,0.17 -1.45,0.36 -0.36,-0.35 -1.26,-3.41 -1.3,-3.58 -0.34,-0.42 -0.8,-1.88 -0.64,-2.79 0.68,-0.43 1.64,-0.47 2.53,-0.37 0.47,0.82 0.49,1.99 0.42,3.09zm4.28 -11.55c-0.3,-0.4 -0.44,-1.33 -0.39,-1.95 0.47,0.51 -0.15,0.39 1.41,2.18 0.27,0.31 0.3,0.32 0.31,0.8 -0.31,-0.1 -1.14,-0.78 -1.33,-1.03zm-5.91 -3.84c-0.45,0.15 -2.64,-0.52 -3.15,-0.76 0.95,-0.06 2.48,-0.07 3.15,0.76zm-3.26 -0.89c-0.01,0.01 0.1,0.41 -0.96,-0.15 -0.49,-0.26 -0.55,-0.29 -0.67,-0.67 1.09,0.1 0.52,0.5 1.63,0.82zm36.02 -0.81c-0.87,0.12 -0.84,-0.19 -0.84,-0.19 0.22,-0.21 0.61,-0.26 0.98,-0.23 0.52,0.03 0.68,0.08 0.93,0.34 -0.49,0.01 -0.65,0.02 -1.07,0.08zm-25.5 4.96c-0.54,-0.48 -1.59,-2.35 -1.28,-3.17 0.22,-0.56 1.4,-2.72 1.65,-2.97 0.63,0.02 0.55,0.16 0.85,0.51 0.4,0.46 0.33,0.19 0.86,0.47 -0.41,0.48 -0.5,0.27 -0.86,0.98 -0.72,1.42 -0.34,2.13 -0.66,2.97 -0.13,0.35 -0.34,0.99 -0.57,1.21zm-19.32 -4.84c-0.38,-0.13 -0.45,0.3 -0.36,-0.39 0.02,-0.15 0.26,-0.27 0.27,-0.28 0.3,0.34 0.26,0.23 0.09,0.67zm7.75 -0.39c-0.33,-0.18 -0.21,-0.01 -0.36,-0.34 0.66,-0.06 0.76,-0.32 1.65,-0.08 0.95,0.26 0.93,-0.03 1.76,0.1 0.52,0.08 1.68,1.08 2.4,1.38 2.16,0.9 3.74,0.29 3.29,4.09 -0.87,-0.18 -0.83,-1.62 -2.05,-2.45 -0.42,-0.28 -1.06,-0.46 -1.45,-0.81 -1.05,-0.93 -0.97,-0.43 -1.03,-1.23 -0.03,0.03 -0.06,0.07 -0.08,0.09l-0.34 0.29c-0.87,-0.4 -1.37,-0.2 -2.37,-0.37l-1.43 -0.67zm-5.97 0.04c0.1,-0.52 0.21,-0.46 0.7,-0.54 0.44,-0.07 0.61,-0.13 0.82,0.37l-1.52 0.17zm-1.34 -0.16c0.01,-0.04 0.04,-0.04 0.07,-0.05 -0.48,-0.29 -0.18,-0.02 -0.36,-0.38 0.5,-0.32 1.02,-0.14 1.6,0.13 -0.19,0.67 -0.36,0.61 -1.56,0.72l0.25 -0.42zm64.33 -0.68c0.13,-0.08 0.05,-0.22 0.45,-0.11 0.55,0.14 0.15,0.08 0.32,0.26 -0.35,0.24 -0.59,0.45 -0.77,-0.14zm-48.81 -0.45c0.51,-0.43 2.38,-0.01 3.04,0.45 -0.13,0.39 -0.29,0.72 -0.62,0.99 -0.07,0.48 -0.22,0.45 -0.46,0.99 -0.2,0.45 -0.15,0.59 -0.48,0.9 -0.75,-0.34 -0.78,-0.81 -1.92,-1.35 -1.15,-0.54 -1.07,-0.56 -1.59,-1.69l0.54 -0.68c0.69,0.17 0.3,0.33 1.49,0.38zm-17.5 0.77c-0.19,-0.18 -0.14,-0.17 -0.19,-0.46l0.89 0.13c0.69,0.17 0.56,0.7 0.25,1.18 -0.18,-0.02 -1.76,-0.56 -1.68,-1.1 0.09,-0.05 -0.15,-0.24 0.39,-0.05l0.35 0.3zm42.71 -0.27c-0.02,-0.35 0.08,-0.43 0.33,-0.76l1.27 0.46c-0.41,0.46 -1.04,0.38 -1.6,0.3zm-36.09 -0.12c-0.46,0 -0.49,0.05 -0.85,-0.21l0.32 -0.35c0.48,0.12 0.39,0.03 0.54,0.55zm0.39 -0.49c-0.49,0.12 -0.67,0.14 -0.79,-0.44 0.13,-0.13 0.71,0.05 1.14,0.1 0,0.04 0,0.36 0,0.38 0.04,0.34 -0.01,0.08 0.09,0.25 0.12,-0.49 -0.22,-0.34 0.45,-0.56 0.02,-0.01 0.09,0.01 0.1,-0.03 0.02,-0.04 0.07,-0.03 0.11,-0.04 0.2,0.28 0.38,0.53 0.47,1.02 -0.37,0.27 -0.14,0.19 -0.64,0.09 0.24,0.45 0.31,0.19 0.27,0.39 -0.63,0.01 -1.5,0.06 -2.02,-0.23 0.11,-0.42 0.12,-0.14 0.51,-0.52 0.16,-0.16 0.15,-0.26 0.31,-0.41zm-1.77 0.28c-0.16,-0.57 0.04,-0.7 0.58,-0.7 -0.09,0.4 -0.25,0.61 -0.58,0.7zm22.68 2.92c-0.16,0.2 -0.05,0.08 -0.27,0.27 -0.08,0.07 -0.14,0.11 -0.22,0.16 -0.23,0.16 -0.31,0.21 -0.56,0.35 -0.44,0.69 -1.04,1.05 -1.35,2.12 -0.24,0.83 -0.25,2.16 -0.8,2.62 -0.12,0.48 -0.29,0.74 -0.45,1.13 -0.1,0.24 -0.13,0.35 -0.23,0.52 -0.07,0.11 -0.11,0.15 -0.17,0.24 -0.01,0.02 -0.06,0.1 -0.07,0.08 -0.01,-0.02 -0.05,0.05 -0.07,0.08 -0.54,-0.31 -0.53,-0.65 -0.82,-1.13 -0.27,-0.45 -0.59,-0.7 -0.26,-1.21 -0.05,-0.2 0.07,-1.85 0.12,-1.99 0.12,-0.49 0.07,-1 0.22,-1.39 0.06,-0.16 0.42,-0.73 0.54,-0.95 0.34,-0.62 0.27,-0.4 0.69,-0.81 0.43,-0.42 0.26,-0.38 0.44,-1.09 0.36,-0.29 0.85,-0.45 1.36,-0.74 0.45,-0.26 0.76,-0.52 1.18,-0.84 0.81,-0.61 1.96,-0.83 3.13,-1.09 0.1,-0.09 1.23,-0.67 1.4,-0.72 -0.19,1.9 0.21,1.13 -1.29,2.67 -0.77,0.79 -0.5,0.38 -1.29,0.84 -0.44,0.26 -0.76,0.6 -1.21,0.88zm4.52 -3.46c-0.12,-0.92 0.29,-1.01 1.15,-0.9l-0.48 0.56c-0.08,0.08 -0.06,0.1 -0.2,0.19l-0.48 0.15zm-30.5 -0.27c0.62,0.18 0.23,-0.1 0.39,0.34 0.34,-0.62 -0.1,-0.52 0.64,-0.54l-0.34 0.34 0.3 0.32 0.46 -0.2c0.47,0.46 0.48,-0.08 0.9,0.44 -0.23,0.34 0.18,0.16 -1.1,0.19 -0.38,0.01 -0.76,-0.14 -1.11,-0.19 -0.6,-0.01 -0.46,0.09 -0.92,-0.49 -0.21,0.72 0.29,0.28 -0.34,0.62 -0.32,-0.18 -0.2,0.02 -0.38,-0.56 -0.21,0.47 -0.02,0.23 -0.75,0.44l-0.08 -0.46c-0.01,-0.05 -0.09,-0.18 -0.13,-0.23 0.51,-0.31 0.86,-0.01 0.87,-0.57 0,-0.01 -0.02,0 -0.03,0 0.9,-0.43 0.71,0.06 0.92,0.26l0.71 0.3zm17.56 -0.8c1.18,0.04 0.32,0.07 1.22,-0.25l0.1 0.17c0.26,0.43 0.98,0.57 1.05,1.33 -0.83,0 -0.56,0.03 -0.77,-0.24 -0.56,-0.71 0.36,0.32 -0.16,-0.22 -0.52,-0.54 -1.13,-0.41 -1.44,-0.79zm-10.53 0.98c-0.33,-0.78 0.21,-1.39 0.52,-1.46 1.02,-0.23 0.24,1.13 -0.52,1.46zm10.53 -0.98c-0.54,0.1 -0.21,0.05 -0.67,0.27 0.24,-0.72 0.19,-0.7 0.9,-0.63 -0.08,0.29 -0.01,0.2 -0.23,0.35zm-5.28 0.09c-0.52,-0.15 -1.06,0.18 -1.21,-0.42 0.68,-0.03 1.01,-0.18 1.21,0.42zm-17.77 0.28c-0.07,-0.1 -0.14,-0.26 -0.27,-0.37l-0.38 -0.25c0.45,-0.44 0.78,-0.19 1.12,0.12 -0.2,0.15 -0.21,-0.02 -0.47,0.49zm38.71 2.45c-0.32,0.5 -0.62,0.85 -1.05,1.18 -0.28,0.22 -0.88,0.82 -1.15,0.93 -0.43,0.81 -3.32,1.85 -4.16,2.78 -0.42,0.47 -1.6,1.81 -2.25,1.74 -0.03,-0.24 0.21,-1.88 0.28,-2.08 0.22,-0.67 1.91,-2.11 2.56,-2.45 3.26,-1.68 1.04,-2.27 4.7,-2.8 0.65,-0.09 1.55,-0.08 2.07,-0.44 0.53,-0.37 0.76,-0.79 1.6,-0.75 0.41,-0.46 0.19,0.19 0.6,-0.6l0.14 0.08c0,-0.01 -0.01,-0.02 -0.02,-0.03 0.32,-0.15 0.21,0.18 0.17,-0.32 0.63,0.17 0.45,0.15 1.09,0.02 0.11,0.03 0.29,0.09 0.37,0.08l0.9 -0.32 -0.25 -0.45c0.59,-0.15 0.69,-0.43 1.33,-0.37 0.33,0.03 0.86,0.28 1.27,0.39 -0.53,1.42 -0.91,0.57 -1.79,0.58 0.26,0.54 0.07,0.34 0.59,0.62l-0.37 0.24c-0.74,0.44 -0.13,0.83 -1.23,0.89 -0.62,0.04 -0.13,0.11 -0.58,-0.19l-0.13 0.36c-1.68,0.21 -1.44,-1.07 -4.72,0.92zm-22.38 -2.62c0.59,0.07 1.92,0.51 2.67,0.71 -0.32,0.64 -0.61,0.64 -0.3,1.53 -0.9,-0.2 -1.65,-0.73 -2.56,-0.81 -0.54,-0.05 -1.07,0.05 -1.58,-0.05 -0.6,-0.11 -0.71,-0.18 -1.45,-0.19 0.6,-1.05 1.68,-1.23 1.71,-1.31 0.02,-0.04 0.06,-0.02 0.09,-0.04 -0.12,-0.17 -0.19,0.22 -0.08,-0.21l1.08 -0.44c0.69,-0.35 0.77,-0.18 0.98,-0.13 -0.3,0.67 -0.35,0.34 -1.02,0.38l0.46 0.57zm42.41 -1.31l0.75 -0.06 0.04 0.36 -0.86 0.06 0.07 -0.36zm-1.95 1.91l-0.46 0.13c-0.18,-0.13 -0.25,-0.18 -0.38,-0.31 -0.01,0.02 -0.02,0.06 -0.03,0.07l-0.06 0.38c-0,-0.02 -0.02,0.05 -0.03,0.08 -0.15,-0.22 -0.16,-0.19 -0.24,-0.53 -0.6,0.22 0.01,0.08 -0.52,0.23l-0.11 -0.27c-0.43,0.02 -0.08,0.01 -0.36,0.12 -0.04,0.02 -0.22,0.13 -0.4,0.19l-0.06 -0.15c-0.58,-0.43 -0.17,-0.17 -0.89,-0.28l0.01 -0.3c-0.09,-0.5 -0.2,0.05 -0.44,-0.64 0.35,0.07 0.75,0.2 0.9,-0.05 0.01,-0.01 0.01,-0.05 0.01,-0.06l-0.01 -0.27c0.01,-0.04 0.01,-0.08 0.02,-0.11l0.2 -0.38 0.37 0.74c0.1,-1.25 0.83,-0 1.26,-0.98 0.69,0.23 0.23,-0.1 0.63,0.44 0.94,-0.37 0.62,-0.09 1.5,-0.07 -0.18,0.54 -0.4,0.51 -0.49,0.63 1.25,0 0.37,-0.02 0.87,0.38l-0.39 0.22c-0.05,0.02 -0.08,0.02 -0.12,0.04 -0.31,0.14 -0.13,-0.18 -0.33,0.16 -0.01,0.02 -0.02,0.06 -0.03,0.08l-0.01 0.86c-0.55,-0.15 -0.36,0.14 -0.42,-0.34zm-15.99 -0.85c-0.15,0.5 0.14,0.12 -0.37,0.4 -0.33,0.18 -0.04,-0.02 -0.23,0.14 -0.03,0.02 -0.06,0.06 -0.08,0.08l-0.18 0.2c-0.43,-0.01 -0.76,0.28 -1.22,0.41 -0.53,0.15 -1.07,0.16 -1.62,0.15 0.43,-1.13 0.47,-0.5 1.48,-1.71l0.56 -0.19c0.07,-0.01 0.26,-0.04 0.35,-0.04l-0.06 -0.22c-0.35,-0.16 -0.1,0.06 -0.23,-0.27 0.68,-0.39 0.94,-0.2 1.46,0.27 0.08,0.07 0.12,0.11 0.21,0.19l0.13 0.16c-0.13,0.41 0,0.15 -0.2,0.44zm0.96 -1.19c0.56,-0.05 1.21,-0.35 1.67,-0.13 0.2,0.62 -0.39,0.48 -0.86,0.67l-0.8 -0.54zm-5.1 0.34c0.59,-1.06 -0.08,-0.5 0.52,-0.78 0.15,0.25 0.2,-0.29 0.13,0.42 -0.04,0.41 -0.38,0.54 -0.78,0.56l0.13 -0.19zm-9.67 0.21c0.08,-0.13 0.19,-0.2 0.34,-0.37 0.35,-0.41 0.13,-0.23 0.33,-0.56 0.16,-0.27 -0.17,-0.42 1.05,-0.12 -0.13,0.48 -0.14,0.42 -0.45,0.61l0.62 0.39 -2.21 2.38c-0.17,-0.35 0.02,-0.44 -0.02,-1.01 -0.9,-0.55 -0.53,-0.27 -1.06,-1.14 0.21,-0.19 0.24,-0.12 0.45,-0.34 0.29,-0.32 -0.03,-0.42 1.5,-0.76 -0.19,0.39 -0.46,0.54 -0.55,0.91zm31.76 -0.42c-0.67,0.18 -0.47,0.08 -0.66,-0.01 -0.12,-0.5 0.14,0.02 -0.26,-0.76 1.33,0.02 0.96,-0.17 1.61,0.3 -0.25,0.17 -0.47,0.37 -0.69,0.47zm-28.28 2.02c0.16,-1.29 0.06,-1.56 0.9,-2.21 0.53,-0.41 1.48,-0.77 2.2,-0.57 -0.14,0.77 -0.62,1.07 -0.7,1.32 0.57,0.04 0.51,-0.12 0.69,-0.55 0.4,0.32 0.32,0.28 0.87,0.61 -1.06,0.96 -2.27,0.84 -3.95,1.4zm16.14 -2.64c0.46,-0.47 0.04,-0.18 0.47,-0.3 0.13,0.26 0.32,0.27 -0.17,0.8l-0.3 -0.5zm-8.25 0.04c-0.52,-0.01 -0.55,0.12 -0.45,-0.33 0.05,-0.02 -0.14,-0.33 0.3,0.01 0.29,0.23 0.03,0 0.16,0.32zm-10.53 3.66c-0.09,-0.74 0.7,-1.54 1.22,-2.09 0.16,-0.17 0.32,-0.3 0.44,-0.44 0.86,-0.99 0.13,-1.15 -0.04,-1.55 0.46,0.03 0.73,0.07 1.05,0.37l-0.78 0.79c0.35,2.75 -0.51,1.55 -1.2,2.31 -0.23,0.26 -0.24,0.43 -0.69,0.62zm15.89 -3.75c0.12,-0.72 0.21,-0.41 0.74,-0.4 0.5,0.01 0.59,-0.17 0.94,0.05 -0.42,0.29 -1.05,0.38 -1.68,0.34zm-9.27 0.28c0.29,-0.31 0.16,-0.14 0.52,-0.33 0.62,-0.32 0.74,-0.88 1.86,-0.81 0.01,0.32 -0.46,1.18 -0.71,1.32 -0.47,0.25 -1.27,0.09 -1.67,-0.18zm11.62 -0.42c-0.19,-0.2 -0.5,-0.23 0.13,-0.83 0.24,0.19 0.17,0.09 0.33,0.3 -0.12,0.46 -0.18,0.41 -0.46,0.53zm-7.61 -0.57c0.8,-0.1 1.13,-0.02 1.67,0.36 -0.17,0.22 -0.07,0.15 -1.06,0.34l-0.61 -0.7zm-6.45 -0.34c0,-0.02 0.02,-0.03 0.03,-0.05 0.42,0.02 0.38,-0.03 0.84,-0.09 -0.19,0.44 0.01,0.22 -0.41,0.4 -0.56,0.25 -1.08,0.93 -1.36,0.3 -0.02,-0.03 -0.04,-0.08 -0.06,-0.12l-0.13 -0.44c0.51,0.02 0.66,-0.05 1,0.15l0.1 -0.15zm10.69 0.67c-0.29,0.35 -0.24,0.48 -0.7,0.6 -0.2,0.05 -0.79,0.12 -1,0.1 -0.2,-0.43 -0.22,-0.3 -0.22,-0.82 0.24,-0.09 0.32,-0.07 0.63,-0.12 0.29,-0.04 0.11,-0.04 0.48,-0.08l0.76 -0.33c0.03,-0.01 0.19,-0.03 0.24,-0.04 -0.3,-0.17 -0.32,-0.15 -0.58,-0.55 0.47,0.04 0.78,0.17 0.94,0.24l0.38 0.32c-0.01,0.04 -0.15,0.33 -0.15,0.34 -0.02,0.44 -0,0.09 0.21,0.6 -0.58,-0.07 -0.26,-0.04 -0.34,0.05 -0.3,0.33 0.63,0.2 -0.48,0.25l-0.09 -0.38c-0.1,-0.44 0.26,0.2 -0.07,-0.21zm15.77 -1.24c0.16,-0.49 0.06,-0.64 0.62,-0.36 -0.18,0.3 -0.27,0.28 -0.62,0.36zm-17.08 -1.98c0.02,-0.01 0.06,-0.01 0.07,-0.02 0.01,-0.01 0.04,-0.01 0.05,-0.02l0.35 0.02c-0.12,0.32 -0.05,0.26 -0.31,0.55l-0.5 -0.42 0.33 -0.11zm7.33 -1.48c0.5,0.01 0.11,-0.03 0.25,0.28 -0.4,0.19 -0.15,0.21 -0.56,-0.06 -0.01,-0.22 0.1,-0.22 0.3,-0.21zm-0.79 0.21c-0.05,0.19 0.01,0.08 -0.12,0.23 -0.31,-0.04 -0.16,0.02 -0.37,-0.11 -0.16,-0.11 -0.06,-0.06 -0.2,-0.24l-0.73 -0.68c1.08,-0.05 0.54,-0.39 1.6,-0.23 -0.09,0.53 0.07,0.18 -0.13,0.41 0.4,0.17 0.24,-0.1 0.34,0.22 -0.17,0.41 0.01,0.24 -0.38,0.4zm-19.33 -4.84c-0.11,0.22 -0.48,0.31 -0.72,0.32 -0.47,0.02 -0.47,-0.39 -0.98,0.32 -0.18,-0.11 -0.2,0.07 -0.13,-0.15l-0.2 0.13c-0.03,0.02 -0.07,0.04 -0.1,0.05 -0.48,0.16 0.51,0.02 -0.21,0.05 -0.74,0.03 0.13,-0.68 -1.9,-0.13 -0.82,0.23 -0.67,0.03 -0.76,-0.13 -0.22,0.01 -0.11,-0.02 -0.34,0.29 -0.27,-0.11 -0.12,-0.07 -0.28,-0.2 -0.04,-0.03 -0.04,-0.28 -0.03,-0.05 -0.51,0.21 -0.4,0.03 -0.82,0.09 -0.74,0.09 -0.28,0.15 -0.38,-0l-1.01 0.28c-0.02,0.01 -0.06,0.03 -0.08,0.04l-0.15 0.05c-0.02,0.01 -0.05,0.01 -0.07,0.02l-0.24 0.1c-0.47,0.27 -0.59,0.39 -1.43,0.33 -0.13,0.38 0.02,0.03 -0.22,0.35 -0.13,0.18 -0.07,0.1 -0.18,0.22l0.25 0.24 -0.44 0.25c0.31,0.31 0.1,-0.12 0.29,0.49 -0.35,-0.02 -0.5,-0.12 -0.73,-0.23l-0.42 0.24c-0.89,-0.22 -0.18,0.11 -1.47,-0.23 -0.58,-0.15 -0.18,0.16 -1.26,0.31l-0.67 0.09c-0.65,0.16 -0.18,0.15 -0.62,0.38 -0.09,0.04 -0.35,0.08 -0.53,0.11 0.13,0.21 0.24,0.31 0.31,0.56 -0.84,-0.11 -0.51,0.02 -0.6,0.35 -0.86,-0.36 -1.2,0.23 -1.69,0.18 -1.92,-0.19 -0.73,0.07 -2.88,0.15l-0.2 -0.44c-0.34,0.3 -0.05,0.14 -0.55,0.12 -0.03,-0 -0.07,-0.01 -0.1,-0.01l-0.34 -0.02c-0.9,-0.09 -0.52,-0.08 -1.25,0.09 -0.69,0.16 -0.06,0.15 -0.8,0.14 -0.79,-0.01 -0.61,0.16 -1.02,-0.12l-0.11 0.1c-0.01,0.01 -0.04,0.04 -0.05,0.06 -0.59,0.62 -0.08,0.24 -0.79,0.48 -0.58,0.2 -0.55,0.36 -1.18,0.38 0.13,0.4 0.34,0.27 -0.18,0.36 -0.94,0.17 -0.29,0.51 -1.42,0.58 0.02,0.22 0.1,0.45 -0.13,0.69 -0.01,0.01 -0.04,0.03 -0.06,0.04 -0.01,0.01 -0.05,0.02 -0.06,0.03 -0.02,0.01 -0.05,0.02 -0.07,0.02 -0,0 -0.19,-0 -0.42,0.09 -0.6,0.25 -0.12,0.09 -0.28,0.21 -0.24,0.2 -0.13,-0.01 -0.41,0.16 -0.01,0.01 -0.04,0.03 -0.05,0.04l-0.52 0.66 -1.63 0.12c-0.02,0.01 -0.06,0.02 -0.09,0.03l-0.66 0.21c0.2,-0.37 -0.19,-0.04 0.34,-0.37 0.15,-0.09 0.23,-0.09 0.36,-0.13 -0.18,-0.25 0.31,-0.24 -0.42,-0.17l-0.67 0.31c-0.64,0.25 -0.39,0.54 -0.46,0.44l-0.87 0.14 -0.55 -0.07c0.03,0.52 0.05,0.17 -0.13,0.3l0.04 0.33c-0.54,-0.15 -0.19,-0.12 -0.48,0.43l1.62 -0.33c0.04,0.01 0.18,0.07 0.21,0.08 0.62,0.15 0.22,-0.21 1.29,-0.38l-0.05 0.68c-0.79,0.08 -0.31,0.35 -1.87,0.7 -0.14,0.27 -0.13,0.13 -0.53,0.06 0.34,0.52 0.08,0.35 -0.17,0.39 -0.04,0.69 -0.23,0.46 0.23,0.78 -0.81,0.36 -0.08,0.31 -0.69,0.82l0.26 -0.06c0.36,-0.01 0.29,0.32 0.57,-0.23 0.66,0.13 1.83,-0.23 2.35,0.12 -0.32,0.44 -0.23,0.08 -0.78,0.33 -0.31,0.14 -0.37,0.37 -0.6,0.33l1.2 -0.25c0.55,-0.26 0.35,-0.59 1.11,-0.32 0.01,0.8 0.08,0.17 -0.44,0.76 -0.26,0.3 -0.11,0.39 -0.38,0.43l0.11 0.13c0.26,-0.36 0.67,-1.04 1.12,-0.85 0.02,0.01 0.06,0.03 0.09,0.04 0.59,0.22 0.37,-0.04 1.12,0.04 -0.07,1.1 -0.64,1.27 -1.2,1.43 1.26,0.1 0.87,-0.93 1.36,-1.12l0.6 -0.19c0.11,-0.02 0.06,-0.01 0.16,-0.03 1.11,-0.21 1.06,-1.34 2.03,-0.56l-0.53 0.2c0.14,0.21 0.49,0.33 0.64,0.38 0.47,0.15 0.32,-0.05 0.66,-0.26 0.96,1.43 0.42,0.46 1.11,1.14l-0.36 1.21c0.55,0.43 0.01,-0.15 0.2,0.32 0.17,0.41 -0.01,0.48 0.17,0.79 0.54,-0.2 -0.38,-1.07 -0.09,-1.9 0.03,-0.01 -0.01,-0.18 0.72,-0.03 0.18,0.3 0.28,0.15 -0.07,0.47l0.42 -0.17 0.44 0.24c-0.08,-0.73 -0.11,-0.2 0.09,-0.44l0.76 0.01 0.99 -0.23 1.13 -0.25 1.5 -0.01c0.83,1.05 1.38,0.63 2.14,1.17 0.69,-0.13 1.65,0.58 2.43,0.75 0.56,0.12 2.08,0.45 2.31,0.7 3.78,0.76 2.46,-0.04 3.78,2.12 1.27,2.07 3.53,2.08 5.6,5.92 0.58,1.08 1.48,1.84 1.67,4.25 0.09,0.66 0.55,1.26 0.55,1.88 0.2,0.24 0.39,0.96 0.45,1.26 0.09,0.46 0.16,0.91 0.24,1.37l-0.34 0.13c-0.05,0.03 -0.18,0.14 -0.27,0.19l-0.2 -0.19 -0.3 -0.04c0.1,0.22 0.41,0.38 -0.38,0.91 -0.11,0.08 -0.07,0.05 -0.22,0.09 -0.46,-0.39 -0.15,-0.12 -0.38,-0.6 -0.19,0.12 -0.22,0.19 -0.47,0.2l-0.04 -0.39 -0.16 -0.25c-0.45,0.42 -0.04,0.45 -0.5,0.5l-0.26 -0.49c-0.56,0.73 -0.37,0.05 -0.76,0.53 -0.02,0.02 -0.04,0.06 -0.05,0.07l-0.17 0.19c-0.35,-0.45 -0.01,-0.34 -1.09,-0.33 -0.48,-0 -0.29,-0.01 -0.7,0.18l0.15 -0.08c-0.18,0.19 -0.12,0.57 -0.63,0.07 -0.13,0.63 -0.47,0.78 -0.94,0.34 -0.02,-0.02 -0.05,-0.03 -0.06,-0.04l-0.13 -0.09c-0.6,-0.55 0.38,0.52 -0.12,-0.12 -0.19,-0.25 -0.09,-0.01 -0.17,-0.37 -0.56,-1.72 -0.56,-1.72 -0.14,-3.63 0.15,-0.69 0.25,-1.18 0.24,-1.92 -0.01,-0.88 -0.31,-1.22 -0.34,-1.8 -0.41,-0.39 -0.11,-0.88 -0.26,-1.52 -0.11,-0.49 -0.41,-0.75 -0.58,-1.31l-0.29 -0.79c-0.37,-0.25 -0.42,-0.52 -0.81,-0.71 -1.12,-0.56 -3.26,0.34 -3.58,0.41 -0.76,0.16 -4.72,0.1 -5.41,-0.06l-0.4 0.16c-0.05,0.02 -0.25,0.06 -0.31,0.08l-2.19 0.58c-0.45,0.4 -1.62,0.15 -2.92,2.55 -0.9,1.67 -0.25,3.55 -0.62,5.05 0.48,0.84 -0.32,1.81 0.28,1.92 0.34,-0.35 0.12,-1.28 0.1,-1.79l0.18 -1.92c0.16,0.49 0.31,1.2 0.53,1.74 0.25,0.61 0.6,1.04 0.75,1.61 -1.16,0.65 -1.74,1.29 -2.12,1.46 -0.12,0.28 -0.49,0.57 0.1,1.31 0.27,0.33 0.62,0.5 0.83,0.8 0.57,-0.05 0.33,0.21 0.59,-0.41 0.15,-0.36 0.12,-0.92 1.15,-1.38l0.19 2.21c-1.48,0.12 -3.29,0.05 -4.81,0.07 -1.32,0.02 -3.44,0.22 -4.53,-0.22 0,-0.63 0.21,-0.89 0.39,-1.43 0.79,0.39 1.38,1.48 2.41,1.41 -0.06,-0.29 -0.01,-0.21 -0.12,-0.45 -0.58,-0.07 -1.17,-0.82 -1.42,-1.44 0.2,-0.44 0.56,-1.15 0.8,-1.61 0.67,-0.14 1.85,0.2 1.13,-0.79 -0.37,-0.51 -0.73,-0.78 -1.35,-0.56 -1.75,0.62 -1.3,0.93 -3.63,0.52 -1.47,-0.26 -2.4,0.31 -3.19,1.31 -1.21,1.53 -2.71,0.78 -3.17,0.84 -0.14,0.56 0.16,0.55 0.54,0.79 1.64,0.05 1.71,-0.48 2.7,-0.72 -0.15,1.19 -0.72,0.48 -0.97,1.85l0.1 0.61 -2.61 0.07c0.93,0.16 2.87,0.06 3.49,0.16 0.35,0.06 0.07,-0.03 0.23,0.08 0.76,-0.15 2.81,-0.04 3.82,-0.03 0.4,0 0.96,-0.05 1.28,0.14 0.88,-0.3 16.98,0.03 19.38,0.05 6.44,0.05 12.94,0.06 19.41,0.06 12.94,0 25.82,-0.13 38.76,-0.21l5.18 -0.08c0.59,-0.03 1.32,-0.11 1.85,0.06 0.44,-0.27 1.26,-0.08 2.17,-0.23l-5.57 -0.13c0.11,-0.06 0.71,-0.65 0.82,-0.77 0.39,-0.42 0.23,-0.73 0.37,-1.4 0.13,0.07 0.89,0.64 1.05,0.82 0.49,0.57 0.03,0.78 -0.07,1.34 0.64,0.05 0.78,0.06 0.87,-0.55 0.31,-2.03 -0.65,-1.26 -0.68,-2.96 0.52,0.34 0.64,1.24 1.93,0.96l0.6 -0.21c0.28,-0.66 0.43,-1.12 0.1,-1.86 -0.09,0.37 -0.2,0.12 -0.19,0.68 0.01,0.54 0.23,0.15 0.06,0.69 -0.11,0.34 -0.76,0.68 -1.16,0.27 -0.6,-0.12 -1.22,-1.39 -1.21,-2.19l-0.13 -0.15c-0.02,-0.02 -0.05,-0.05 -0.06,-0.07 -0.02,-0.03 -0.09,-0.12 -0.12,-0.14 -0.31,-0.33 -0.79,-0.53 -0.82,-0.61 -0.01,-0.05 -0.06,-0.04 -0.08,-0.07 -0.32,0.04 -1.87,0.06 -2.17,-0 -0.03,0.02 -0.07,0.04 -0.1,0.05 -0.02,0.01 -0.07,0.03 -0.1,0.04 -0.59,0.19 0.48,-0.07 -0.22,0.06 -0.13,0.02 -0.36,0.03 -0.5,0.03 -2.02,-0.02 -1.45,-0.47 -3.54,-1.48l-0.86 -0.39c-0.03,-0.01 -0.06,-0.03 -0.09,-0.04l-0.6 -0.06c-0.69,-0.09 -0.84,0.28 -1.15,0.73 -0.3,0.43 -0.63,0.63 -0.98,0.97l0.04 0.74 0.61 0.57c0.02,0.02 0.03,0.05 0.04,0.08 0.01,0.01 0.08,0.25 0.09,0.28 0.12,0.32 0.44,0.8 0.62,1 0.52,0.6 0.05,0.14 0.56,0.32 0.75,0.26 0.37,0.32 0.74,0.29 0.01,-0 0.05,-0.01 0.06,-0.01 0.01,-0 0.05,-0.01 0.07,-0.02 0.43,-0.06 0.14,-0.07 0.4,0 -0.27,1.07 -2.12,1.69 -2.32,2.1 -0.26,0.53 0.44,1.02 0.99,0.61 0.56,-0.42 0.22,-0.64 1.19,-1.08 0.14,-0.3 0.73,-0.64 1.12,-0.76 0.19,0.75 0.49,0.79 0.32,1.7l-0.59 0.1c-0.15,0.59 -1.43,0.33 -1.97,0.32 -1.84,-0.04 -5.24,0.05 -6.67,-0.08 0.17,-0.68 0.3,-0.3 0.2,-1.41 -0.05,-0.54 -0.12,-1.1 0.13,-1.49 -0.1,-0.84 0.16,-0.85 0.29,-1.44 0.16,-0.73 -0.2,-0.76 -0.3,-1.34 -0.13,-0.67 0.16,-2.33 0.27,-3.06 0.25,0.81 0.56,1.6 0.67,2.47 0.12,0.98 -0.24,2.28 0.15,3.12 0.48,-0.38 0.45,-0.57 0.41,-1.39 -0.05,-0.96 0.17,-0.66 0.19,-1.37 -0.61,-0.86 -0.65,-0.38 -0.76,-1.88 -0.02,-0.05 -0.55,-2.22 -0.55,-2.23l-0.65 -0.61c-0.01,-0.05 -0.05,-0.05 -0.07,-0.08 -0.22,-0.02 -2.27,-0.8 -2.84,-0.96 -0.46,-0.13 -1.04,-0.21 -1.33,-0.54 -0.19,-0.21 -0.18,-0.4 -0.29,-0.7l-0.26 -0.44c-0.01,-0.03 -0.03,-0.03 -0.05,-0.05 -1.06,-0.44 -1.68,-0.81 -2.08,-1.9 -0.46,-0.2 -1.04,-1.82 -1.34,-2.4 -0.59,-1.16 -0.95,-1.42 -1.79,-2.09l0.12 -0.33c0.09,-0.51 0.11,-0.22 -0.22,-0.28 -0.16,0.3 -0.42,0.29 -0.88,0.24 -0.2,-0.48 -0.06,-0.5 -0.04,-0.99l-0.63 0.05c-0.15,0.36 -0.15,0.67 -0.3,0.96 -0.21,0.41 -0.41,0.34 -0.62,0.63 -0.31,0.42 -0.05,0.46 -0.36,0.91 -0.08,0.11 -0.36,0.36 -0.5,0.56l-0.03 0.61c0.66,0.05 0.69,-0.32 1.56,-0.54 0.59,-0.15 0.82,-0.48 1.49,-0.38l0.24 0.71c0.15,0.29 0.69,1.79 0.78,2.25 0.11,0.53 0.63,2.26 0.63,2.44 0.11,0.11 0.09,0.08 0.2,0.24l0.32 0.57c0.13,0.22 0.42,0.56 0.5,0.75 0.37,0.83 -0.54,0.62 -0.39,1.99 0.31,0.67 0.91,1.28 1.06,1.72 0.14,0.38 0.53,1.9 0.53,2.2 0.33,0.37 0.16,0.78 0.18,1.35 0.02,0.46 0.14,0.77 0.17,1.25 0.04,0.52 -0.1,2.24 -0.34,2.56 -0.43,0.48 0.47,-0.09 -0.11,0.06l-0.32 -0.02c-0.19,-0.05 0.3,0.12 -0.14,-0.05 -1.16,-0.45 -0.48,0 -1,-0.2 -0.02,-0.01 -0.05,-0.03 -0.07,-0.03l-0.88 -0.09c-0.03,0.01 -0.11,0.03 -0.13,0.03l-0.25 0.01c-0.02,0 -0.05,-0 -0.07,-0 -0.39,-0.04 -0.47,-0.14 -0.9,-0.49 0.04,0.65 0.1,0.17 -0.15,0.4 -0.32,-0.25 -0.53,-0.11 -0.97,-0.43 -0.48,-0.34 -0.18,-0.07 -0.62,-0.2 0.1,-0.45 0.15,-0.53 0.52,-0.67 0.11,-1.84 -0.57,-0.25 0.33,-2.84 -0,0.22 -0.11,0.98 0.26,1.11l-0.02 -1.4c0.02,-0.47 0.06,-0.96 -0.05,-1.42 -0.11,-0.44 -0.29,-0.57 -0.34,-0.95l-1.15 -1.1c-0.01,-0.05 -0.05,-0.05 -0.08,-0.07 -2.26,0.22 -2.47,-0.26 -3.1,-0.35 -0.83,-0.12 -2.15,0.14 -3.3,-0.05 -1.35,-0.22 -1.21,-0.59 -2.83,-0.57 -0.56,0.01 -1.24,-0.19 -1.71,0.01 -0.5,0.21 -0.31,0.5 -0.95,0.75l-0.14 -0.26c-0.46,0.05 -0.14,-0.1 -0.43,0.1 -0,0.62 0.19,0.45 -0.02,0.89 -0.45,0.91 -1.05,1.49 -1.89,0.66 -0.16,0.27 -0.02,0.07 -0.12,0.32 -0.1,0.23 -0.01,0.1 -0.11,0.24 -0.55,-0.26 -0.62,-0.33 -0.85,-0.85l-0.34 -0.71 -0.04 0.71c0.01,0.62 0.05,1.1 0.26,1.6 0.37,0.86 0.15,0.56 0.24,1.53 0.14,0.05 0.41,0.22 0.59,0.31 1.11,0.11 1.84,-0.11 2.6,-0.43 0.1,-0.09 -0.09,-0.04 0.22,-0.09 0.47,-0.08 1.33,0.32 1.69,0.5 0.07,0.57 -0.07,1.19 -0.35,1.6 -0.89,-0.02 -0.3,-0.17 -1,-0.3l0.04 0.18c0,0.01 0.02,0.05 0.03,0.06 0.09,0.21 0.04,-0.23 0.12,0.25 -0.5,0.16 -0.24,0 -0.89,0.01l0.09 -0.39 -0.25 -0.54c-0.3,0.53 0.01,0.36 -0.09,1.03l-0.77 -0.4 -0.03 0.78c-0.58,-0.43 0.18,-0.19 -0.57,-0.36l-0.65 0c0.03,-0.25 0.5,-0.31 -0.41,-0.56l-0.33 0.35c-0.15,-0.43 -0.28,-0.5 -0.5,-0.8l0.12 0.65c-0.43,-0.15 -0.27,-0.24 -0.45,-0 -0.12,0.16 -0.01,0.24 -0.21,0.56 0,0 -0.39,-0.15 -0.12,-0.59 -0.22,-0.11 -0.24,-0.11 -0.42,-0.18l-0.14 0.31c-0.22,0.13 0.04,0.07 -0.31,0.05 -0.03,-0 -0.07,-0.01 -0.09,-0.02l-0.4 -0.12c-0.02,-0 -0.05,0.01 -0.07,0.01 -0.03,0 -0.13,0.42 -0.53,-0.29 0,0.02 0.05,0.37 0.05,0.37l-0.19 0.4c-0.33,-1.39 -1.47,-2.03 -1.71,-2.54 -0.26,-0.55 -0.35,-1.02 -0.61,-1.52 -0.3,-0.59 -0.5,-0.75 -0.7,-1.41 -0.13,-0.44 -0.13,-0.82 -0.24,-1.25 -0.12,-0.53 -0.52,-0.75 -0.32,-1 0.14,-1.02 -0.1,-2.24 0.6,-2.72 0.04,-0.6 0.2,-0.82 0.58,-1.15 0.37,-0.32 0.64,-0.63 1.03,-0.7 0.25,-0.39 0.67,-0.62 1.04,-0.78 0.09,-0.46 0.97,-1.36 1.46,-1.59 0.51,-0.91 1.57,-0.37 3.77,-2.54 1.16,-1.15 2.32,-1.84 4.03,-2.17l0.33 -0.24c0.06,-0.03 0.26,-0.11 0.35,-0.15 1.34,-0.61 1,-0.26 2.43,-0.28 0.51,0.29 1.66,0.49 2.33,0.43 0.12,-0.26 0.21,-0.22 0.63,-0.26 0.17,-0.01 0.75,-0.12 0.75,0.11 0.96,0.08 2.37,-0.04 3.35,-0.12 0.28,-0.15 1.38,-0.2 1.77,-0.09 0.29,0.08 0.19,0.08 0.23,0.1 0.01,0.01 0.05,0.07 0.05,0.05 0.01,-0.02 0.04,0.03 0.05,0.05l0.68 0.1 -0.69 -0.54c0.9,-0.06 0.79,0.19 1.68,-0.03 0.49,-0.12 1.15,-0.38 1.57,0.06l0.64 -0.07c0.09,-0.51 -0.07,-0.18 0.14,-0.51 0.61,-0.03 1.91,-0.04 2.2,0.49 0.33,0.01 0.09,0.04 0.18,-0.15l-0.07 -0.29 2.03 -0.1c0.64,0.08 1.25,0.33 1.7,0.56l0.42 0.07 0.9 -0.15c0.83,-0.52 0.83,0.03 1.54,0.23 -0.22,0.22 0.32,0.5 -0.75,0.15l0.01 0.3 1.01 0.27 0.46 0.01c-0.55,-0.3 -0.24,0.13 -0.45,-0.32 0.91,-0.08 0.42,-0.28 1.42,0.02 0.18,-0.41 0.12,-0.39 0.45,-0.43 0.27,0.07 0.86,0.28 1.04,0.3 -0.23,-0.07 -0.36,-0.33 -0.89,-0.46 0.02,-0.02 -0.18,-0.56 0.68,-0.08 0.01,0.01 0.33,0.31 0.39,0.37 0.36,-0.13 0.91,-0.57 1.53,0.3l0.35 -0.09 -0.03 -0.21c-0.18,-0.37 -0.18,0.13 -0.96,-0.59 -0.2,-0.19 -0.12,0.02 -0.22,-0.27 0.52,-0.32 0.78,0.01 1.09,0.34 0.27,-0.1 0.61,-0.21 0.88,-0.32 -0.08,-0.03 -0.3,-0.06 -0.4,-0.09 -1,-0.28 0.68,-0.12 -1.2,-0.62 -0.73,-0.2 -0.13,-0.28 -0.85,-0.04 0.07,-1.15 0.18,-0.08 -0.48,-0.71 -0.02,-0.02 -0.04,-0.05 -0.06,-0.07l-0.39 -0.23c-0.85,-0.22 -0.57,0.22 -0.79,-0.32 -0.27,0.05 -0.25,0.12 -0.61,-0.05l-0.15 -0.12c-0.01,-0.04 -0.05,-0.05 -0.07,-0.07 -0.47,0.26 -0.47,0.45 -1.1,0.11 -0.47,0.29 -1.68,-0.33 -2.41,-0.4 -0.46,-0.04 -1.41,-0.07 -1.76,-0.3 -0.01,-0.01 -0.05,-0.02 -0.06,-0.06 -0.01,-0.04 -0.04,-0.04 -0.06,-0.06 -0.25,0.61 0.14,0.21 -0.38,0.44 -0.28,-0.27 -0.2,-0.24 -0.57,-0.38 0.16,-0.21 0.1,-0.48 0.69,-0.51 0.03,-0 0.16,-0.12 0.7,0.23 0.16,0.1 0.2,0.18 0.26,0.27l0.5 -0.65c-1.34,-0.83 -0.72,-0.11 -1.23,-0.66 -0.43,-0.47 -0.03,-0.55 -1.19,-0.68 0.35,-0.15 0.49,-0.09 0.66,-0.21 -0.43,-0.52 -0.78,-0.02 -0.41,-0.77l-0.54 0.06c-0.1,0.12 -1.18,-0.37 -1.43,-0.5 -0.01,-0.01 -0.04,-0.02 -0.06,-0.03 -0.23,-0.14 -0.27,-0.34 -0.9,-0.57 -0.18,0.35 0.22,0.11 0,0.57 -0.81,-0.22 -0.06,-0.63 -1.06,-0.59 0.14,0.39 0.81,0.14 0.24,0.48 -0.48,0.28 -0.98,-0.19 -0.92,0.31l-0.31 0.26c-0.01,-0.02 -0.05,0.05 -0.07,0.07 -0.6,-0.28 -0.49,-0.11 -0.88,-0.41 0.08,-0.14 0.08,-0.18 0.19,-0.29 0.07,-0.06 0.07,-0.07 0.16,-0.12 0.67,-0.38 0.6,0.12 0.62,0.16 0.33,-0.17 -0.14,0.15 0.08,-0.11 0.3,-0.35 0.12,-0.07 0.57,-0.39 -1.35,-0.03 -0.09,-0.4 -1.27,-0.48 0.01,-0.02 0.14,-0.38 0.14,-0.41 0.06,-0.37 0.01,0.13 -0,-0.15l-0.01 -0.08c0.55,0.16 0.44,-0.02 0.87,0.26 0.28,0.18 0.49,0.35 0.84,0.28 -0.18,-0.11 -0.45,-0.16 -0.65,-0.24 0.25,-0.37 0.63,-0.51 -0.3,-0.64 -0.56,-0.08 -1.8,-0.23 -2.08,-0.46l-0.57 -0.62c-0.01,-0.03 -0.04,-0.03 -0.06,-0.05 -1.05,0.12 -0.67,-0.15 -1.54,-0.28 -0.55,-0.09 0.14,0.23 -1.05,-0.37 0.04,-0.3 0.05,-0.27 0.03,-0.34 -0.01,-0.06 -0.05,-0.13 -0.1,-0.18l-1.67 -0.76c0.02,-0.51 -0.05,-0.27 0.13,-0.58 -0.1,0.03 -0.72,0.37 -1.27,-0.06 -0.42,0.21 -1.14,0.34 -1.31,-0.39 -0.33,0.34 0.02,0.24 -0.54,0.14l-1.09 0.02c-0.1,-0.2 -0.3,0.14 -0.32,0.15 -0.3,0.21 -0.61,0.05 -1.23,-0.08 -0.07,-0.22 -0.23,0.03 0.35,-0.27 -0.85,-0.13 -0.42,-0.39 -0.72,-0.81 -0.37,-0.05 -0.75,-0.1 -1.04,-0.2 -0.52,-0.18 0.22,-0.04 -0.47,-0.17 -1.51,-0.28 -1.15,0.17 -2.24,0.28 -0.97,0.1 -0.94,-0.13 -1.77,-0.34 -1.57,-0.41 -1.02,0.18 -1.1,0.36 -0.27,-0.05 -0.47,-0.15 -0.62,-0.13l-0.13 0.04c-0.03,0.01 -0.14,0.05 -0.17,0.06 -0.61,0.18 -0.43,-0.01 -0.55,-0.11 -0.32,-0.26 -0.25,-0.03 -0.57,-0.34 -0.25,0.58 0.12,0.2 -0.35,0.49 -0.33,-0.15 -0.43,-0.24 -0.63,-0.45 -0.96,0.43 -0.67,-0.08 -1.38,0.08 0.72,0.22 0.34,-0.14 0.5,0.35 -0.26,0.12 -0.71,0.06 -1.11,0.06 -0.63,0.01 -0.58,0.05 -1.08,0.12 -0.8,0.11 -1.43,-0.26 -2.23,-0.26z"/>
   <path class="fil0" d="M67.07 131.03l10.38 0 0 36.46 -10.38 -36.46zm-4.4 -5.48c19.71,-43.61 63.59,-73.96 114.56,-73.96 50.97,0 94.85,30.35 114.56,73.96l-54.64 0 -27.77 0 -32.16 0 -32.16 0 -27.77 0 -54.64 0zm233.14 0c-19.95,-45.69 -65.53,-77.63 -118.58,-77.63 -53.04,0 -98.63,31.94 -118.58,77.63 -0.79,1.81 -1.54,3.63 -2.24,5.48l6.34 0 0 37.49 0 15.62 3.18 10.88 0 -5.54 0 -5.35 0 -44.43 11.52 41.66 0.07 0.27c-0.02,0.03 -0.05,0.06 -0.07,0.09 -4.02,4.6 -7.72,9.49 -11.09,14.62 0.53,1.37 2.17,6.03 3.03,13.05 0.32,-5.43 1.67,-10.45 6.97,-17.22 1.05,-1.34 2.12,-2.65 3.21,-3.95 3.62,-4.28 7.51,-8.34 11.64,-12.13 1.06,-0.97 2.13,-1.92 3.21,-2.86 3.71,-3.19 7.6,-6.17 11.64,-8.93 1.06,-0.72 2.13,-1.43 3.21,-2.12 3.51,-2.24 7.12,-4.31 10.83,-6.2 1.06,-0.54 2.14,-1.07 3.21,-1.58 3.54,-1.68 7.15,-3.2 10.83,-4.55 1.07,-0.39 2.13,-0.77 3.21,-1.13 3.56,-1.2 7.18,-2.23 10.83,-3.1 1.07,-0.25 2.14,-0.5 3.21,-0.72 3.58,-0.76 7.2,-1.36 10.83,-1.8 1.07,-0.13 2.14,-0.25 3.21,-0.35 3.92,-0.37 7.86,-0.58 11.8,-0.58 3.94,0 7.88,0.2 11.8,0.58 1.07,0.1 2.14,0.22 3.21,0.35 3.63,0.44 7.25,1.04 10.83,1.8 1.07,0.23 2.15,0.47 3.21,0.72 3.65,0.87 7.27,1.91 10.83,3.1 1.08,0.36 2.14,0.74 3.21,1.13 3.68,1.35 7.29,2.86 10.83,4.55 1.08,0.51 2.15,1.04 3.21,1.58 3.71,1.89 7.32,3.96 10.83,6.2 1.08,0.69 2.15,1.4 3.21,2.12 4.04,2.76 7.93,5.74 11.64,8.93 1.09,0.93 2.16,1.89 3.21,2.86 4.13,3.79 8.02,7.85 11.64,12.13 1.1,1.3 2.17,2.61 3.21,3.95 0.26,0.33 0.51,0.65 0.76,0.98 0.09,0.01 0.17,0.01 0.26,0.02 4.53,0.27 7.77,2.15 8.71,2.77 -3.29,-4.99 -6.91,-9.74 -10.82,-14.22 -0.03,-0.03 -0.05,-0.06 -0.07,-0.09l0.07 -0.27 11.52 -41.66 0 44.43 0 5.35 0 5.28 3.18 -10.71 0 -15.53 0 -37.49 6.34 0c-0.71,-1.85 -1.46,-3.68 -2.24,-5.48zm-184.9 6.51l-0.67 -1.02 0.58 0 1.37 0 8.53 0 0 0.06 0.02 0 -0 15.71c-0,-0 -0.01,-0.01 -0.01,-0.01l0 0.19 -0.86 -1.31c-1.02,-1.44 -2.7,-4 -4.33,-6.59l-4.61 -7.02zm23.14 9.85l-8.62 -10.88 9.19 0 -0 10.04 0 1.55 -0.57 -0.72zm14.45 -2.7l-9.17 -8.18 8.89 0 0.28 0 0 0.18 0 8zm3.1 -0.1l-0.02 -5.89 7.32 4.74c-2.42,0.31 -4.82,0.69 -7.22,1.13 -0.03,0.01 -0.05,0.01 -0.08,0.01zm10.79 -2.33l-8.86 -5.74 8.86 0 0 5.74zm3.18 0.51l0 -4.46 6.37 4.13c-2.14,0.06 -4.26,0.16 -6.37,0.32zm16.96 -0.32l6.37 -4.13 0 4.46c-2.11,-0.16 -4.24,-0.27 -6.37,-0.32zm-14.08 -5.8l-0.2 -0.13 7.44 0 0 0.04 0.11 0 -0 4.72 -7.34 -4.64zm10.23 4.64l-0 -4.72 0.11 0 0 -0.04 7.44 0 -0.2 0.13 -7.34 4.64zm-40.9 6.7l0.01 -9.1 2.25 2.01c0.48,0.42 1.01,0.89 1.54,1.37l4.04 3.6c-2.63,0.62 -5.24,1.33 -7.83,2.12 -0,0 -0.01,0 -0.01,0zm65.01 -3.4c-2.4,-0.45 -4.8,-0.82 -7.22,-1.13l7.32 -4.74 -0.02 5.89c-0.03,-0 -0.05,-0.01 -0.08,-0.01zm-10.71 -2.32l0 -5.74 8.86 0 -8.86 5.74zm-95.95 -5.74l10.7 0 0 21.99 -10.7 -21.99zm120.56 11.46c-0,-0 -0.01,-0 -0.01,-0 -2.59,-0.79 -5.2,-1.49 -7.83,-2.12l4.04 -3.6c0.53,-0.48 1.05,-0.95 1.54,-1.37l2.25 -2.01 0.01 9.1zm-10.72 -3.28l0 -8 0 -0.18 0.28 0 8.89 0 -9.17 8.18zm-124.78 -8.18l10.95 0 0 29.83 -10.95 -29.83zm42.55 10l0.03 -6.9c0.04,0.02 0.09,0.05 0.14,0.09l0 -0.35 1.34 1.69c1.91,2.13 5.05,6.08 6.68,8.14 0.17,0.21 0.32,0.4 0.45,0.57 -0.06,0.02 -0.12,0.04 -0.18,0.06 -2.81,1 -5.58,2.09 -8.29,3.27 -0.07,0.03 -0.13,0.06 -0.2,0.09l0.03 -6.66zm120.72 13.65c-2.92,-1.71 -5.9,-3.31 -8.96,-4.8 -0.06,-0.03 -0.12,-0.06 -0.17,-0.08l0.88 -1.37c0.73,-1.33 1.73,-2.79 2.52,-3.95l1.64 -2.57c0.74,-1.22 1.88,-3.05 2.86,-4.49l1.24 -1.95 0 0.27 0 18.95zm-13.89 -7.07c-2.72,-1.18 -5.48,-2.28 -8.29,-3.27 -0.06,-0.02 -0.12,-0.04 -0.18,-0.06 1.43,-1.81 5.02,-6.37 7.13,-8.72l1.34 -1.69 0 0.35c0.05,-0.04 0.1,-0.07 0.14,-0.09l0.06 13.57c-0.07,-0.03 -0.13,-0.06 -0.2,-0.09zm-10.72 -4.98l-0 -11.59 9.19 0 -3.31 4.18c-0.08,0.18 -0.16,0.37 -0.24,0.55 -0.04,-0.04 -0.07,-0.07 -0.11,-0.11l-5.53 6.97zm13.88 4.17l-0 -15.71 0.02 0 0 -0.06 9.91 0 0.58 0 -5.29 8.04c-1.63,2.59 -3.31,5.14 -4.33,6.59l-0.86 1.31 0 -0.19c-0,0 -0.01,0.01 -0.01,0.01zm15.63 10.91c-0,0 -0,-0 -0,-0l9.8 -21.01 0 0.26 0 27.76c-3.15,-2.48 -6.42,-4.82 -9.79,-7.01zm-1.72 -4.69l0 -21.99 10.7 0 -10.7 21.99zm14.7 7.84l0 -29.83 10.95 0 -10.95 29.83zm14.7 -29.83l10.38 0 -10.38 36.46 0 -36.46zm-181.71 33.69l0 -27.76 0 -0.26 9.8 21.01c-0,0 -0,0 -0,0 -3.37,2.19 -6.64,4.53 -9.79,7.01zm14.7 -10.04l0 -16.59 0 -2.37 0 -0.27 1.2 1.88 0.04 0.06c0.99,1.45 2.12,3.28 2.86,4.49l1.64 2.57c0.79,1.16 1.78,2.62 2.52,3.95l0.88 1.37c-0.06,0.03 -0.12,0.06 -0.17,0.08 -3.05,1.49 -6.04,3.09 -8.96,4.8zm153.08 13.27l10.75 -30.18 0 40.44c-3.39,-3.62 -6.98,-7.04 -10.75,-10.26zm-182.47 10.26l0 -40.44 10.75 30.18c-3.77,3.21 -7.36,6.64 -10.75,10.26z"/>
   <path class="fil2" d="M26.71 226.87l-0.13 0.27c-0.33,-0.06 -0.66,-0.11 -0.99,-0.13 -0.54,-0.56 -0.97,-1.14 -1.29,-1.71 -0.32,-0.57 -0.6,-1.26 -0.83,-2.06 -0.44,-1.5 -0.54,-2.85 -0.31,-4.04 0.23,-1.19 0.74,-2.2 1.53,-3.04 0.79,-0.84 1.81,-1.43 3.04,-1.79 1.78,-0.51 3.42,-0.31 4.92,0.63 1.5,0.93 2.57,2.51 3.21,4.73 0.21,0.74 0.36,1.49 0.44,2.25 0.08,0.76 0.08,1.54 0.02,2.33l-0.11 0.1c-0.34,-0.01 -0.66,0 -0.96,0.05 -0.52,0.07 -1.15,0.19 -1.9,0.36l-0.21 -0.74c0.9,-0.3 1.38,-0.47 1.46,-0.53 0.08,-0.06 0.18,-0.26 0.32,-0.6 0.14,-0.34 0.2,-0.77 0.19,-1.29 -0,-0.52 -0.09,-1.06 -0.26,-1.64 -0.4,-1.37 -1.14,-2.34 -2.22,-2.91 -1.08,-0.57 -2.38,-0.63 -3.89,-0.19 -1.64,0.47 -2.82,1.35 -3.55,2.62 -0.68,1.17 -0.79,2.54 -0.33,4.12 0.18,0.61 0.4,1.16 0.68,1.66 0.28,0.49 0.67,1.02 1.17,1.57zm-1.2 3.16l0.69 -0.26c0.31,0.73 0.52,1.13 0.62,1.2 0.1,0.08 0.26,0.09 0.47,0.05 0.33,-0.07 1.11,-0.34 2.35,-0.8l4.59 -1.73c1.55,-0.59 2.38,-0.93 2.5,-1.03 0.07,-0.06 0.12,-0.13 0.14,-0.21 0.03,-0.14 -0.07,-0.59 -0.31,-1.36l0.69 -0.26c0.38,1.13 0.7,2.02 0.94,2.67 0.39,1.03 0.76,1.97 1.11,2.81l-0.69 0.26c-0.3,-0.67 -0.5,-1.06 -0.6,-1.16 -0.06,-0.06 -0.13,-0.09 -0.21,-0.1 -0.13,-0.01 -0.46,0.07 -1.01,0.25 -0.81,0.28 -1.64,0.57 -2.46,0.88l-0.7 0.26c0.19,0.59 0.53,1.51 1,2.77 0.42,1.12 0.74,1.94 0.97,2.45 1.82,-0.67 3.01,-1.14 3.6,-1.4 0.31,-0.14 0.48,-0.27 0.52,-0.39 0.06,-0.17 -0.04,-0.63 -0.28,-1.38l0.69 -0.26c0.48,1.4 0.82,2.34 1,2.83 0.31,0.84 0.66,1.72 1.05,2.64l-0.68 0.26c-0.31,-0.7 -0.52,-1.1 -0.63,-1.19 -0.06,-0.05 -0.13,-0.09 -0.21,-0.1 -0.13,-0 -0.61,0.13 -1.41,0.41 -1.23,0.42 -2.23,0.77 -2.98,1.05l-3.79 1.48c-0.86,0.33 -1.34,0.54 -1.46,0.63 -0.11,0.09 -0.18,0.19 -0.2,0.29 -0.02,0.11 0.08,0.54 0.31,1.3l-0.68 0.26 -0.32 -0.93c-0.24,-0.7 -0.44,-1.25 -0.58,-1.64 -0.31,-0.82 -0.69,-1.78 -1.14,-2.89l0.69 -0.26c0.31,0.73 0.53,1.13 0.65,1.19 0.12,0.07 0.38,0.05 0.76,-0.07 0.65,-0.2 2.02,-0.68 4.11,-1.45 -0.23,-0.62 -0.49,-1.32 -0.78,-2.08 -0.45,-1.2 -0.85,-2.24 -1.21,-3.14l-0.55 0.21c-1.47,0.55 -2.56,0.98 -3.28,1.29 -0.48,0.21 -0.74,0.39 -0.79,0.52 -0.04,0.14 0.05,0.58 0.28,1.34l-0.69 0.26 -0.35 -1c-0.21,-0.63 -0.41,-1.19 -0.6,-1.68l-1.11 -2.8zm6.37 15.14c0.29,0.47 0.51,0.75 0.65,0.82 0.09,0.05 0.36,0.06 0.8,0.04 0.85,-0.05 2.02,-0.16 3.5,-0.33l8.31 -0.95 0.63 1.15 -6.48 8.15c-0.81,1.04 -1.23,1.64 -1.28,1.81 -0.04,0.16 0.07,0.53 0.34,1.1l-0.71 0.39c-0.44,-0.87 -0.86,-1.68 -1.27,-2.44 -0.5,-0.91 -0.98,-1.76 -1.46,-2.55l0.71 -0.39c0.37,0.61 0.6,0.95 0.69,1.02 0.1,0.07 0.2,0.08 0.31,0.02 0.1,-0.05 0.37,-0.34 0.82,-0.88l1.03 -1.24c-0.34,-0.65 -0.73,-1.37 -1.17,-2.17 -0.38,-0.69 -0.73,-1.32 -1.05,-1.88l-1.07 0.14c-0.29,0.04 -0.71,0.12 -1.26,0.25 -0.12,0.03 -0.23,0.06 -0.32,0.11 -0.12,0.06 -0.17,0.16 -0.16,0.29 0.01,0.13 0.16,0.52 0.45,1.18l-0.71 0.39c-0.25,-0.53 -0.58,-1.17 -1,-1.94 -0.4,-0.72 -0.73,-1.29 -0.99,-1.7l0.71 -0.39zm10.4 0.97l-4.94 0.56c0.24,0.49 0.52,1.03 0.84,1.61 0.33,0.6 0.66,1.18 0.98,1.72l3.12 -3.88zm-3.93 13.21l0.61 -0.4 0.33 0.42c0.26,0.35 0.47,0.53 0.64,0.55 0.16,0.02 0.56,-0.16 1.18,-0.55 1.24,-0.78 2.58,-1.65 4.01,-2.6 0.76,-0.5 1.62,-1.08 2.59,-1.73 0.58,-0.39 0.92,-0.66 1.01,-0.81 0.04,-0.07 0.06,-0.16 0.05,-0.27 -0.01,-0.11 -0.21,-0.49 -0.57,-1.14l0.61 -0.4c0.39,0.61 0.77,1.2 1.15,1.77 0.44,0.67 0.88,1.31 1.3,1.92 -0.45,0.68 -0.89,1.38 -1.32,2.07 -0.3,0.49 -1.58,2.64 -3.82,6.42 4.52,-0.56 7.8,-1.03 9.85,-1.41 0.37,0.62 0.73,1.19 1.08,1.73 0.42,0.63 0.84,1.23 1.26,1.79l-0.61 0.41c-0.48,-0.63 -0.78,-0.96 -0.91,-1 -0.13,-0.03 -0.4,0.06 -0.81,0.3 -0.65,0.38 -1.84,1.16 -3.59,2.32 -0.88,0.59 -1.81,1.21 -2.78,1.88 -0.97,0.67 -1.51,1.07 -1.61,1.21 -0.05,0.09 -0.08,0.17 -0.08,0.27 0,0.09 0.19,0.48 0.56,1.15l-0.61 0.41c-0.5,-0.82 -0.96,-1.55 -1.38,-2.18 -0.42,-0.63 -1.01,-1.49 -1.76,-2.56l0.61 -0.4 0.3 0.42c0.24,0.33 0.43,0.52 0.57,0.55 0.14,0.03 0.39,-0.06 0.76,-0.27 0.37,-0.21 1.2,-0.75 2.5,-1.61l4.49 -2.98c-2.05,0.25 -4.71,0.61 -7.99,1.07 -1.35,0.19 -2.44,0.37 -3.27,0.52l-0.32 -0.48c0.61,-0.94 1.36,-2.16 2.25,-3.65l3.6 -6.09 -1.01 0.67c-2.8,1.86 -4.72,3.15 -5.76,3.87 -0.42,0.3 -0.65,0.53 -0.68,0.7 -0.04,0.17 0.15,0.58 0.54,1.24l-0.61 0.4c-0.3,-0.52 -0.62,-1.04 -0.96,-1.54 -0.5,-0.75 -0.96,-1.41 -1.38,-1.98zm11.46 16.87l0.33 -0.26c0.37,0.14 0.67,0.22 0.92,0.25 0.68,-0.46 2.12,-1.58 4.31,-3.35 1.59,-1.28 2.69,-2.21 3.31,-2.79 0.34,-0.31 0.51,-0.53 0.51,-0.65 0.01,-0.18 -0.21,-0.58 -0.67,-1.2l0.57 -0.46 1.05 1.35 0.8 1.03c0.25,0.31 0.63,0.76 1.13,1.36 0.49,0.57 0.84,0.99 1.04,1.25 0.83,1.02 1.25,1.9 1.27,2.62 0.01,0.72 -0.27,1.32 -0.87,1.8 -0.61,0.49 -1.29,0.68 -2.02,0.55 -0.74,-0.13 -1.52,-0.52 -2.33,-1.19l-0.06 0.05c0.58,0.89 0.92,1.57 1.02,2.04 0.1,0.47 0.06,0.94 -0.13,1.43 -0.19,0.49 -0.51,0.91 -0.96,1.28 -0.55,0.45 -1.21,0.7 -1.97,0.76 -0.76,0.06 -1.5,-0.08 -2.2,-0.42 -0.71,-0.34 -1.47,-1.01 -2.28,-2.02 -0.16,-0.2 -0.39,-0.5 -0.7,-0.91 -0.28,-0.38 -0.52,-0.69 -0.71,-0.93 -0.21,-0.26 -0.67,-0.79 -1.36,-1.6zm7.9 -1.98l0.29 0.36c0.63,0.78 1.22,1.22 1.76,1.31 0.54,0.09 1.11,-0.11 1.72,-0.6 0.53,-0.43 0.82,-0.87 0.86,-1.33 0.04,-0.46 -0.17,-0.99 -0.65,-1.58 -0.18,-0.22 -0.41,-0.47 -0.7,-0.76 -1.45,1.13 -2.33,1.82 -2.65,2.08l-0.62 0.51zm-4.96 4.02c0.15,0.32 0.32,0.6 0.51,0.84 0.53,0.66 1.13,1.01 1.79,1.06 0.66,0.05 1.36,-0.23 2.1,-0.82 0.48,-0.39 0.8,-0.78 0.98,-1.19 0.17,-0.41 0.22,-0.81 0.14,-1.21 -0.08,-0.4 -0.33,-0.86 -0.75,-1.38l-0.57 -0.7 -0.18 0.15 -1.82 1.45 -1.82 1.49 -0.39 0.32zm5.47 8.32l0.33 -0.31c0.32,0.13 0.64,0.22 0.96,0.28 0.76,-0.56 2.22,-1.87 4.39,-3.92 1.48,-1.4 2.44,-2.35 2.89,-2.84 0.25,-0.25 0.37,-0.45 0.36,-0.59 -0.01,-0.14 -0.25,-0.51 -0.74,-1.13l0.53 -0.5c0.94,1.04 1.69,1.86 2.25,2.45l3.43 3.53c0.36,0.38 0.66,0.73 0.92,1.06l-0.03 0.12c-0.55,0.36 -1.24,0.88 -2.06,1.58l-0.49 -0.52c0.61,-0.62 0.92,-0.96 0.94,-1.03 0.02,-0.07 -0.04,-0.21 -0.16,-0.41 -0.27,-0.43 -0.75,-1.02 -1.45,-1.76 -0.34,-0.36 -0.76,-0.77 -1.25,-1.23 -1.39,1.22 -2.49,2.21 -3.3,2.96 0.41,0.49 0.81,0.93 1.19,1.34 0.57,0.6 0.93,0.94 1.09,1.03 0.1,0.05 0.21,0.04 0.33,-0.02 0.1,-0.05 0.4,-0.28 0.9,-0.68l0.53 0.56c-0.75,0.67 -1.24,1.12 -1.46,1.33l-1.43 1.42 -0.53 -0.56c0.54,-0.57 0.83,-0.92 0.87,-1.05 0.03,-0.08 0.01,-0.17 -0.05,-0.28 -0.16,-0.26 -0.6,-0.77 -1.32,-1.53 -0.23,-0.24 -0.5,-0.5 -0.83,-0.8 -0.24,0.21 -0.47,0.43 -0.71,0.65 -1.24,1.17 -2.17,2.1 -2.79,2.78l1.21 1.3c0.69,0.73 1.37,1.36 2.02,1.89 0.5,-0.27 1.05,-0.6 1.64,-0.98l0.52 0.54c-0.86,0.63 -1.65,1.28 -2.38,1.93 -0.4,-0.37 -0.77,-0.73 -1.12,-1.1 -0.22,-0.24 -0.66,-0.71 -1.31,-1.42 -0.61,-0.66 -1.17,-1.27 -1.69,-1.82 -0.68,-0.72 -1.42,-1.47 -2.21,-2.24zm8.25 8.52l0.49 -0.55c0.56,0.41 0.89,0.63 1,0.66 0.07,0.02 0.15,0.01 0.22,-0.03 0.14,-0.07 0.49,-0.4 1.06,-1 0.87,-0.94 1.55,-1.68 2.04,-2.23 0.66,-0.74 1.49,-1.69 2.48,-2.85 0.74,-0.87 1.16,-1.43 1.27,-1.68 0.03,-0.07 0.04,-0.15 0.01,-0.23 -0.03,-0.11 -0.27,-0.41 -0.73,-0.91l0.49 -0.55c0.9,0.84 1.48,1.39 1.75,1.62l3.39 2.93c0.73,0.64 1.19,1.18 1.4,1.62 0.21,0.43 0.27,0.89 0.19,1.37 -0.08,0.48 -0.31,0.93 -0.68,1.35 -0.47,0.53 -1.04,0.86 -1.71,0.99 -0.67,0.13 -1.52,0.01 -2.56,-0.36l-0.49 3.41 -0.36 2.63c-0.03,0.46 -0.02,0.76 0.04,0.91 0.05,0.15 0.19,0.33 0.42,0.54l-0.45 0.51 -0.4 -0.34c-1.14,-1 -1.87,-1.63 -2.21,-1.9 0.16,-0.96 0.38,-2.38 0.65,-4.24l0.48 -3.31c0.11,-0.04 0.21,-0.09 0.31,-0.15 0.16,0.18 0.29,0.3 0.37,0.38 0.41,0.37 0.97,0.56 1.67,0.59 0.7,0.02 1.32,-0.28 1.87,-0.9 0.48,-0.54 0.69,-1.1 0.64,-1.68 -0.05,-0.58 -0.4,-1.16 -1.03,-1.72 -0.2,-0.18 -0.49,-0.41 -0.86,-0.69l-1.8 1.94 -2.28 2.46c-0.5,0.57 -1.12,1.31 -1.87,2.24 -0.55,0.7 -0.85,1.1 -0.89,1.21 -0.03,0.08 -0.02,0.17 0.02,0.27 0.04,0.14 0.31,0.44 0.79,0.92l-0.49 0.55c-0.77,-0.74 -1.47,-1.38 -2.09,-1.93 -0.66,-0.58 -1.38,-1.2 -2.15,-1.84zm19.59 17.02c-1.8,-1.26 -2.85,-2.69 -3.16,-4.29 -0.31,-1.59 0.11,-3.2 1.25,-4.82 0.79,-1.13 1.7,-1.93 2.72,-2.39 1.02,-0.47 2.09,-0.62 3.21,-0.47 1.12,0.15 2.32,0.68 3.62,1.59 1.24,0.87 2.11,1.79 2.62,2.75 0.5,0.96 0.71,1.95 0.63,2.98 -0.08,1.02 -0.49,2.06 -1.24,3.11 -0.8,1.14 -1.73,1.96 -2.78,2.46 -1.05,0.5 -2.16,0.68 -3.33,0.54 -1.17,-0.14 -2.35,-0.63 -3.54,-1.47zm0.84 -0.6c0.98,0.69 2.02,0.88 3.11,0.57 1.1,-0.31 2.16,-1.21 3.2,-2.68 1.09,-1.55 1.59,-2.97 1.5,-4.27 -0.08,-1.05 -0.68,-1.97 -1.81,-2.76 -1.06,-0.74 -2.12,-0.97 -3.19,-0.68 -1.07,0.29 -2.11,1.16 -3.13,2.6 -0.73,1.04 -1.19,2.04 -1.38,2.98 -0.19,0.95 -0.15,1.75 0.11,2.42 0.27,0.66 0.79,1.28 1.58,1.83zm7.45 5.65l0.37 -0.63c0.65,0.37 1.06,0.54 1.23,0.51 0.12,-0.01 0.27,-0.17 0.46,-0.47 0.64,-0.97 1.35,-2.12 2.11,-3.44 0.56,-0.98 1.16,-2.03 1.78,-3.17 0.62,-1.14 0.95,-1.81 0.99,-2.01 0.01,-0.1 0,-0.18 -0.04,-0.24 -0.05,-0.11 -0.39,-0.36 -1,-0.76l0.37 -0.63c0.88,0.55 1.65,1.01 2.3,1.39 0.94,0.55 1.94,1.11 2.99,1.69 0.69,0.38 1.27,0.71 1.74,0.98 0.34,0.19 0.65,0.39 0.94,0.59l-0.02 0.2c-0.48,0.58 -0.99,1.3 -1.52,2.16l-0.67 -0.38 0.42 -0.86c0.14,-0.27 0.2,-0.45 0.18,-0.54 -0.02,-0.09 -0.17,-0.26 -0.46,-0.51 -0.29,-0.25 -0.74,-0.55 -1.34,-0.9 -0.44,-0.26 -0.92,-0.51 -1.44,-0.77 -0.56,0.84 -0.95,1.44 -1.16,1.81l-0.95 1.68 -0.21 0.35c0.3,0.19 0.67,0.41 1.11,0.66 0.79,0.45 1.27,0.71 1.45,0.76 0.09,0.03 0.18,0.02 0.25,-0.02 0.12,-0.08 0.35,-0.38 0.7,-0.9l0.67 0.38c-0.28,0.45 -0.55,0.9 -0.81,1.35 -0.25,0.43 -0.63,1.11 -1.15,2.04l-0.66 -0.38c0.34,-0.69 0.52,-1.1 0.53,-1.25 0,-0.08 -0.03,-0.16 -0.12,-0.24 -0.21,-0.21 -0.69,-0.53 -1.45,-0.97l-1.02 -0.57 -1.69 3c-0.4,0.73 -0.6,1.17 -0.61,1.31 -0.01,0.1 0.02,0.18 0.07,0.26 0.07,0.11 0.48,0.41 1.21,0.89l-0.37 0.63c-0.81,-0.51 -1.57,-0.97 -2.29,-1.39 -0.64,-0.37 -1.6,-0.9 -2.89,-1.6zm25.52 11.04l0.11 0.28c-0.27,0.2 -0.52,0.42 -0.76,0.65 -0.78,0.02 -1.49,-0.04 -2.13,-0.18 -0.64,-0.14 -1.34,-0.4 -2.09,-0.76 -1.41,-0.68 -2.48,-1.5 -3.21,-2.46 -0.74,-0.96 -1.15,-2.02 -1.24,-3.17 -0.09,-1.15 0.14,-2.3 0.7,-3.46 0.8,-1.67 2.05,-2.75 3.75,-3.25 1.7,-0.49 3.59,-0.24 5.67,0.77 0.69,0.33 1.35,0.72 1.97,1.17 0.62,0.45 1.2,0.97 1.75,1.54l-0 0.15c-0.24,0.24 -0.44,0.49 -0.6,0.74 -0.3,0.43 -0.63,0.99 -1,1.66l-0.69 -0.33c0.38,-0.86 0.57,-1.34 0.58,-1.44 0.01,-0.1 -0.07,-0.31 -0.24,-0.64 -0.17,-0.33 -0.44,-0.66 -0.83,-1.01 -0.39,-0.34 -0.85,-0.64 -1.39,-0.9 -1.29,-0.62 -2.5,-0.72 -3.65,-0.29 -1.14,0.43 -2.06,1.35 -2.74,2.77 -0.74,1.54 -0.88,3 -0.42,4.39 0.42,1.29 1.36,2.29 2.84,3 0.57,0.28 1.13,0.47 1.69,0.6 0.55,0.12 1.2,0.18 1.95,0.18zm8.28 4.77c-2.08,-0.7 -3.5,-1.77 -4.25,-3.21 -0.75,-1.44 -0.8,-3.1 -0.17,-4.97 0.44,-1.31 1.08,-2.33 1.93,-3.07 0.85,-0.74 1.83,-1.19 2.94,-1.36 1.12,-0.17 2.42,-0.01 3.92,0.5 1.44,0.48 2.54,1.12 3.29,1.89 0.75,0.78 1.24,1.67 1.45,2.67 0.21,1 0.11,2.12 -0.3,3.34 -0.44,1.32 -1.1,2.37 -1.96,3.15 -0.87,0.78 -1.88,1.27 -3.04,1.46 -1.16,0.2 -2.43,0.06 -3.81,-0.4zm0.63 -0.81c1.14,0.38 2.19,0.27 3.15,-0.34 0.96,-0.61 1.73,-1.77 2.3,-3.48 0.6,-1.79 0.68,-3.3 0.22,-4.52 -0.37,-0.98 -1.21,-1.7 -2.52,-2.14 -1.23,-0.41 -2.31,-0.33 -3.25,0.26 -0.94,0.58 -1.7,1.71 -2.26,3.39 -0.41,1.2 -0.56,2.29 -0.48,3.25 0.09,0.96 0.35,1.72 0.8,2.29 0.44,0.56 1.13,1 2.04,1.3zm8.6 3.51l0.15 -0.72 0.53 0.07c0.43,0.06 0.71,0.04 0.84,-0.06 0.13,-0.1 0.28,-0.51 0.45,-1.23 0.33,-1.43 0.67,-2.99 1.01,-4.67 0.18,-0.89 0.39,-1.91 0.62,-3.05 0.13,-0.69 0.18,-1.12 0.14,-1.28 -0.02,-0.08 -0.07,-0.16 -0.16,-0.22 -0.08,-0.07 -0.49,-0.2 -1.21,-0.4l0.15 -0.72c0.7,0.16 1.39,0.3 2.07,0.44 0.79,0.16 1.54,0.31 2.27,0.45 0.16,0.8 0.34,1.61 0.52,2.4 0.13,0.57 0.74,2.98 1.81,7.25 2.81,-3.58 4.8,-6.23 5.99,-7.95 0.69,0.18 1.35,0.33 1.99,0.46 0.74,0.15 1.46,0.28 2.16,0.39l-0.15 0.72c-0.78,-0.11 -1.23,-0.13 -1.35,-0.07 -0.12,0.07 -0.24,0.33 -0.36,0.78 -0.19,0.73 -0.49,2.12 -0.91,4.18 -0.21,1.04 -0.43,2.14 -0.65,3.29 -0.22,1.16 -0.31,1.82 -0.29,1.99 0.02,0.1 0.07,0.18 0.13,0.24 0.07,0.06 0.47,0.21 1.2,0.42l-0.15 0.72c-0.94,-0.23 -1.78,-0.42 -2.52,-0.57 -0.75,-0.15 -1.76,-0.34 -3.05,-0.57l0.15 -0.72 0.51 0.09c0.41,0.06 0.67,0.06 0.79,-0.02 0.12,-0.08 0.24,-0.32 0.36,-0.73 0.11,-0.41 0.33,-1.38 0.64,-2.91l1.08 -5.28c-1.27,1.62 -2.91,3.75 -4.91,6.39 -0.82,1.09 -1.47,1.98 -1.95,2.67l-0.57 -0.12c-0.23,-1.1 -0.56,-2.49 -0.97,-4.17l-1.74 -6.86 -0.24 1.19c-0.67,3.29 -1.13,5.56 -1.36,6.81 -0.09,0.51 -0.08,0.83 0.01,0.98 0.09,0.14 0.51,0.31 1.26,0.5l-0.15 0.72c-0.58,-0.16 -1.17,-0.3 -1.77,-0.42 -0.88,-0.18 -1.67,-0.32 -2.37,-0.43zm19.21 4.08l0.04 -0.73 0.54 -0.01c0.43,-0 0.71,-0.06 0.82,-0.19 0.12,-0.12 0.2,-0.54 0.26,-1.28 0.11,-1.47 0.22,-3.06 0.31,-4.77 0.05,-0.91 0.1,-1.95 0.16,-3.11 0.03,-0.7 0.02,-1.13 -0.05,-1.29 -0.03,-0.08 -0.09,-0.15 -0.19,-0.2 -0.09,-0.05 -0.51,-0.12 -1.26,-0.22l0.04 -0.73c0.72,0.05 1.42,0.09 2.11,0.13 0.8,0.04 1.57,0.08 2.32,0.1 0.28,0.77 0.57,1.54 0.88,2.3 0.22,0.54 1.17,2.84 2.87,6.9 2.25,-3.96 3.82,-6.87 4.74,-8.75 0.71,0.07 1.39,0.13 2.03,0.16 0.76,0.04 1.48,0.06 2.19,0.06l-0.04 0.73c-0.79,0.01 -1.24,0.05 -1.35,0.14 -0.11,0.09 -0.19,0.36 -0.24,0.82 -0.08,0.75 -0.17,2.17 -0.28,4.27 -0.06,1.06 -0.11,2.18 -0.15,3.35 -0.04,1.18 -0.04,1.85 0.01,2.01 0.04,0.09 0.09,0.17 0.17,0.22 0.08,0.05 0.49,0.13 1.25,0.24l-0.04 0.73c-0.96,-0.09 -1.82,-0.15 -2.58,-0.19 -0.76,-0.04 -1.79,-0.08 -3.1,-0.11l0.04 -0.73 0.52 0.01c0.41,0 0.67,-0.04 0.78,-0.13 0.11,-0.09 0.19,-0.35 0.24,-0.77 0.05,-0.42 0.12,-1.41 0.2,-2.97l0.29 -5.39c-1.02,1.79 -2.32,4.15 -3.91,7.05 -0.65,1.2 -1.16,2.17 -1.53,2.93l-0.58 -0.03c-0.39,-1.05 -0.92,-2.38 -1.58,-3.98l-2.74 -6.52 -0.07 1.21c-0.18,3.36 -0.29,5.67 -0.33,6.93 -0.01,0.52 0.04,0.84 0.15,0.96 0.11,0.13 0.55,0.23 1.32,0.31l-0.04 0.73c-0.6,-0.07 -1.21,-0.12 -1.81,-0.15 -0.9,-0.05 -1.7,-0.07 -2.41,-0.07zm20.22 1.21l-0.02 -0.46c0.31,-0.16 0.59,-0.34 0.84,-0.54 0.08,-0.94 0.05,-2.9 -0.07,-5.88 -0.09,-2.03 -0.17,-3.38 -0.24,-4.05 -0.03,-0.35 -0.1,-0.57 -0.21,-0.66 -0.11,-0.09 -0.55,-0.15 -1.33,-0.18l-0.03 -0.73c1.41,-0.02 2.52,-0.05 3.33,-0.09l4.91 -0.26c0.52,-0.02 0.99,-0.02 1.4,0l0.07 0.1c-0.1,0.65 -0.15,1.51 -0.16,2.59l-0.71 0.03c-0.07,-0.86 -0.12,-1.33 -0.16,-1.38 -0.04,-0.06 -0.18,-0.11 -0.41,-0.15 -0.5,-0.09 -1.26,-0.11 -2.28,-0.06 -0.5,0.02 -1.08,0.06 -1.75,0.13 0.01,1.86 0.03,3.33 0.06,4.43 0.64,0.01 1.24,0 1.79,-0.02 0.83,-0.04 1.32,-0.08 1.49,-0.14 0.1,-0.04 0.17,-0.13 0.2,-0.27 0.03,-0.11 0.06,-0.48 0.08,-1.13l0.77 -0.03c0.01,1.01 0.03,1.67 0.04,1.97l0.13 2.01 -0.77 0.03c-0.08,-0.78 -0.15,-1.23 -0.22,-1.35 -0.04,-0.07 -0.12,-0.12 -0.25,-0.15 -0.3,-0.05 -0.97,-0.06 -2.01,-0.01 -0.33,0.01 -0.71,0.05 -1.15,0.1 0,0.32 0.01,0.64 0.02,0.97 0.07,1.7 0.16,3.01 0.26,3.93l1.77 -0.06c1.01,-0.04 1.93,-0.14 2.76,-0.28 0.12,-0.55 0.24,-1.18 0.34,-1.88l0.75 -0.03c-0.09,1.07 -0.12,2.09 -0.11,3.06 -0.54,0.06 -1.06,0.1 -1.56,0.12 -0.33,0.01 -0.97,0.03 -1.94,0.06 -0.9,0.02 -1.73,0.05 -2.48,0.08 -0.99,0.04 -2.04,0.11 -3.14,0.19zm11.85 -0.52l-0.04 -0.73c0.69,-0.1 1.08,-0.17 1.18,-0.23 0.06,-0.04 0.11,-0.1 0.13,-0.18 0.05,-0.15 0.07,-0.63 0.05,-1.46 -0.04,-1.28 -0.07,-2.28 -0.11,-3.02 -0.05,-0.99 -0.13,-2.25 -0.24,-3.78 -0.08,-1.14 -0.18,-1.83 -0.28,-2.09 -0.03,-0.08 -0.08,-0.13 -0.15,-0.17 -0.1,-0.06 -0.48,-0.1 -1.16,-0.14l-0.04 -0.73c1.23,-0.03 2.03,-0.05 2.38,-0.07l4.47 -0.29c0.97,-0.05 1.68,0.01 2.13,0.17 0.45,0.16 0.82,0.45 1.1,0.84 0.28,0.4 0.43,0.88 0.46,1.44 0.04,0.71 -0.14,1.35 -0.52,1.9 -0.38,0.56 -1.08,1.07 -2.08,1.54l2.04 2.78 1.59 2.12c0.3,0.34 0.52,0.55 0.66,0.62 0.14,0.07 0.37,0.1 0.68,0.09l0.04 0.68 -0.52 0.04c-1.51,0.09 -2.48,0.15 -2.91,0.2 -0.56,-0.8 -1.4,-1.96 -2.51,-3.48l-1.99 -2.7c0.05,-0.1 0.09,-0.21 0.12,-0.32 0.24,0.01 0.42,0.02 0.53,0.01 0.55,-0.03 1.09,-0.28 1.6,-0.76 0.52,-0.48 0.75,-1.13 0.71,-1.95 -0.04,-0.72 -0.28,-1.27 -0.73,-1.64 -0.45,-0.38 -1.1,-0.54 -1.95,-0.5 -0.27,0.01 -0.64,0.05 -1.1,0.11l0.08 2.64 0.1 3.35c0.04,0.76 0.12,1.72 0.24,2.9 0.1,0.89 0.17,1.38 0.22,1.49 0.04,0.08 0.11,0.13 0.2,0.18 0.13,0.07 0.53,0.1 1.21,0.1l0.04 0.73c-1.07,0.02 -2.02,0.05 -2.84,0.09 -0.88,0.05 -1.82,0.11 -2.83,0.2zm25.5 -5.92l0.26 0.15c-0.08,0.33 -0.15,0.65 -0.19,0.98 -0.6,0.5 -1.19,0.9 -1.78,1.19 -0.59,0.29 -1.29,0.53 -2.11,0.71 -1.52,0.35 -2.87,0.37 -4.05,0.08 -1.18,-0.29 -2.16,-0.86 -2.95,-1.7 -0.79,-0.84 -1.32,-1.89 -1.61,-3.14 -0.41,-1.8 -0.11,-3.43 0.91,-4.88 1.02,-1.44 2.66,-2.42 4.91,-2.94 0.75,-0.17 1.5,-0.27 2.27,-0.31 0.77,-0.03 1.54,0.01 2.33,0.11l0.09 0.12c-0.03,0.34 -0.04,0.66 -0.01,0.96 0.04,0.52 0.12,1.16 0.25,1.92l-0.75 0.17c-0.25,-0.91 -0.39,-1.41 -0.45,-1.49 -0.06,-0.08 -0.25,-0.2 -0.58,-0.35 -0.34,-0.15 -0.76,-0.24 -1.28,-0.27 -0.52,-0.03 -1.07,0.03 -1.65,0.16 -1.39,0.32 -2.4,1 -3.03,2.05 -0.63,1.05 -0.76,2.34 -0.41,3.87 0.38,1.66 1.18,2.89 2.41,3.7 1.13,0.75 2.49,0.94 4.09,0.57 0.62,-0.14 1.18,-0.33 1.69,-0.59 0.51,-0.25 1.05,-0.61 1.64,-1.07zm3.83 1.96l-0.15 -0.43c0.25,-0.24 0.46,-0.49 0.65,-0.76 -0.2,-0.92 -0.8,-2.79 -1.8,-5.6 -0.68,-1.92 -1.15,-3.19 -1.42,-3.8 -0.13,-0.33 -0.26,-0.52 -0.4,-0.57 -0.13,-0.05 -0.57,0.02 -1.33,0.22l-0.24 -0.69c1.34,-0.44 2.39,-0.79 3.16,-1.06l4.62 -1.7c0.49,-0.17 0.94,-0.31 1.34,-0.41l0.09 0.07c0.1,0.65 0.3,1.49 0.61,2.53l-0.67 0.24c-0.32,-0.81 -0.5,-1.23 -0.56,-1.28 -0.06,-0.04 -0.2,-0.05 -0.44,-0.02 -0.5,0.07 -1.24,0.27 -2.2,0.61 -0.47,0.17 -1.02,0.38 -1.63,0.64 0.55,1.77 1,3.18 1.36,4.21 0.61,-0.18 1.18,-0.36 1.71,-0.55 0.78,-0.28 1.24,-0.47 1.38,-0.57 0.08,-0.07 0.12,-0.17 0.11,-0.32 -0,-0.11 -0.09,-0.48 -0.26,-1.1l0.72 -0.26c0.31,0.96 0.51,1.59 0.62,1.87l0.72 1.88 -0.72 0.26c-0.3,-0.73 -0.5,-1.13 -0.61,-1.22 -0.06,-0.06 -0.15,-0.08 -0.28,-0.07 -0.3,0.04 -0.95,0.23 -1.93,0.58 -0.31,0.11 -0.66,0.26 -1.07,0.44 0.09,0.3 0.2,0.61 0.31,0.92 0.57,1.61 1.04,2.83 1.4,3.68l1.68 -0.58c0.95,-0.34 1.8,-0.7 2.55,-1.08 -0.05,-0.57 -0.12,-1.2 -0.23,-1.9l0.71 -0.25c0.23,1.05 0.49,2.03 0.8,2.96 -0.5,0.22 -0.98,0.41 -1.46,0.58 -0.31,0.11 -0.92,0.32 -1.83,0.62 -0.85,0.28 -1.64,0.55 -2.35,0.81 -0.94,0.33 -1.92,0.7 -2.94,1.1z"/>
   <path class="fil2" d="M233.33 330.87c0.5,-0.25 0.8,-0.43 0.89,-0.56 0.06,-0.09 0.1,-0.35 0.12,-0.79 0.03,-0.85 0.04,-2.03 0.03,-3.51l-0.11 -8.36 1.21 -0.51 7.45 7.27c0.95,0.91 1.51,1.4 1.67,1.45 0.16,0.06 0.53,-0.01 1.13,-0.22l0.31 0.74c-0.91,0.34 -1.76,0.68 -2.56,1.02 -0.95,0.4 -1.85,0.8 -2.69,1.2l-0.31 -0.74c0.64,-0.3 1,-0.5 1.09,-0.59 0.08,-0.09 0.1,-0.19 0.05,-0.31 -0.04,-0.1 -0.31,-0.4 -0.79,-0.9l-1.12 -1.15c-0.68,0.28 -1.44,0.59 -2.28,0.94 -0.73,0.31 -1.39,0.59 -1.98,0.86l0.03 1.08c0.01,0.29 0.05,0.72 0.12,1.28 0.01,0.13 0.04,0.24 0.08,0.33 0.05,0.12 0.14,0.19 0.27,0.19 0.13,0.01 0.54,-0.1 1.22,-0.33l0.31 0.74c-0.55,0.19 -1.23,0.46 -2.03,0.8 -0.76,0.32 -1.36,0.59 -1.79,0.82l-0.31 -0.74zm2.02 -10.25l0.05 4.97c0.51,-0.19 1.07,-0.41 1.68,-0.67 0.63,-0.27 1.24,-0.54 1.81,-0.8l-3.54 -3.49zm12.5 4.65l-0.3 -0.67c0.65,-0.32 1.02,-0.54 1.11,-0.64 0.06,-0.08 0.08,-0.17 0.08,-0.29 0,-0.16 -0.16,-0.64 -0.5,-1.44 -0.55,-1.32 -0.97,-2.32 -1.27,-2.99l-1.55 -3.46c-0.41,-0.92 -0.67,-1.44 -0.79,-1.55 -0.07,-0.07 -0.15,-0.11 -0.23,-0.11 -0.14,-0.02 -0.58,0.1 -1.31,0.35l-0.3 -0.67c0.86,-0.34 1.5,-0.6 1.91,-0.78 0.45,-0.2 0.96,-0.44 1.52,-0.73 1.97,1.05 4.16,2.16 6.57,3.34 1.61,0.79 2.98,1.43 4.11,1.91l-1.43 -3.25c-0.54,-1.23 -1.02,-2.29 -1.44,-3.17 -0.26,-0.52 -0.44,-0.83 -0.56,-0.92 -0.06,-0.05 -0.14,-0.07 -0.24,-0.06 -0.1,0.01 -0.5,0.14 -1.2,0.39l-0.3 -0.67c0.61,-0.23 1.2,-0.47 1.79,-0.73 0.8,-0.35 1.52,-0.69 2.16,-1.01l0.29 0.67c-0.59,0.31 -0.94,0.51 -1.04,0.61 -0.06,0.06 -0.1,0.12 -0.12,0.19 -0.02,0.07 -0.03,0.14 -0.01,0.23 0.02,0.15 0.18,0.58 0.49,1.29l1.42 3.29 1.44 3.31c0.39,0.89 0.8,1.76 1.22,2.63l-0.06 0.16c-0.71,0.17 -1.22,0.3 -1.51,0.38 -2.08,-0.93 -4.63,-2.14 -7.65,-3.61 -1.53,-0.75 -2.77,-1.39 -3.75,-1.93l1.4 3.18c0.38,0.86 0.85,1.9 1.41,3.11 0.41,0.89 0.68,1.39 0.8,1.5 0.05,0.05 0.11,0.08 0.18,0.08 0.13,0.02 0.54,-0.1 1.24,-0.35l0.3 0.67c-0.89,0.35 -1.53,0.61 -1.9,0.78 -0.32,0.14 -0.98,0.45 -2,0.94zm15.07 -8.13l-0.24 -0.39c0.23,-0.42 0.39,-0.73 0.47,-0.92 -0.48,-0.93 -1.46,-2.63 -2.96,-5.07 -0.65,-1.06 -1.2,-1.94 -1.66,-2.64 -0.46,-0.7 -0.74,-1.08 -0.85,-1.16 -0.05,-0.04 -0.11,-0.06 -0.17,-0.05 -0.1,0.01 -0.51,0.17 -1.22,0.5l-0.4 -0.65c0.79,-0.44 1.67,-0.96 2.67,-1.57l3.72 -2.34c1.36,-0.84 2.51,-1.3 3.43,-1.39 0.92,-0.09 1.8,0.1 2.66,0.55 0.85,0.45 1.59,1.19 2.21,2.2 0.8,1.31 1.16,2.63 1.09,3.97 -0.07,1.34 -0.45,2.5 -1.14,3.48 -0.69,0.97 -1.56,1.78 -2.63,2.44l-2.92 1.72c-0.46,0.28 -1.15,0.73 -2.06,1.33zm2.51 -2.83c0.47,-0.19 0.93,-0.42 1.38,-0.7 1.14,-0.7 1.9,-1.39 2.3,-2.08 0.4,-0.69 0.55,-1.52 0.47,-2.48 -0.08,-0.96 -0.45,-1.98 -1.11,-3.06 -0.87,-1.41 -1.89,-2.27 -3.08,-2.56 -1.05,-0.26 -2.31,0.06 -3.77,0.95 -0.32,0.2 -0.85,0.56 -1.6,1.09l2.84 4.78c1.22,1.99 2.08,3.34 2.57,4.05zm14.51 -8.59l-0.49 -0.54c0.56,-0.58 0.85,-0.93 0.86,-1.07 0.01,-0.14 -0.1,-0.36 -0.34,-0.65 -0.49,-0.61 -1.47,-1.71 -2.92,-3.3 -0.56,-0.61 -1.37,-1.48 -2.45,-2.62 -0.73,-0.78 -1.14,-1.2 -1.24,-1.25 -0.09,-0.05 -0.19,-0.07 -0.29,-0.05 -0.14,0.04 -0.51,0.3 -1.1,0.78l-0.49 -0.54c0.92,-0.79 1.62,-1.41 2.09,-1.84 0.82,-0.75 1.55,-1.44 2.18,-2.07l0.49 0.54c-0.56,0.58 -0.85,0.93 -0.87,1.06 -0.02,0.13 0.06,0.31 0.23,0.55 0.35,0.46 1.12,1.33 2.3,2.62 1.57,1.72 2.68,2.91 3.31,3.57 0.63,0.67 1.04,1.03 1.22,1.1 0.08,0.04 0.18,0.03 0.29,-0.02 0.12,-0.04 0.45,-0.28 0.99,-0.72l0.49 0.54 -0.79 0.69c-0.5,0.43 -0.94,0.82 -1.32,1.17l-2.16 2.06zm6.07 -5.77l-0.45 -0.57c0.55,-0.47 0.85,-0.77 0.91,-0.9 0.03,-0.09 0.04,-0.19 0,-0.3 -0.04,-0.15 -0.32,-0.58 -0.84,-1.27 -0.86,-1.15 -1.52,-2.01 -1.97,-2.58l-2.36 -2.97c-0.62,-0.79 -1,-1.22 -1.15,-1.3 -0.08,-0.05 -0.17,-0.07 -0.25,-0.05 -0.14,0.02 -0.53,0.24 -1.18,0.67l-0.45 -0.58c0.75,-0.54 1.3,-0.96 1.65,-1.23 0.39,-0.31 0.82,-0.67 1.29,-1.08 2.17,0.53 4.57,1.06 7.2,1.6 1.76,0.36 3.24,0.64 4.45,0.83l-2.2 -2.79c-0.83,-1.06 -1.56,-1.96 -2.18,-2.72 -0.38,-0.44 -0.63,-0.69 -0.77,-0.75 -0.07,-0.03 -0.15,-0.03 -0.25,0 -0.1,0.04 -0.45,0.26 -1.06,0.68l-0.45 -0.58c0.53,-0.37 1.05,-0.75 1.55,-1.15 0.69,-0.54 1.3,-1.05 1.84,-1.52l0.45 0.58c-0.5,0.44 -0.78,0.73 -0.85,0.85 -0.04,0.07 -0.07,0.14 -0.07,0.22 -0,0.07 0.01,0.15 0.04,0.23 0.06,0.14 0.32,0.51 0.8,1.13l2.19 2.83 2.22 2.85c0.6,0.76 1.21,1.51 1.84,2.25l-0.01 0.17c-0.65,0.34 -1.1,0.59 -1.37,0.75 -2.25,-0.39 -5.02,-0.92 -8.31,-1.59 -1.66,-0.34 -3.03,-0.66 -4.11,-0.93l2.15 2.73c0.58,0.74 1.3,1.63 2.14,2.66 0.62,0.76 1,1.18 1.15,1.26 0.06,0.04 0.12,0.05 0.2,0.04 0.13,-0.02 0.5,-0.24 1.12,-0.65l0.45 0.58c-0.78,0.56 -1.33,0.97 -1.65,1.23 -0.27,0.21 -0.84,0.68 -1.7,1.41zm12.57 -11.61l-0.35 -0.3c0.09,-0.47 0.14,-0.81 0.16,-1.02 -0.75,-0.74 -2.21,-2.04 -4.4,-3.89 -0.95,-0.8 -1.75,-1.46 -2.4,-1.98 -0.66,-0.52 -1.04,-0.8 -1.17,-0.83 -0.06,-0.02 -0.12,-0.02 -0.18,0 -0.09,0.04 -0.43,0.32 -1,0.85l-0.59 -0.5c0.61,-0.66 1.29,-1.44 2.04,-2.33l2.8 -3.39c1.03,-1.22 1.97,-2.02 2.82,-2.39 0.84,-0.37 1.74,-0.47 2.7,-0.31 0.95,0.16 1.88,0.63 2.79,1.4 1.17,0.99 1.93,2.13 2.28,3.43 0.36,1.3 0.35,2.52 0.01,3.66 -0.35,1.14 -0.93,2.18 -1.73,3.14l-2.23 2.55c-0.35,0.41 -0.86,1.05 -1.54,1.9zm1.5 -3.47c0.39,-0.33 0.75,-0.69 1.09,-1.09 0.86,-1.02 1.37,-1.91 1.53,-2.69 0.16,-0.78 0.05,-1.61 -0.33,-2.5 -0.38,-0.89 -1.05,-1.74 -2.01,-2.55 -1.27,-1.07 -2.51,-1.56 -3.73,-1.46 -1.08,0.08 -2.17,0.78 -3.29,2.09 -0.24,0.28 -0.63,0.79 -1.17,1.53l4.2 3.65c1.79,1.51 3.02,2.52 3.71,3.04zm-1.33 -15.35l-0.61 -0.41c0.71,-0.99 1.32,-1.86 1.83,-2.62 0.32,-0.48 0.77,-1.18 1.33,-2.08l0.61 0.41c-0.31,0.46 -0.48,0.8 -0.53,1.04 -0.02,0.08 -0.01,0.16 0.02,0.24 0.03,0.1 0.12,0.22 0.27,0.35 0.26,0.21 1.04,0.78 2.34,1.68 0.91,0.63 1.84,1.26 2.78,1.89 0.78,0.52 1.41,0.82 1.89,0.89 0.48,0.07 0.93,-0.01 1.33,-0.23 0.58,-0.32 1.07,-0.77 1.46,-1.35 0.53,-0.79 0.81,-1.49 0.83,-2.08 0.02,-0.6 -0.15,-1.12 -0.52,-1.57 -0.36,-0.45 -1.32,-1.2 -2.88,-2.25l-2.75 -1.84c-0.62,-0.41 -1.02,-0.63 -1.18,-0.66 -0.09,-0.02 -0.18,-0 -0.26,0.05 -0.15,0.07 -0.45,0.4 -0.89,0.97l-0.61 -0.41c0.46,-0.62 0.87,-1.2 1.24,-1.74 0.31,-0.47 0.68,-1.05 1.11,-1.75l0.61 0.41c-0.33,0.49 -0.48,0.83 -0.45,1.03 0.03,0.19 0.26,0.46 0.7,0.79 1.07,0.8 2.31,1.68 3.7,2.62 0.9,0.6 1.48,1.01 1.74,1.21 0.65,0.51 1.12,1.07 1.41,1.67 0.3,0.6 0.39,1.33 0.26,2.18 -0.12,0.85 -0.5,1.76 -1.14,2.71 -0.67,0.99 -1.37,1.72 -2.11,2.17 -0.74,0.46 -1.43,0.67 -2.07,0.64 -0.64,-0.03 -1.4,-0.34 -2.27,-0.93l-3.32 -2.28c-0.27,-0.18 -0.95,-0.63 -2.06,-1.34 -0.35,-0.22 -0.61,-0.34 -0.77,-0.36 -0.1,-0.01 -0.19,0.02 -0.28,0.07 -0.1,0.05 -0.35,0.34 -0.77,0.86zm15.59 -8.73l0.37 -0.67c0.78,0.42 1.24,0.64 1.4,0.67 0.16,0.03 0.41,-0.03 0.77,-0.16 0.36,-0.14 0.72,-0.37 1.08,-0.71 0.36,-0.33 0.66,-0.72 0.89,-1.15 0.4,-0.74 0.53,-1.43 0.38,-2.09 -0.15,-0.66 -0.52,-1.15 -1.1,-1.47 -0.54,-0.3 -1.03,-0.38 -1.48,-0.24 -0.45,0.14 -0.96,0.59 -1.54,1.36 -0.85,1.14 -1.5,1.86 -1.95,2.18 -0.44,0.32 -0.94,0.48 -1.5,0.5 -0.56,0.02 -1.12,-0.13 -1.71,-0.45 -0.98,-0.54 -1.63,-1.34 -1.93,-2.4 -0.3,-1.07 -0.04,-2.35 0.8,-3.87 0.32,-0.59 0.66,-1.1 1,-1.51 0.34,-0.41 0.74,-0.79 1.2,-1.15l0.23 0.03c0.28,0.27 0.55,0.49 0.8,0.67 0.25,0.18 0.69,0.46 1.33,0.85l-0.37 0.67c-0.82,-0.41 -1.29,-0.62 -1.42,-0.63 -0.23,0.01 -0.55,0.16 -0.96,0.46 -0.41,0.3 -0.76,0.71 -1.05,1.23 -0.39,0.71 -0.52,1.36 -0.39,1.95 0.13,0.58 0.47,1.03 1.02,1.33 0.33,0.18 0.67,0.26 1.01,0.24 0.33,-0.03 0.64,-0.15 0.92,-0.38 0.28,-0.23 0.75,-0.78 1.43,-1.65 0.6,-0.8 1.05,-1.31 1.35,-1.55 0.48,-0.39 1,-0.61 1.56,-0.64 0.56,-0.03 1.16,0.13 1.8,0.48 1.1,0.61 1.79,1.53 2.06,2.78 0.27,1.25 0,2.6 -0.8,4.07 -0.36,0.65 -0.75,1.21 -1.16,1.68 -0.42,0.46 -0.93,0.9 -1.53,1.31 -0.31,-0.29 -0.61,-0.54 -0.89,-0.73 -0.39,-0.27 -0.93,-0.59 -1.63,-0.98zm10.19 -10.7l-0.67 -0.29c0.13,-0.31 0.25,-0.64 0.34,-1 0.04,-0.17 0.04,-0.3 0.01,-0.39 -0.03,-0.09 -0.13,-0.19 -0.28,-0.3 -0.22,-0.14 -1.06,-0.55 -2.54,-1.23 -1.05,-0.48 -2.13,-0.96 -3.23,-1.44 -2.16,-0.95 -3.27,-1.43 -3.32,-1.43 -0.05,-0 -0.15,0.18 -0.32,0.55 -0.33,0.76 -0.6,1.42 -0.79,1.99 -0.11,0.33 -0.16,0.52 -0.15,0.57 0.01,0.05 0.04,0.11 0.1,0.16 0.06,0.05 0.52,0.31 1.39,0.78l-0.31 0.7c-1.05,-0.47 -1.98,-0.85 -2.77,-1.11l-0.03 -0.12c0.83,-1.69 1.61,-3.34 2.32,-4.97 0.71,-1.62 1.47,-3.45 2.27,-5.49l0.17 -0.03c0.71,0.44 1.57,0.9 2.57,1.39l-0.3 0.69c-0.95,-0.36 -1.48,-0.53 -1.57,-0.51 -0.08,0.01 -0.16,0.08 -0.24,0.2 -0.26,0.4 -0.68,1.25 -1.25,2.55 -0.05,0.11 -0.06,0.18 -0.04,0.22 0.03,0.04 0.17,0.11 0.42,0.22l5.48 2.46c1.59,0.7 2.58,1.11 2.95,1.24 0.37,0.13 0.62,0.16 0.74,0.09 0.08,-0.05 0.33,-0.45 0.74,-1.21l0.67 0.29c-0.38,0.78 -0.77,1.63 -1.17,2.52 -0.52,1.18 -0.92,2.14 -1.21,2.89zm4.48 -10.1l-0.69 -0.24c0.17,-0.67 0.25,-1.06 0.24,-1.18 -0.01,-0.07 -0.05,-0.14 -0.11,-0.19 -0.11,-0.11 -0.55,-0.31 -1.33,-0.6 -1.19,-0.45 -2.14,-0.8 -2.83,-1.05 -0.94,-0.33 -2.13,-0.74 -3.58,-1.23 -1.08,-0.36 -1.76,-0.54 -2.03,-0.54 -0.08,-0 -0.15,0.02 -0.21,0.08 -0.09,0.07 -0.28,0.41 -0.57,1.02l-0.69 -0.24c0.45,-1.15 0.73,-1.89 0.85,-2.23l1.44 -4.24c0.32,-0.91 0.65,-1.55 0.97,-1.91 0.32,-0.36 0.73,-0.59 1.2,-0.69 0.48,-0.11 0.98,-0.07 1.5,0.12 0.67,0.24 1.19,0.64 1.56,1.21 0.37,0.57 0.58,1.41 0.63,2.51l3.35 -0.83 2.57 -0.66c0.43,-0.15 0.71,-0.27 0.83,-0.38 0.12,-0.1 0.23,-0.3 0.34,-0.59l0.64 0.23 -0.17 0.5c-0.49,1.43 -0.8,2.35 -0.93,2.77 -0.95,0.21 -2.35,0.54 -4.17,0.99l-3.25 0.8c-0.08,-0.09 -0.16,-0.16 -0.25,-0.23 0.1,-0.22 0.17,-0.38 0.21,-0.49 0.19,-0.52 0.16,-1.11 -0.09,-1.77 -0.24,-0.66 -0.75,-1.12 -1.54,-1.4 -0.68,-0.24 -1.28,-0.23 -1.8,0.04 -0.52,0.27 -0.92,0.81 -1.2,1.61 -0.09,0.26 -0.2,0.61 -0.32,1.06l2.47 0.93 3.14 1.19c0.72,0.25 1.64,0.55 2.77,0.89 0.86,0.25 1.34,0.37 1.46,0.37 0.09,-0.01 0.17,-0.05 0.24,-0.12 0.11,-0.09 0.29,-0.46 0.55,-1.08l0.69 0.24c-0.39,0.99 -0.72,1.88 -1,2.66 -0.29,0.83 -0.59,1.72 -0.89,2.69zm5.45 -16.57l-0.71 -0.19c0.15,-0.59 0.21,-1.01 0.17,-1.27 -0.03,-0.15 -0.14,-0.27 -0.32,-0.37 -0.06,-0.03 -0.61,-0.2 -1.66,-0.52l-0.63 -0.18c-0.78,-0.21 -1.27,-0.3 -1.49,-0.27 -0.35,0.04 -1.24,0.28 -2.65,0.73 -1.41,0.44 -2.42,0.8 -3.04,1.06 -0.62,0.27 -1.05,0.52 -1.28,0.75 -0.08,0.08 -0.14,0.2 -0.19,0.36l-0.09 0.42 -0.69 -0.18c0.09,-1 0.14,-2 0.15,-2.99 0.23,-0.27 0.46,-0.48 0.71,-0.63 0.37,-0.22 1.05,-0.47 2.04,-0.76 0.99,-0.3 2.4,-0.63 4.23,-1.01l-1.02 -1.03c-0.93,-0.93 -2.22,-2.18 -3.89,-3.75l0.37 -1.41 0.43 0.11c0.28,0.4 0.96,1.19 2.04,2.36 1.7,1.84 2.7,2.88 3.01,3.12 0.2,0.15 0.63,0.31 1.3,0.49 1.35,0.36 2.32,0.58 2.88,0.67 0.3,0.05 0.5,0.02 0.61,-0.08 0.11,-0.1 0.27,-0.53 0.5,-1.29l0.71 0.19c-0.26,0.82 -0.5,1.67 -0.73,2.53 -0.25,0.95 -0.51,1.99 -0.77,3.13z"/>
   <path class="fil2" d="M44.47 135.56l-0.86 -0.31c-0.07,-0.72 -0.2,-1.43 -0.39,-2.12 -2.99,-1.25 -6.13,-2.48 -9.43,-3.68 -2.59,-0.94 -5.05,-1.81 -7.37,-2.58 -1.65,-0.56 -2.62,-0.83 -2.91,-0.79 -0.17,0 -0.32,0.08 -0.46,0.23 -0.13,0.15 -0.53,0.93 -1.19,2.35l-1.37 -0.5c0.86,-2.13 1.62,-4.13 2.29,-5.98 0.65,-1.79 1.24,-3.5 1.75,-5.13l1.37 0.5c-0.45,1.57 -0.64,2.5 -0.56,2.79 0.05,0.18 0.22,0.36 0.51,0.54 0.29,0.18 2.09,0.88 5.4,2.13l8.16 3.08c1.54,0.56 3.33,1.17 5.38,1.84 0.6,-1.44 1.03,-2.51 1.28,-3.21 0.77,-2.11 1.24,-3.94 1.42,-5.5 -0.9,-0.67 -1.99,-1.41 -3.28,-2.21l0.54 -1.48c1.54,0.85 3.48,1.82 5.83,2.9 -0.32,1.08 -0.64,2.08 -0.97,2.97l-2.28 6.04 -1.02 2.7c-0.47,1.25 -1.09,3.05 -1.85,5.41zm11.97 -27.71l-1.17 -0.88c0.9,-1.34 1.34,-2.14 1.31,-2.42 -0.03,-0.28 -0.32,-0.66 -0.9,-1.16 -1.2,-1.03 -3.51,-2.84 -6.95,-5.43 -1.31,-0.99 -3.23,-2.41 -5.77,-4.27 -1.71,-1.27 -2.68,-1.94 -2.89,-2.01 -0.21,-0.07 -0.4,-0.07 -0.59,0.02 -0.27,0.13 -0.89,0.77 -1.89,1.93l-1.17 -0.88c1.52,-1.9 2.68,-3.36 3.45,-4.39 1.34,-1.77 2.52,-3.39 3.54,-4.87l1.17 0.88c-0.89,1.34 -1.33,2.14 -1.33,2.4 0.01,0.26 0.23,0.59 0.66,0.99 0.86,0.77 2.68,2.21 5.47,4.32 3.72,2.81 6.32,4.75 7.81,5.83 1.48,1.08 2.41,1.65 2.8,1.72 0.17,0.04 0.36,-0.01 0.56,-0.13 0.21,-0.13 0.77,-0.72 1.69,-1.78l1.17 0.88 -1.3 1.64c-0.83,1.03 -1.56,1.96 -2.18,2.79l-3.51 4.83zm-3.41 -36.96l-0.96 -1.11c1.76,-1.42 3.34,-2.73 4.77,-3.96 1.26,-1.08 2.61,-2.3 4.07,-3.65l0.95 1.11c-0.98,0.97 -1.54,1.6 -1.65,1.87 -0.12,0.27 -0.09,0.51 0.09,0.72 0.23,0.27 1.53,1.01 3.91,2.24l11.88 6.04 -3.45 -10.19c-1.27,-3.76 -2.15,-5.92 -2.64,-6.48 -0.18,-0.21 -0.41,-0.28 -0.68,-0.21 -0.27,0.07 -1,0.57 -2.19,1.48l-0.96 -1.11c1.7,-1.36 2.83,-2.29 3.38,-2.77 0.59,-0.5 1.61,-1.43 3.07,-2.79l0.96 1.11c-0.83,0.88 -1.27,1.44 -1.3,1.69 -0.07,0.36 0.31,1.85 1.12,4.48l4.45 13.54c0.85,2.7 1.61,4.79 2.27,6.28l-1.97 1.7 -14.67 -7.38c-3.35,-1.68 -5.66,-2.79 -6.9,-3.34 -0.73,-0.34 -1.24,-0.49 -1.53,-0.45 -0.29,0.04 -0.96,0.43 -2.01,1.18zm44.71 -7.15l-0.7 -1.29c1.37,-0.84 2.11,-1.39 2.2,-1.66 0.09,-0.26 -0.02,-0.74 -0.33,-1.43 -0.66,-1.43 -2.02,-4.04 -4.07,-7.83 -0.78,-1.45 -1.94,-3.54 -3.48,-6.27 -1.03,-1.87 -1.63,-2.88 -1.8,-3.03 -0.16,-0.15 -0.34,-0.23 -0.54,-0.23 -0.29,0.01 -1.13,0.33 -2.52,0.97l-0.7 -1.29c2.17,-1.09 3.83,-1.95 4.96,-2.56 1.95,-1.06 3.7,-2.04 5.24,-2.96l0.7 1.29c-1.36,0.85 -2.1,1.39 -2.2,1.63 -0.1,0.24 -0.04,0.63 0.19,1.18 0.46,1.06 1.52,3.12 3.19,6.2 2.22,4.1 3.78,6.95 4.68,8.55 0.9,1.6 1.51,2.5 1.83,2.72 0.13,0.11 0.33,0.14 0.57,0.11 0.25,-0.03 1,-0.33 2.28,-0.91l0.7 1.29 -1.86 0.95c-1.18,0.59 -2.23,1.14 -3.14,1.63l-5.2 2.94zm19.03 -14.91l-0.24 -1.44c1.42,-0.29 2.24,-0.53 2.46,-0.7 0.15,-0.12 0.24,-0.29 0.29,-0.52 0.08,-0.3 0,-1.32 -0.25,-3.03 -0.4,-2.84 -0.72,-4.98 -0.96,-6.42l-1.27 -7.48c-0.33,-1.98 -0.57,-3.11 -0.76,-3.4 -0.09,-0.16 -0.23,-0.28 -0.39,-0.33 -0.26,-0.11 -1.16,-0.09 -2.72,0.03l-0.24 -1.44c1.84,-0.23 3.21,-0.42 4.09,-0.56 0.97,-0.16 2.08,-0.38 3.3,-0.65 3.28,3.01 6.97,6.27 11.06,9.75 2.73,2.33 5.06,4.25 7,5.74l-1.15 -7.01c-0.44,-2.66 -0.84,-4.95 -1.2,-6.87 -0.24,-1.14 -0.44,-1.82 -0.63,-2.06 -0.09,-0.13 -0.24,-0.21 -0.43,-0.24 -0.2,-0.03 -1.04,0.03 -2.51,0.16l-0.24 -1.44c1.29,-0.14 2.56,-0.31 3.83,-0.52 1.73,-0.28 3.29,-0.58 4.69,-0.88l0.24 1.44c-1.3,0.3 -2.07,0.52 -2.32,0.67 -0.15,0.09 -0.25,0.18 -0.33,0.31 -0.07,0.12 -0.12,0.27 -0.14,0.44 -0.03,0.3 0.07,1.21 0.31,2.74l1.11 7.08 1.14 7.12c0.31,1.91 0.66,3.81 1.05,5.71l-0.19 0.28c-1.47,-0.02 -2.51,-0.03 -3.11,-0.01 -3.57,-2.85 -7.9,-6.46 -13.01,-10.81 -2.58,-2.21 -4.67,-4.08 -6.29,-5.6l1.13 6.85c0.31,1.87 0.7,4.11 1.18,6.73 0.36,1.93 0.62,3.04 0.8,3.31 0.07,0.12 0.17,0.21 0.31,0.25 0.24,0.1 1.11,0.07 2.59,-0.06l0.24 1.44c-1.9,0.24 -3.26,0.43 -4.07,0.56 -0.68,0.11 -2.12,0.39 -4.34,0.83zm54.9 -18.74l-0.03 -1.46c2.17,0.01 4.1,0 5.81,-0.03 1.57,-0.03 3.27,-0.08 5.09,-0.16l0.02 1.16c-0.52,0.17 -1.02,0.38 -1.49,0.61 -0.13,1.2 -0.18,2.23 -0.17,3.08 0.01,0.6 0.1,1.8 0.28,3.6 -2.35,0.89 -4.31,1.51 -5.9,1.84 -1.58,0.33 -3.23,0.51 -4.93,0.54 -4.6,0.08 -8.22,-1.06 -10.87,-3.39 -2.64,-2.35 -4,-5.42 -4.06,-9.21 -0.07,-3.91 1.21,-7.05 3.82,-9.45 2.62,-2.39 6.41,-3.63 11.37,-3.71 1.76,-0.03 3.43,0.08 5.05,0.32 1.61,0.25 3.15,0.64 4.61,1.17l0.16 0.27c-0.32,1.52 -0.55,3.41 -0.67,5.66l-1.54 0.03c-0.03,-1.13 -0.13,-2.13 -0.28,-2.99 -0.78,-0.87 -1.77,-1.51 -2.97,-1.93 -1.2,-0.42 -2.62,-0.61 -4.25,-0.59 -3.06,0.05 -5.48,1.02 -7.26,2.91 -1.79,1.89 -2.65,4.44 -2.59,7.67 0.06,3.44 1.06,6.19 3.01,8.26 1.95,2.07 4.33,3.08 7.13,3.03 1.49,-0.03 3.07,-0.42 4.74,-1.18 0.08,-0.92 0.12,-1.78 0.1,-2.6 -0.03,-1.83 -0.16,-2.84 -0.38,-3.02 -0.22,-0.19 -1.49,-0.33 -3.82,-0.42zm25.47 1.47l1.52 0.22c-0.24,1.75 -0.33,2.78 -0.27,3.1 0.06,0.32 0.34,0.76 0.85,1.33 0.51,0.57 1.2,1.08 2.08,1.52 0.87,0.44 1.8,0.73 2.77,0.87 1.67,0.24 3.06,-0.01 4.19,-0.75 1.12,-0.74 1.78,-1.77 1.97,-3.09 0.18,-1.22 -0.02,-2.2 -0.59,-2.94 -0.58,-0.75 -1.78,-1.39 -3.62,-1.93 -2.72,-0.8 -4.54,-1.51 -5.44,-2.12 -0.9,-0.61 -1.57,-1.43 -1.99,-2.45 -0.42,-1.03 -0.54,-2.2 -0.35,-3.52 0.32,-2.21 1.37,-3.98 3.15,-5.3 1.79,-1.31 4.38,-1.72 7.81,-1.23 1.34,0.19 2.51,0.47 3.53,0.82 1.01,0.35 2.01,0.83 2.99,1.44l0.11 0.45c-0.3,0.72 -0.53,1.37 -0.7,1.96 -0.16,0.59 -0.39,1.61 -0.66,3.08l-1.52 -0.22c0.2,-1.83 0.26,-2.86 0.18,-3.1 -0.17,-0.42 -0.68,-0.91 -1.52,-1.47 -0.85,-0.56 -1.86,-0.93 -3.03,-1.1 -1.61,-0.23 -2.92,-0.02 -3.92,0.64 -1,0.66 -1.59,1.6 -1.77,2.84 -0.11,0.75 -0.02,1.44 0.26,2.05 0.28,0.61 0.73,1.1 1.35,1.46 0.62,0.36 1.98,0.87 4.09,1.52 1.92,0.57 3.2,1.05 3.86,1.44 1.07,0.62 1.84,1.45 2.29,2.48 0.45,1.03 0.58,2.26 0.37,3.7 -0.36,2.49 -1.61,4.43 -3.76,5.82 -2.15,1.38 -4.88,1.83 -8.19,1.35 -1.47,-0.21 -2.79,-0.55 -3.95,-1 -1.16,-0.46 -2.34,-1.1 -3.53,-1.94 0.33,-0.79 0.58,-1.52 0.75,-2.18 0.23,-0.92 0.46,-2.16 0.7,-3.74zm32.71 15.87l0.61 -1.33c0.61,0.28 1.27,0.52 1.98,0.72 0.34,0.09 0.59,0.1 0.78,0.03 0.18,-0.06 0.38,-0.25 0.61,-0.55 0.29,-0.43 1.14,-2.11 2.55,-5.03 1,-2.08 2.01,-4.21 3.01,-6.39 1.98,-4.29 2.98,-6.48 2.99,-6.57 0.01,-0.1 -0.35,-0.31 -1.1,-0.65 -1.51,-0.7 -2.82,-1.25 -3.95,-1.66 -0.65,-0.24 -1.03,-0.35 -1.14,-0.33 -0.11,0.02 -0.21,0.08 -0.32,0.2 -0.11,0.12 -0.64,1.03 -1.6,2.74l-1.4 -0.64c0.99,-2.09 1.77,-3.92 2.33,-5.49l0.24 -0.05c3.34,1.73 6.62,3.34 9.84,4.83 3.21,1.48 6.85,3.07 10.9,4.75l0.06 0.35c-0.9,1.41 -1.85,3.1 -2.87,5.08l-1.36 -0.63c0.75,-1.88 1.12,-2.93 1.09,-3.12 -0.02,-0.15 -0.15,-0.32 -0.4,-0.49 -0.8,-0.54 -2.48,-1.41 -5.06,-2.6 -0.22,-0.1 -0.36,-0.13 -0.43,-0.08 -0.08,0.05 -0.23,0.33 -0.46,0.83l-5.14 10.86c-1.46,3.16 -2.33,5.11 -2.6,5.86 -0.28,0.74 -0.35,1.24 -0.22,1.49 0.1,0.17 0.89,0.67 2.39,1.52l-0.61 1.33c-1.55,-0.8 -3.22,-1.61 -5,-2.43 -2.34,-1.08 -4.24,-1.92 -5.73,-2.53zm36.11 21.33c-3.33,-2.87 -5.14,-5.92 -5.44,-9.16 -0.3,-3.23 0.85,-6.35 3.43,-9.34 1.8,-2.09 3.77,-3.5 5.88,-4.23 2.13,-0.73 4.28,-0.83 6.48,-0.3 2.2,0.53 4.49,1.82 6.89,3.88 2.3,1.98 3.85,3.98 4.67,6 0.81,2.01 1.04,4.03 0.67,6.05 -0.36,2.02 -1.39,4 -3.07,5.95 -1.82,2.11 -3.83,3.56 -6.01,4.36 -2.19,0.79 -4.44,0.93 -6.74,0.41 -2.3,-0.51 -4.56,-1.72 -6.75,-3.61zm1.78 -1.02c1.82,1.57 3.85,2.15 6.08,1.74 2.24,-0.4 4.54,-1.98 6.89,-4.71 2.47,-2.87 3.75,-5.61 3.83,-8.21 0.06,-2.1 -0.96,-4.05 -3.05,-5.86 -1.96,-1.69 -4.03,-2.35 -6.21,-1.98 -2.19,0.36 -4.43,1.89 -6.74,4.57 -1.66,1.93 -2.77,3.82 -3.34,5.66 -0.56,1.85 -0.65,3.46 -0.25,4.83 0.4,1.38 1.33,2.69 2.79,3.95zm18.7 17.31l1.25 -0.77c0.81,1.2 1.34,1.87 1.58,2.01 0.17,0.09 0.36,0.11 0.59,0.07 0.31,-0.04 1.22,-0.5 2.71,-1.38 2.47,-1.45 4.33,-2.56 5.57,-3.32l6.44 -4.01c1.71,-1.05 2.66,-1.71 2.86,-1.99 0.12,-0.15 0.17,-0.32 0.16,-0.49 -0,-0.28 -0.36,-1.11 -1.06,-2.51l1.25 -0.77c0.91,1.62 1.6,2.81 2.07,3.57 0.52,0.84 1.14,1.78 1.86,2.81 -1.54,4.18 -3.15,8.83 -4.83,13.94 -1.12,3.41 -2.01,6.29 -2.66,8.66l6.05 -3.73c2.29,-1.41 4.26,-2.65 5.89,-3.72 0.96,-0.65 1.52,-1.1 1.67,-1.36 0.08,-0.14 0.1,-0.3 0.05,-0.49 -0.05,-0.2 -0.42,-0.95 -1.1,-2.26l1.25 -0.77c0.62,1.14 1.26,2.25 1.94,3.35 0.92,1.49 1.78,2.83 2.6,4l-1.25 0.77c-0.77,-1.09 -1.27,-1.72 -1.5,-1.89 -0.14,-0.1 -0.27,-0.16 -0.41,-0.19 -0.14,-0.02 -0.29,-0.01 -0.47,0.04 -0.29,0.08 -1.09,0.52 -2.42,1.33l-6.13 3.71 -6.16 3.75c-1.65,1.02 -3.28,2.06 -4.88,3.14l-0.33 -0.07c-0.54,-1.37 -0.93,-2.33 -1.17,-2.88 1.28,-4.39 2.97,-9.76 5.06,-16.14 1.06,-3.23 2,-5.87 2.79,-7.95l-5.91 3.64c-1.61,0.99 -3.54,2.21 -5.78,3.65 -1.65,1.06 -2.58,1.72 -2.76,1.99 -0.08,0.11 -0.13,0.24 -0.12,0.38 0,0.26 0.35,1.05 1.04,2.37l-1.25 0.77c-0.94,-1.67 -1.63,-2.86 -2.06,-3.56 -0.36,-0.59 -1.16,-1.82 -2.41,-3.7zm20.55 35.18l0.83 -0.38c0.52,0.45 1.07,0.84 1.64,1.15 1.79,-0.57 5.4,-2.1 10.83,-4.61 3.7,-1.71 6.13,-2.88 7.3,-3.51 0.63,-0.32 0.98,-0.62 1.06,-0.89 0.08,-0.26 -0.15,-1.13 -0.68,-2.61l1.33 -0.61c1.11,2.58 2.01,4.61 2.69,6.09l4.22 8.89c0.43,0.94 0.79,1.81 1.06,2.59l-0.13 0.2c-1.28,0.31 -2.92,0.87 -4.92,1.67l-0.6 -1.3c1.55,-0.78 2.36,-1.23 2.44,-1.35 0.07,-0.12 0.06,-0.41 -0.04,-0.88 -0.22,-0.99 -0.76,-2.41 -1.61,-4.27 -0.42,-0.91 -0.94,-1.96 -1.57,-3.14 -3.43,1.42 -6.14,2.58 -8.15,3.48 0.47,1.19 0.93,2.29 1.4,3.3 0.69,1.5 1.16,2.38 1.39,2.64 0.15,0.15 0.37,0.21 0.65,0.17 0.22,-0.02 0.94,-0.27 2.15,-0.72l0.64 1.4c-1.86,0.79 -3.07,1.31 -3.62,1.57l-3.62 1.77 -0.64 -1.4c1.39,-0.74 2.17,-1.21 2.33,-1.43 0.1,-0.13 0.13,-0.32 0.08,-0.57 -0.13,-0.6 -0.64,-1.84 -1.51,-3.74 -0.27,-0.59 -0.63,-1.28 -1.07,-2.05 -0.59,0.24 -1.17,0.5 -1.77,0.78 -3.09,1.43 -5.46,2.58 -7.07,3.46l1.45 3.23c0.84,1.83 1.72,3.46 2.62,4.88 1.12,-0.19 2.37,-0.46 3.74,-0.8l0.63 1.36c-2.04,0.65 -3.95,1.35 -5.75,2.13 -0.52,-0.96 -0.99,-1.89 -1.41,-2.79 -0.27,-0.59 -0.8,-1.77 -1.57,-3.54 -0.72,-1.65 -1.4,-3.16 -2.03,-4.54 -0.83,-1.8 -1.75,-3.69 -2.73,-5.66z"/>
   <path class="fil3" d="M23.05 171.69c3.99,0 7.22,3.23 7.22,7.22 0,3.99 -3.23,7.22 -7.22,7.22 -3.99,0 -7.22,-3.23 -7.22,-7.22 0,-3.99 3.23,-7.22 7.22,-7.22z"/>
   <path class="fil3" d="M331.43 171.05c3.99,0 7.22,3.23 7.22,7.22 0,3.99 -3.23,7.22 -7.22,7.22 -3.99,0 -7.22,-3.23 -7.22,-7.22 0,-3.99 3.23,-7.22 7.22,-7.22z"/>
   <path class="fil0" d="M103.67 119.5l-2.52 -0.11 0 1.58 0 0.35 0 2.02 2.52 0.01 0 -1.95 0 -0.35 0 -1.55zm-0.6 -8.02l-2.72 -0.32 -11.88 0.5 0.18 14.81 -4.52 -0 0.01 -21.7 13.85 1.87 5.08 4.83zm-23.9 14.71l4.78 0.44 -0.04 -21.89 -4.75 0.77 0 20.68zm0.54 -2.37l3.71 0.34 -0 -1.67 -3.71 -0.21 0 1.54zm3.7 -1.66l-0.01 -2.79 -3.7 0 0 2.58 3.7 0.21zm-0.01 -3.12l-0 -2.61 -3.7 0.06 0 2.55 3.7 -0zm-0.01 -2.94l-0 -2.48 -3.69 0.12 0 2.41 3.7 -0.06zm-0 -2.81l-0 -2.56 -3.69 0.2 0 2.48 3.69 -0.12zm-0 -2.89l-0.01 -3.2 -3.68 0.59 0 2.81 3.69 -0.2zm21.19 -5.74l-0.02 6.91 18.44 2.2 0 -11.37 -3.62 0.39 -0.82 -11.59c-1.53,-0.42 -1.2,0.71 -1.28,1.99 -0.19,2.88 -0.64,7.38 -0.66,9.91l-2.56 0.41 -0.66 -8.44c-0.1,-1.16 0.09,-1.75 -0.58,-2.43l0.29 -0.55c0.43,-0.66 1,-0.63 1.69,-1.07 0.99,-0.63 2.15,0.29 2.4,-1.09 -1.09,-0.3 -0.37,0.06 -0.93,-0.57 -1.17,-0.03 -1.27,0.33 -2.62,0.62 -1.14,0.24 -0.68,0.76 -0.7,0.95 -0.04,0.27 -0.12,0.28 -0.18,0.73 -0.17,1.41 -0.05,0.58 -0.6,1.3 -0.29,0.38 -0.89,10.01 -0.94,10.87l-2.6 0.38c-0.02,-0.61 -0.57,-8.91 -0.84,-9.6 -0.17,-0.42 -0.16,0.05 -0.14,-0.31 0.08,-0.23 0.96,-0.62 1.24,-0.72 0.79,-0.28 1,0.24 1.58,-0.53l-0.14 -0.15c-0.94,-0.84 -1.03,-0.42 -2.06,-0.1 -0.58,0.18 -0.85,0.07 -0.95,0.43 -0.01,0.02 -0.05,0.23 -0.06,0.26 -0.23,1.43 -0.49,0.71 -0.62,1.73l-0.7 9.29c-0.47,0.13 -0.98,0.22 -1.39,0.15zm13.87 -14.47c-0.42,0.3 -0.4,0.16 -0.38,0.78 1.03,-0.31 0.04,-0.31 1.06,-0.87 0.27,-0.15 0.22,-0.11 0.45,-0.26 1.05,-0.67 0.45,0.29 2.1,-0.38 1.13,-0.46 1.29,-0.11 2.07,0.14 0.82,0.26 3.16,-0.07 1.43,-1.14 -0.03,-0.02 -0.06,-0.04 -0.09,-0.06l-0.07 -0.68c-1.51,-0.77 -3.1,-0.17 -3.72,-0.23 -0.62,-0.06 -0.61,-0.18 -1.43,-0.12 -0.76,0.33 -0.85,0.34 -0.44,1.07 -0.29,0.21 -0.6,0.45 -0.76,0.79 -0.31,0.66 0.07,0.68 -0.23,0.97zm-18.12 21.29l-11.2 0.65 0 14.36 12.02 0.16 27.45 -0.85 0.01 -2.34 -1.36 -0.01 0 -2.87 1.37 0.06 0 -0.35 -1.37 -0.06 0 -2.51 1.39 0.1 0.06 -14.06 -5.46 -1.42 -0.04 11.74 -22.87 -2.6zm-5.28 7.76l0 1.54 2.54 0.08 0 -1.55 -2.54 -0.07zm-0.38 -0.01l-2.33 -0.07 0 1.52 2.33 0.08 0 -1.53zm3.29 -3.48l0 1.34 2.81 0.07 0 -1.26 -0.44 -0.03 0 -0 -2.38 -0.11zm-2.91 -0.13l0 1.4 2.54 0.06 0 -1.35 -2.54 -0.12zm-2.7 1.34l2.33 0.06 0 -1.41 -2.33 -0.11 0 1.46zm2.33 1.93l0 -1.52 -2.33 -0.06 0 1.51 2.33 0.07zm2.91 0.08l0 -1.54 -2.54 -0.06 0 1.52 2.54 0.07zm0.38 0.01l2.81 0.08 0 -1.55 -2.81 -0.07 0 1.54zm0 1.9l2.81 0.09 0 -1.56 -2.81 -0.08 0 1.55zm0 0.35l0 2 2.75 0.13 0.06 0 0 -2.03 -2.81 -0.09zm-2.91 -0.1l0 1.96 2.54 0.11 0 -1.99 -2.54 -0.08zm-0.38 -0.01l-2.33 -0.08 0 1.92 2.33 0.11 0 -1.95zm23.87 -1.27l2.53 0.13 -0 -2.65 -1.23 -0.12 -1.33 -0.13 0.03 2.76zm-14.87 -0.69l0 -1.59 0 -0.35 0 -1.13 -2.52 -0.18 0 1.24 0 0.35 0 1.53 2.52 0.11zm0.4 -0.01l1.75 0.11 0.75 0.03 0 -1.65 0 -0.35 0 -1 -2.52 -0.18 0 1.11 0 0.35 0 0.46 0.02 1.11zm2.88 -1.5l0 1.63 1.61 0.1 0.91 0.04 0 -1.71 0 -0.35 0 -0.87 -2.52 -0.18 0 0.98 0 0.35zm2.9 0.07l0 1.71 1.22 0.07 1.31 0.06 0 -2.86 -2.52 -0.18 0 0.85 0 0.35zm5.42 1.97l0 -2.8 -2.52 -0.18 0 2.86 2.52 0.12zm2.9 0.13l0 -2.73 -2.52 -0.18 0 2.79 2.52 0.11zm5.8 0.27l0 -2.59 -2.52 -0.18 0 2.65 2.52 0.12zm2.9 0.13l0 -2.52 -2.52 -0.18 0 2.58 2.52 0.11zm-2.52 0.24l0 2.99 2.52 0.01 0 -2.89 -2.52 -0.11zm-2.9 -0.13l0 3.11 2.52 0.01 0 -3.01 -2.52 -0.11zm-2.9 -0.13l0 3.23 2.52 0.01 0 -3.13 -1.99 -0.09 -0.53 -0.02zm-2.9 -0.14l0 3.35 2.52 0.01 0 -3.25 -2.52 -0.11zm-2.9 -0.13l0 3.47 2.52 0.01 0 -3.37 -2.52 -0.12zm-0.38 -0.02l-2.52 -0.11 0 3.59 2.52 0.01 0 -3.49zm-2.9 3.47l0 -3.61 -2.52 -0.11 0 1.5 0 0.35 0 1.86 2.52 0.01zm-5.42 -3.85l0 1.54 0 0.35 0 1.94 2.52 0.01 0 -1.87 0 -0.35 0 -1.51 -2.52 -0.12z"/>
   <path class="fil4" d="M177.24 47.23c35.9,0 68.4,14.55 91.93,38.08 23.53,23.53 38.08,56.03 38.08,91.93 0,35.9 -14.55,68.4 -38.08,91.93 -23.53,23.53 -56.03,38.08 -91.93,38.08 -35.9,0 -68.4,-14.55 -91.93,-38.08 -23.53,-23.53 -38.08,-56.03 -38.08,-91.93 0,-35.9 14.55,-68.4 38.08,-91.93 23.53,-23.53 56.03,-38.08 91.93,-38.08zm90.97 39.04c-23.28,-23.28 -55.44,-37.68 -90.97,-37.68 -35.52,0 -67.69,14.4 -90.97,37.68 -23.28,23.28 -37.68,55.44 -37.68,90.97 0,35.52 14.4,67.69 37.68,90.97 23.28,23.28 55.44,37.68 90.97,37.68 35.52,0 67.69,-14.4 90.97,-37.68 23.28,-23.28 37.68,-55.44 37.68,-90.97 0,-35.52 -14.4,-67.69 -37.68,-90.97z"/>
  </g>
 </g>
</svg>
