<?xml version="1.0" encoding="UTF-8"?>
<!DOCTYPE svg PUBLIC "-//W3C//DTD SVG 1.1//EN" "http://www.w3.org/Graphics/SVG/1.1/DTD/svg11.dtd">
<!-- Creator: CorelDRAW -->
<svg xmlns="http://www.w3.org/2000/svg" xml:space="preserve" width="42.3333mm" height="42.3334mm" version="1.1" style="shape-rendering:geometricPrecision; text-rendering:geometricPrecision; image-rendering:optimizeQuality; fill-rule:evenodd; clip-rule:evenodd"
viewBox="0 0 500.44 500.44"
 xmlns:xlink="http://www.w3.org/1999/xlink"
 xmlns:xodm="http://www.corel.com/coreldraw/odm/2003">
 <defs>
  <style type="text/css">
   <![CDATA[
    .str1 {stroke:black;stroke-width:2.36;stroke-miterlimit:22.9256}
    .str0 {stroke:white;stroke-width:2.36;stroke-miterlimit:22.9256}
    .fil3 {fill:none}
    .fil2 {fill:#373435}
    .fil0 {fill:#0F79CE}
    .fil6 {fill:#211E20}
    .fil5 {fill:#FAAF40}
    .fil4 {fill:#EBE0D0;fill-rule:nonzero}
    .fil1 {fill:url(#id0)}
   ]]>
  </style>
  <linearGradient id="id0" gradientUnits="userSpaceOnUse" x1="-0" y1="250.22" x2="500.44" y2="250.22">
   <stop offset="0" style="stop-opacity:1; stop-color:#262261"/>
   <stop offset="0.490196" style="stop-opacity:1; stop-color:#0F79CE"/>
   <stop offset="1" style="stop-opacity:1; stop-color:#262261"/>
  </linearGradient>
 </defs>
 <g id="Layer_x0020_1">
  <metadata id="CorelCorpID_0Corel-Layer"/>
  <g id="_2253436489376">
   <path class="fil0" d="M369.75 173.43c-1.6,0.16 -2.19,-0.19 -2.07,-1.79 0.69,-0.22 2.13,-0.58 2.94,-0.41 0.29,1.28 -0.33,1.57 -0.86,2.2zm-8.17 -29.31c2.85,0.88 3.22,1.06 4.45,3.63 0.12,-0.14 0.11,-0.09 0.25,-0.39 1.2,-2.63 0.82,-5.79 -0.41,-8.17 -0.82,-1.6 -1.78,-1.54 -3.89,-1.36 -1.98,0.17 -2.24,1.34 -3.64,1.86 -0.89,-0.55 -2.11,-1.63 -3.38,-0.98l-0.15 0.72c0.63,0.44 1.45,0.48 2.21,1.12 0.97,0.83 1.14,1.47 1.51,1.79l0.04 1.37c-1.25,-0.57 -0.5,-0.98 -2.71,-0.8l0.31 0.13c1.09,0.39 1.03,0.09 1.48,0.79 0.45,0.21 0.37,0.11 0.73,0.63 0.76,1.11 0.57,2.2 0.13,3.25 -1.07,0.17 -2,-0.09 -2.37,0.86 1.02,0.33 4.38,0.15 4.92,4.67 0.39,3.28 -1.06,6.6 -0.87,7.4 0.12,0.52 0.46,0.63 0.47,0.62 0.02,-0.04 0.1,0.06 0.14,0.1l-0.93 1.66c-0.39,0.68 -0.01,0.04 -0.31,0.49 -0.5,0.75 -0.81,1.54 -1.62,1.9 -0.74,-1.43 0.21,-2.09 0.63,-3.7 0.34,-0.33 3.53,-10.37 -2.6,-12.34 -1.58,-0.51 -2.28,0.4 -3.69,-0.61 -0.75,-0.54 -1.99,-1.16 -2.55,-1.71 -1.36,-1.33 -0.86,-5.61 0.05,-6.38 0.59,-1.86 2.13,-3.29 3.73,-4.02 2.29,-1.04 4.21,-0.53 6.03,0.4 -0.54,-1.32 -1.98,-1.75 -3.47,-2.14 0.38,-0.94 0.71,-1.24 1.61,-1.54 1.69,-1.72 5.06,0.65 6.15,1.36 0.44,0.28 0.25,0.22 0.59,0.47 0.18,0.14 0.1,0.08 0.33,0.22 0.02,0.01 0.1,0.09 0.11,0.06 0.01,-0.03 0.07,0.04 0.11,0.05 0.58,1.28 6.18,4.67 1.99,13.54 -0.2,0.43 -0.73,1.12 -0.78,1.36l-0.28 -1.64 -0.35 1.11c0.06,0.85 0.03,0.7 -0.24,1.56l-0.19 -0.02c-1.46,-0.26 -1,-0.66 -2.93,-0.26 -1.74,-2.38 -0.06,-1.13 -3.13,-3.24 0.28,-2.41 0.06,-1.77 -0.2,-3.9l2.72 0.09zm11.7 0.87c0.2,0.74 0.18,0.32 0.74,1.04l0.17 0.24c0.4,0.57 0.58,0.88 0.8,1.54 -0.45,-0.27 -0.26,-0.15 -0.67,-0.48 -0.96,-0.8 -2.87,-2.43 -4.15,-2.38l-0.39 -0.34c-0.58,-0.66 -0.37,-0.58 -0.3,-1.09 1.57,-0.64 2.81,1.03 3.79,1.47zm-0.88 4.79l0.18 0.33c0.02,0.03 0.05,0.09 0.07,0.12 0.02,0.03 0.05,0.09 0.07,0.12 0.11,0.22 0.16,0.29 0.26,0.56 0.84,2.25 0.29,5.1 -0.55,7.26 -0.33,0.85 -0.93,1.56 -1.03,2.32 -0.58,0.37 -0.26,0.12 -0.65,0.65 -0.83,1.12 -2.92,3.86 -4.42,3.6 -0.09,-0.57 0.04,-0.51 0.51,-1.04 0.3,-0.34 0.52,-0.62 0.73,-0.89 1.1,-1.5 3.17,-4.41 3.24,-6.28 -0.61,0.59 -1.33,3.23 -4.33,6.38 0.32,-1.58 5.41,-7.11 2.27,-9.64 0.92,0.08 1.14,0.46 1.6,1.11 0.03,0.04 0.07,0.1 0.09,0.13 0.03,0.04 0.08,0.11 0.1,0.14l0.21 0.28c-0.03,-1.51 -0.41,-2.46 -1.34,-2.9 0.36,-0.67 0.52,-0.54 0.74,-1.05 0.22,-0.52 0.23,-0.44 -0.05,-0.96l-0.06 0.27c-0.08,0.28 -0.19,0.89 -0.91,1.14 -2.77,0.92 -1.71,-4.46 1.86,-2.34 0.63,0.37 0.83,0.47 1.43,0.7zm-1.84 15.64c1.39,-0.13 3.41,-2.55 4.21,-3.68 2.27,-3.2 3.75,-8.84 2.34,-12.54 -0.49,-1.29 -2.21,-4.12 -3.35,-4.42 -0.41,-0.65 -0.57,-0.7 -1.52,-1.23 -1.74,-0.98 -1.26,-0.59 -1.26,-0.96 1.7,-0.55 2.41,0.27 3.7,0.63 0.29,0.55 0.25,0.4 0.74,0.54 0.43,0.94 2.44,2.58 3.31,5.44 0.67,2.2 0.79,5.39 0.3,7.75 -0.74,3.61 -4.28,8.5 -7.43,8.75 -1.63,0.13 -0.58,0.19 -1.04,-0.27zm-5.8 4.2c2.02,-0.61 0.64,-1.42 4.97,-2.41 2.06,-0.47 4.49,-0.19 6.12,-1.16 2.83,-1.68 5.62,-4.67 6.34,-8.4 1.26,-2.85 -0.22,-9.98 -2.63,-10.81 0.15,2.54 3.09,7.03 0.69,11.96 0.09,-1.54 0.63,-2.63 0.56,-4.6 -0.13,-3.84 -1.65,-6.57 -3.88,-9.28 -1.13,-1.37 -0.96,-0.54 -1.16,-1.52 1.4,0.74 2.7,1.53 3.41,2.77 0.5,-1 -2.11,-2.79 -2.87,-3.12 0.2,-2.43 0.17,-4.07 -1.21,-6.03 -0.27,-0.39 -0.79,-0.85 -1.2,-1.23 -2.66,-2.53 -5.75,-1.47 -7.72,-0.96 -0.62,-1.08 -3.01,-2.47 -4.37,-2.93 -2.69,-0.92 -3.66,-0.31 -5.26,1.09l-1.46 1.39c-0.03,0.03 -0.06,0.08 -0.09,0.11l-0.18 0.22c-0.41,0.39 -1.98,0.74 -2.74,1.12 -1.4,0.7 -1.08,0.07 -2.71,-0.17 -1.18,-0.18 -2.2,0.1 -3.23,0.05 -0.6,0.57 -1.72,0.8 -2.4,1.26 -4.01,2.75 -4.03,5.1 -4.92,6.03l-0.18 0.96 -0.07 0.69 -0.17 0.29c-0.02,0.04 -0.06,0.1 -0.09,0.14 -0.71,1.08 -1.18,0.73 -1.85,2.19 -2.63,0.04 -4.92,1.16 -5.62,3.92 -0.8,3.16 1.27,5.48 3.09,6.14 -0.3,1.1 -0.78,2.14 -0.56,3.44 0.28,1.66 1.24,2.12 1.46,2.4 1.67,0.64 1.56,0.43 2.11,-1.03 0.64,-1.7 0.93,-1.55 1.31,-2.17 -0.3,1.28 -1.02,2.04 -0.35,3.77 0.26,0.68 1.05,1.71 1.9,1.69 1.01,-0.03 0.44,0.02 0.78,-0.31 -0.6,-0.49 -1.53,-0.48 -1.68,-1.82 -0.12,-1.13 0.13,-2.16 0.7,-2.97 0.65,-0.92 2.84,-3.24 4.8,-1.88 2.07,0.71 3.29,2.16 3.68,4.78 0.39,2.6 -0.4,4.78 -1.6,6.46 -0.81,1.02 -1.58,2.29 -2.44,3.16 -0.86,0.87 -1.91,1.59 -3.08,2.38 -1.76,1.18 -3.42,2.08 -5.52,2.76 -0.61,0.19 -1.55,0.26 -2.03,0.47 0.69,0.31 2.31,-0.01 3.11,0.07 0.85,-0.7 2.38,-1.02 3.34,-1.57 0.86,-0.49 2.19,-1.34 2.81,-2.07 1.51,-1.09 2.42,-2.02 3.66,-3.4 3.07,-3.42 4.45,-9 0.92,-12.67 -0.53,-0.55 -1.37,-0.88 -1.95,-1.51 -2.07,-0.12 -2.79,-1.29 -5.67,-0.2 -1.99,0.76 -2.58,1.85 -3.7,3.11 0.22,0.46 0.96,1.41 0.01,1.89 -1.37,0.7 -2.24,-1.59 -1.08,-3.51 0.54,-0.89 1.02,-0.67 1.13,-1.79 -0.47,-0.8 -1.59,-0.91 -2.43,-1.91 -0.57,-0.69 -1.09,-1.68 -1.02,-2.9 0.13,-2.13 1.73,-3.88 3.79,-4.28 0.15,2.16 -0.28,1.3 -0.75,2.69 -0.29,0.85 -0.34,1.88 0.11,2.49 -0.2,-2.44 0.32,-3.55 2.54,-3.85 -0.01,1.73 1,3.32 2.38,3.81 0.37,-0.36 -0.12,-0.05 0.52,-0.31l2.45 -0.4c1.52,-0.02 2.14,0.32 3.44,0.54l1.97 1.1 0.18 1.91c0.84,3.34 5.71,2.81 4.17,-0.78l-0.35 0.99c-0.12,0.44 -0.09,0.43 -0.26,0.73l-1.05 0.26c-1.07,-0.82 -1,-1.7 -0.82,-3.33 0.62,-0.41 0.35,-0.61 1.26,-0.97 0.61,-0.24 1.38,-0.24 1.99,-0.06 1.22,0.36 1.54,1.54 1.8,2.85 0.04,2.38 -0.28,3.45 -0.97,5.49 -0.77,2.29 -0.9,3.87 -2.14,4.35 0.6,-5.83 -2.43,-7.74 -2.41,-6.42 0,0.03 0,0.1 0.01,0.13 0.03,0.18 0.15,0.38 0.22,0.54 0.57,1.22 0.79,2.58 0.75,4.01 -0.05,1.96 -0.62,3.56 -1.27,5.11 -1.62,3.87 -4.31,5.4 -5.27,7.26 2.94,-1.11 7.08,-7.47 9.36,-6.79 0.31,0.87 -0.47,1.95 -0.84,2.56 -0.57,0.95 -1.12,1.05 -1.77,1.77 0.77,0.33 3.73,-2.73 4.17,-3.22 0.57,-0.63 0.63,-1.69 1.12,-2.71 0.35,-0.75 1.13,-1.82 1.96,-1.62 0.6,0.76 0.07,0.82 -0.12,1.86 1.66,-0.56 1.54,-1.69 2.39,-3.09 0.75,-1.23 2.46,-2.38 3.43,-0.62 1.16,2.11 -3.23,5.47 -4.06,6.25 -2.4,2.26 -6.84,4.9 -9.76,6.62 -1.15,0.68 -2.4,1.21 -3.54,1.96 -0.56,0.26 -1.58,0.81 -2.22,0.97 0.37,0.6 -0.14,0.14 0.66,0.31 0.26,-0.22 4.27,-2.11 4.95,-2.34l6.21 -3.75c1.06,-0.65 2.02,-1.38 2.99,-2.05 1.11,-0.77 1.92,-1.6 3.03,-2.23 0.2,0.38 0.34,0.54 0.62,0.82 -1.44,1.54 -6.31,4.24 -7.27,5.11l-0.23 0.23c1.16,-0.39 1.93,-1.07 3.05,-1.51 0.21,-0.36 3.01,-2.02 3.62,-2.44 0.81,-0.56 1.04,-1.06 2.06,-0.81 1.08,0.27 1.42,0.33 2.63,0.35 -0.24,2.73 1.86,2.9 3.43,1.63 2.15,1.14 3.36,1.32 6.01,-0.81 2.57,-2.06 2.02,-3.56 0.87,-5.4 0.5,-0.64 0.62,-0.63 1.18,-1.06 2.97,-2.32 5.12,-5.99 5.06,-10.18 -0.3,0.68 -0.24,2.31 -0.74,3.04 -0.37,2.22 -1.85,3.95 -2.97,5.27 -1.84,2.16 -3.83,2.66 -4.3,3.67 0.91,-0.04 2.03,-1.07 2.26,1.09 0.22,2.06 -2.07,3.84 -3.7,4.48 -1.48,0.58 -2.25,0.06 -3.35,-0.4 0.12,-1.14 0.11,-1.08 -0.15,-2.04 0.53,-0.18 0.76,-0.37 1.19,-0.52 -2.06,0.41 -3.68,1.61 -5.62,0.11 -0.69,-0.54 -0.87,-0.28 -1.66,-0.78zm-10.19 -4.06c1.79,-0.96 0.96,1.62 -0.07,2.24 -1.33,0.79 -2.01,-1.12 0.07,-2.24zm10.01 -4.26c0.12,1.82 -1.52,2.01 -1.89,1.09 -0.53,-1.3 0.75,-1.76 1.89,-1.09zm-0.1 -1.77c-0.55,0.13 -0.15,0.21 -0.6,-0.1 0.01,-0.55 0.21,-0.49 0.61,-0.47 0.02,0.05 0.07,0.12 0.07,0.14l-0.09 0.42zm-17.14 -11.73c-2.32,1.03 -1.87,2.16 -4.23,0.46 0.3,-2.62 0.29,-2.63 1.53,-4.71 0.66,-1.11 1.69,-2.96 3.34,-2.23 0.26,0.55 0.3,4.93 0.24,5.88l-0.68 0.43c-0.02,0.02 -0.09,0.12 -0.1,0.09 -0.01,-0.03 -0.07,0.05 -0.1,0.09zm-5.75 -0.47c0.04,0.75 0.08,1.72 -0.45,2.05 -1.38,0.86 -2.13,-3.39 0.5,-2.11l-0.06 0.05zm-3.89 1.22l-0.81 0.21c-0.06,-0.12 -0.09,0.16 -0.13,-0.44l0.25 -1.08c0.24,-0.55 0.51,-0.69 0.86,-1.1 0.25,0.19 0.23,-0.29 0.2,0.35l-0.09 1.89 -0.27 0.18z"/>
   <path class="fil1" d="M250.22 437.07c-103.19,0 -186.85,-83.65 -186.85,-186.85 0,-103.19 83.65,-186.85 186.85,-186.85 103.19,0 186.85,83.65 186.85,186.85 0,103.19 -83.65,186.85 -186.85,186.85zm0 63.38c138.19,0 250.22,-112.03 250.22,-250.22 0,-138.19 -112.03,-250.22 -250.22,-250.22 -138.19,0 -250.22,112.03 -250.22,250.22 0,138.19 112.03,250.22 250.22,250.22z"/>
   <path class="fil0" d="M166.12 384.77c-7.17,-2.28 -6.18,-6.39 -8.97,-11.97l25.22 16.84c-5.09,-1.42 -10.38,-3 -16.26,-4.88zm128.75 -164.58c3.76,-6.31 6.67,-5.73 10.64,-8.41 -1.73,-0.58 -3.48,-1.13 -5.24,-1.66 -3.77,1.32 -5.5,4.09 -5.4,10.07zm-52.43 -7.05c5.73,-2.51 23.2,-3.85 30.79,-4.88 5.74,-0.78 8.04,-1.39 9.27,-2.46 -3.77,-0.71 -7.57,-1.3 -11.41,-1.77 -1.49,-0.18 -2.99,-0.34 -4.49,-0.49 -5.42,-0.52 -10.92,-0.79 -16.47,-0.81 -5.55,0.01 -11.05,0.29 -16.47,0.81 -1.5,0.14 -3,0.31 -4.49,0.49 -5.11,0.62 -10.15,1.46 -15.12,2.51 -1.5,0.32 -3,0.65 -4.49,1.01 -2.47,0.59 -4.93,1.23 -7.36,1.93 3.15,1.19 7.47,1.61 14.66,2.91 7.48,1.35 7.45,4.28 13.34,4.99 7.45,0.89 7.05,-1.96 12.23,-4.23zm-47.05 4.85c6.44,5.51 3.92,4.41 7.19,10.31 0.68,-11.46 0.01,-12.71 -10.87,-13.76l3.68 3.45zm-28.63 33.32l0.46 -27.66c-1.52,0.82 -3.03,1.65 -4.53,2.51 0.79,8.06 0.14,17.12 4.07,25.15zm-67.24 44.72zm328.81 -85.72l-328.81 85.72zm328.81 -85.72c-0.01,-0.03 -0.01,-0.06 -0.02,-0.09l0.02 0.09zm-138.29 154.61c1.03,6.38 -1.59,-5.39 0,0zm-160.04 -114.82c-5.76,5.29 -11.19,10.95 -16.26,16.95 -1.53,1.81 -3.03,3.65 -4.49,5.52 -4.35,5 -8.83,13.19 -9.74,23.46 4.57,2.5 7.06,6.26 12.78,9.37 10.7,5.83 7.18,0.56 12.43,11.32 0.99,13.92 -1.5,13.97 7.58,20.19 5.71,3.92 9.63,5.58 11.6,14.71 -4.06,-2.92 -3.73,-4.46 -8.45,-7.78 -3.18,-2.24 -6.39,-3.48 -9.88,-5.88 -7.91,-5.44 -4.62,-12.15 -8.57,-21.16l-1 22.53c-1.49,-5.7 0.65,0.13 -2.52,-2.76 1.11,-5.98 -0.44,-14.1 -3.08,-19.34 -2.98,-5.9 -7.46,-7.6 -12.52,-10.15 -0.52,-17.63 -4.81,-28.96 -4.81,-28.96l-4.49 -15.98 0 0.34 -0.27 -1.3 -9.32 -44.9c0,0 -1.16,-6.68 -4.99,-14.05 -4.3,15.82 -6.45,31.6 -6.45,48.04 0,68.15 37.34,127.59 92.68,158.95 2.46,1.39 4.95,2.73 7.47,4.01 0.07,0 0.13,0 0.19,0 9.01,0.15 17.62,-0.06 20.49,0.03 14.5,0.44 30.33,0.65 43.96,2.99l-52.63 2.44 -0.19 0.01c2.15,0.9 4.31,1.76 6.5,2.58 0.09,0.01 0.18,0.01 0.27,0.02 21.31,1.38 51.42,1.16 67.03,1.66 -5.96,2.51 -26.43,3.8 -46.24,4.72 -0.08,0 -0.17,0.01 -0.25,0.01 4.25,1.03 8.55,1.92 12.9,2.65l0.44 0.01 54.38 0.85 0.28 0c15.12,-2.05 29.66,-5.95 43.37,-11.46 -0.02,0 -0.04,0 -0.05,0 -16.72,0.35 -35.95,-0.62 -40.51,-2.73 4.73,-1.77 31.94,-2.17 50.16,-1.46 0.01,0 0.02,0 0.03,0 3.68,-1.73 7.29,-3.58 10.83,-5.55 3.74,-2.08 7.4,-4.29 10.98,-6.61 7.14,-4.65 13.93,-9.78 20.33,-15.35 -0.88,0.32 -1.88,0.69 -3.03,1.17 -5.77,2.39 -8.67,4.53 -14.48,6.48 5.03,-8.31 16.73,-11.8 21.4,-18.15 3.93,-5.36 6.2,-15.86 19.65,-21.5 -1.04,4.77 -5.53,12.28 -9.59,18.49 30.28,-32.59 48.8,-76.26 48.8,-124.25 0,-13.73 -1.52,-27.11 -4.39,-39.97 0.02,-0.05 0.04,-0.11 0.06,-0.16 -0.6,-2.66 -1.25,-5.29 -1.96,-7.91 -3.83,7.37 -4.99,14.05 -4.99,14.05l-9.59 46.19 -4.49 15.65c0,0 -5.03,-3.72 -12.7,-4.18l-1.34 1.62c-0.08,0.12 -0.16,0.24 -0.24,0.37l-0 0c-1.57,2.43 -3.16,5.58 -4.02,10.74 -1.36,8.19 -1.05,22.95 -3.59,29.34l-0.44 -37.36c-0.97,1.26 -0.96,0.85 -1.89,3.17l-1.26 7.69c-1.57,13.26 -11.43,11.9 -9.64,27.31 -2.68,4.22 -3.14,13.75 -4.02,19.59 -4.02,-40.4 5.18,-35.26 7.65,-44.31 2.05,-7.49 -1.23,-14.99 3.49,-22.1 1.01,-1.52 2.99,-3.37 5.27,-5.19 -4.51,-5.17 -9.3,-10.09 -14.34,-14.72 -0.77,-0.71 -1.55,-1.41 -2.33,-2.1 -0.72,-0.63 -1.44,-1.26 -2.16,-1.89 -1.05,-0.9 -2.1,-1.79 -3.17,-2.67 -8.26,18.54 -4.43,67.39 -9.49,75.62 -4.95,-2.67 -2.72,-20.74 -2.73,-26.71 -0.01,-20.28 -0.73,-37.9 7.86,-52.38 -1.43,-1.1 -2.87,-2.18 -4.33,-3.24 -18.98,26.18 -9.63,95.94 -17.78,123.13 -3.34,-3.63 -2.96,-8.77 -3.77,-14.03 -0.44,2.01 -1.09,5.85 -1.48,7.17 -2.35,7.86 0.41,3.57 -3.56,5.83l-1.97 -46.41c0,-15.28 0,-30.57 0,-45.85 -0.01,-28.62 1.06,-39.99 2.85,-45.41 -0.92,-0.46 -1.85,-0.91 -2.78,-1.35 -1.22,-0.58 -2.45,-1.15 -3.69,-1.7 -1.07,1.53 -2.21,3.49 -3.75,6.34 0.6,-2.64 1.51,-4.89 2.58,-6.85 -1.46,-0.64 -2.93,-1.26 -4.41,-1.86 -2.42,4.33 -4.17,9.33 -4.95,14.48 -5.8,38.23 -4.66,123.46 -8.23,136.55 -1.6,-1.32 -2.15,-0.41 -2.95,-7.01 -0.3,-2.5 -0.42,-5.77 -0.64,-8.38 -4.4,18.82 0.9,16.12 -7.87,17.84l-0.97 -2.5c-0.2,-0.73 -0.37,-1.32 -0.5,-1.78 -0.04,-0.26 -0.09,-0.55 -0.15,-0.88l-0.16 -151.6c-12.02,0.31 -18.35,1.12 -23.18,9.2 -0.79,-3.8 1.42,-3.22 -0.83,-6.33 -5.8,2.44 -7.83,5.11 -11.09,9.24l3.55 -7.94c-5.45,1.15 -9.9,5.39 -10.32,10.41 0.23,-3.55 1.69,-6.17 2.76,-9.58 -14.89,2.28 -15.73,13.97 -17.08,34.61 -3.47,-13.34 -1.36,-28.26 -13.66,-33.03 -0.15,0.27 -0.26,0.73 -0.3,0.89 -0.04,0.15 -0.22,0.68 -0.26,0.87l-0.33 3.95c-3.16,-5.33 -4.37,-7.2 -11.85,-7.89 0.53,10.59 2.68,20.4 2.65,33.98l-0.01 74.51c-0.04,5.92 -0.27,12.08 -0.4,17.73 -0.12,5.18 0.96,12.86 -2.4,16.86 -3.86,-6.12 -0.57,-8.79 -4.47,-15.21 -0.48,7.24 0.78,11.95 -4.13,14.68 -1.25,-2.72 -3.7,-85.56 -4.97,-99.04 -1.4,-14.83 -1.97,-33.05 -13.68,-38.25 -1.77,-0.78 -3.17,-1.64 -4.33,-2.54 -0.19,0.09 -0.37,0.17 -0.55,0.26 -1.51,0.72 -3,1.45 -4.49,2.21 -0.05,0.03 -0.1,0.05 -0.15,0.08 8.45,15.81 8.9,53 10.36,71.35 5.75,-18.38 0.6,-42.95 0.57,-62.63 10.88,12.25 8.91,65.96 8.84,85.9 -0.02,6.19 0.96,25.75 -1.62,30.25 -3.95,-5.56 -2.94,-17.87 -3.68,-25.95 -4.87,-2.99 -4.05,9.48 -8.57,-16.56l-1.18 52.19c-5.51,-0.87 -3.92,-0.9 -5.75,-5.07 -2.38,7.11 0.83,2.3 -3.75,4.07 -6.04,-13.18 -4.16,-90.18 -15.47,-121.46 -2.28,1.57 -4.53,3.2 -6.73,4.87 7.99,18.63 6.28,47.44 6.35,67.68 0.04,11.22 0.27,10.43 -2.77,13.25 -5,-7.94 -0.04,-57.08 -9.75,-76.04 -0.86,0.71 -1.72,1.44 -2.56,2.16 -1.33,1.15 -2.65,2.31 -3.95,3.5 -0.18,0.16 -0.36,0.33 -0.53,0.49zm187.58 156.63c3.03,-4.81 4.4,-4.13 9.75,-5.06 -2.44,3.12 -0.51,2.22 -4.3,4.18 -1.98,1.02 -3.33,0.76 -5.44,0.87zm-3.28 -14.07c3.09,-4.3 8.08,-10.72 14.96,-11.77 -0.24,0.34 -0.6,0.43 -0.73,1 -0.13,0.55 -0.55,0.75 -0.73,0.96 -5.88,6.9 -6.14,8.23 -13.51,9.81zm-85.37 5.41c-1.96,-1.56 -1.09,-1.3 -2.52,-3.19l8.28 3.06c-1.3,0.92 2.58,3.45 -3.9,1.28 -0.37,-0.12 -1.51,-0.88 -1.86,-1.16zm63.76 1.84c2.83,-5.59 4.08,-8.26 11.6,-8.27 -5.55,4.33 -4.05,6.47 -11.6,8.27zm-96.42 -12.45c-9.96,-1.88 -6.48,-4.66 -10.46,-8.53 4.75,1.63 7,2.14 10.46,8.53zm40.91 -30.56c-1.05,-6.14 -1.59,-105.91 7.39,-117.01l-4.2 122.03c-2.63,-1.6 -2.48,-0.83 -3.2,-5.02zm15.65 8.43c-4.49,-6.83 -3.16,-58.83 -3.16,-74.4 -0,-22.39 0.65,-45.43 9.87,-62.82 -1.67,23.26 -3.9,44.29 -3.97,68.55 -0.03,11.81 1.27,62.27 -2.75,68.67zm12.89 2.96c-3.82,-7.79 -2.27,-70.9 -2.26,-91.69 0.02,-18.51 2.18,-40.24 10.19,-53.66 -4.98,26.61 -4.56,97.09 -5.28,131.06 -0.05,2.22 0.05,6.54 -0.18,8.51 -0.63,5.37 0.49,2.93 -2.47,5.77zm12.89 -0.3c-2.66,-7.88 -1.21,-64.13 -1.21,-77.06 -0,-12.69 0.49,-25.64 1.52,-38.24 0.84,-10.29 5.79,-26.68 5.83,-31.03l-0.98 146.25 -5.15 0.09zm35.82 -8.78c-4.23,-6.42 -2.2,-92.92 1.43,-102.67 2.7,6.86 1.6,75.79 1.32,93.19 -0.1,5.99 1.4,7.8 -2.75,9.48zm-87.55 -5.7l-9.33 -0.98c-0.82,-22.24 -0.71,-45.04 -0.96,-67.34 -0.24,-21.15 -2.65,-41.36 -3.26,-60.87 7.81,14.73 7.71,49.74 9.13,69.32l3.81 -51.03c2.92,36.8 0.88,73.78 0.61,110.89zm133.43 13.44c3.67,-13.21 8.29,-12.58 19.54,-18.12 5.55,-2.84 8.83,-5.77 14.11,-7.77 -0.87,2.33 -0.95,3.64 -1.26,4.8 -4.79,2.9 -6.88,6.42 -11.9,9.98 -3.33,2.36 -11.83,6.13 -13.84,9.06 -4.83,7.04 1.67,10.07 -21.95,21.45 4.66,-4.84 12.95,-10.95 15.3,-19.41zm-225.23 7.85c0.11,0.19 -0.36,-0.02 0,0zm-13.67 -20.4c3.5,-6.98 19.56,3.28 26.47,22.12 -5.33,-5.07 -5.56,-7.26 -11.6,-10.11 -0.99,-3.55 2.89,0.97 -2.3,-3.83 -1.47,-1.36 -2.7,-1.85 -4.27,-2.97 -3.76,-2.66 -4.15,-4.27 -8.3,-5.2z"/>
   <path class="fil2" d="M300.46 177.15c0.18,-0.82 0.46,-0.63 0.81,-1.39 0.3,-0.64 0.17,-1.06 0.36,-1.75 0.17,-0.65 0.95,-2.22 1.23,-2.84 0.35,0.73 0.24,1.9 0.24,2.77 0,2.03 0.18,1.92 -0.63,3.2l-2.01 0zm-94.9 -0.2c-0.35,-0.67 -0.12,-0.12 -0.82,-0.59 -0.9,-0.6 -0.45,-1.09 0.14,-2.63l2.48 0.53 -0.45 3.11 -6.06 0.06c-0.59,-1.23 -0.9,-1 0.57,-1.83 0.49,-0.27 0.53,-0.33 0.91,-0.68 0.52,-0.48 0.34,-0.56 0.87,-0.56 0.32,1.19 -0.28,1.42 0.52,2.15 0.41,0.37 1.17,1.01 1.84,0.44zm117.28 -3.46c0.09,0.15 0.52,1.23 0.53,1.7 0.01,0.44 -0.09,0.72 -0.31,0.98 -0.44,0.5 -0.29,0.27 -0.67,0.35l-0.67 0.42c-0.03,0.03 -0.06,0.07 -0.1,0.1 -0.3,0.25 -0.13,0.26 -0.6,0.36l-3.44 -0.05c0.2,-1.1 0.52,-0.81 0.26,-1.98 -0.18,-0.83 -0.23,-1.35 -0.12,-2.23 0.89,-0.11 1.78,-0.02 2.72,-0.15 0.78,-0.11 1.44,-0.46 2.15,-0.46l0.26 0.97zm-37.56 -0.83c0.43,0.68 0.91,2.97 -1.31,2.6l0.92 -0.65 0.39 -1.95zm-52.04 -2.04l0.09 -0.32c0.9,0.38 0.81,0.36 1.33,1.24 0.32,0.54 0.67,1.08 0.72,1.69l0.32 0.43c0.02,0.04 0.04,0.08 0.06,0.12 0.08,0.16 0.19,0.45 0.26,0.68 -0.48,0.88 0.11,-0.19 -0.61,0.7 -0.02,0.02 -0.06,0.13 -0.07,0.1 -0.01,-0.03 -0.05,0.07 -0.07,0.11 -0.45,-0.9 -0.29,0.01 -1.73,-0.6 -1.16,-0.49 -0.61,0.54 -0.89,-0.24 -0.01,-0.04 -0.07,-0.01 -0.11,-0.02 -0.1,0.68 0.41,0.55 -1.59,1.26 -0.04,-1.07 1.64,-4.61 2.27,-5.17zm39.66 2.21c0.04,0.05 0.33,0.25 0.32,0.59 -0.02,0.46 -0.05,0.19 -0.29,0.32 -0.27,-0.45 -0.15,-0.31 -0.03,-0.91zm2.33 -1.26c1.52,0.17 2.47,0.58 4.25,0.5 1.85,-0.09 2.24,-0.69 3.53,-0.97 0.43,0.69 0.57,1.52 0.47,2.45 -0.18,1.66 -1.09,1.21 -1.59,1.42l-0.34 -0.8c-0.17,1.02 0.11,0.28 -0.38,0.71 -0.58,-0.41 0.12,0.26 -1.28,-0.26 -1.44,-0.53 -0.69,-0.18 -1.73,-0.24l-0.45 -0.03c-0.03,0 -0.08,0.02 -0.11,0.02 -0.79,0.07 -0.59,-0.18 -1.19,-0.04 0.05,-0.35 0.26,-0.75 0.25,-0.81 -0.6,0.35 -0.49,0.16 -1.19,0.09 -0.04,-0 -0.09,-0.02 -0.13,-0.02l-0.23 -0.01c-0.03,-0 -0.08,0.01 -0.1,0.01l-0.3 0.01c-0.01,-0.03 -0.07,0.01 -0.1,-0 0.08,-0.85 0.07,-1.22 0.64,-2.02zm20.94 5.49c-0.24,-3.1 0.04,-3.7 0.07,-5.77 0.03,-1.69 -0.46,-3.58 0.56,-5.06 1.38,0.3 1.37,0.69 3.21,0.66 0.33,1.01 1.15,2.27 1.24,2.98 0.22,1.86 -0.66,5.74 -1.6,6.74 -0.65,0.68 -0.5,0.57 -1.6,0.56 -0.63,-0.01 -1.26,-0 -1.88,-0.1zm-66.97 -3.55c-0.42,1.65 -0.04,1.71 -1.04,2.34 -0.18,0.11 -0.21,0.13 -0.32,0.21 -0.83,0.54 -0.26,-0.36 -1.47,0.34 -0.85,0.49 -0.5,0.57 -0.74,0.26 -0.71,0.52 -0.08,0.3 -0.65,0.45 -0.74,0.19 -0.4,0.01 -0.59,-0.18 -0.51,-0.52 -1.45,-2.21 -1.4,-3.35 -0.27,-0.34 -0.25,-0.32 -0.28,-1.05 0.71,-0.65 1.24,-0.25 1.92,-1.12 0.64,-0.81 0.53,-1.23 1.83,-1.38l3.68 -0.82c-0.04,1.7 -0.86,3.1 -0.92,4.3zm11.05 -3.81c-0.05,4.25 1.26,2.97 1.07,4.96l-0.34 -0.24c-0.03,-0.02 -0.08,-0.06 -0.1,-0.07 -1.29,-0.86 -0.9,0.23 -2.05,0.51 -0.51,-0.49 -1.79,-4.82 -1.83,-5.06 -0.48,-0.6 -1.13,-2.65 -0.9,-3.93 0.96,-0.61 2.31,-0.67 3.57,-0.53 0.67,1.15 0.69,2.81 0.59,4.36zm6.04 -16.31c-0.43,-0.56 -0.62,-1.88 -0.55,-2.75 0.67,0.72 -0.21,0.55 1.99,3.08 0.38,0.43 0.42,0.46 0.44,1.13 -0.44,-0.14 -1.61,-1.1 -1.88,-1.45zm-8.35 -5.42c-0.63,0.21 -3.73,-0.74 -4.45,-1.08 1.34,-0.08 3.5,-0.1 4.45,1.08zm-4.6 -1.26c-0.02,0.01 0.14,0.58 -1.36,-0.21 -0.7,-0.37 -0.78,-0.41 -0.94,-0.94 1.54,0.14 0.73,0.71 2.3,1.15zm50.85 -1.14c-1.23,0.17 -1.18,-0.27 -1.18,-0.27 0.3,-0.3 0.86,-0.36 1.38,-0.33 0.73,0.05 0.97,0.12 1.32,0.49 -0.69,0.01 -0.92,0.03 -1.52,0.11zm-36 7.01c-0.76,-0.68 -2.25,-3.31 -1.8,-4.47 0.3,-0.79 1.97,-3.85 2.33,-4.2 0.88,0.03 0.78,0.23 1.2,0.72 0.57,0.65 0.47,0.27 1.22,0.67 -0.58,0.68 -0.7,0.38 -1.22,1.38 -1.02,2 -0.48,3 -0.93,4.19 -0.18,0.49 -0.49,1.4 -0.8,1.71zm-27.27 -6.84c-0.53,-0.18 -0.64,0.43 -0.51,-0.55 0.03,-0.21 0.37,-0.38 0.38,-0.39 0.43,0.48 0.37,0.32 0.13,0.95zm10.95 -0.55c-0.46,-0.26 -0.3,-0.02 -0.51,-0.48 0.93,-0.09 1.07,-0.46 2.33,-0.11 1.34,0.37 1.31,-0.04 2.48,0.14 0.73,0.11 2.37,1.53 3.39,1.95 3.05,1.26 5.28,0.41 4.65,5.77 -1.22,-0.25 -1.17,-2.29 -2.89,-3.46 -0.59,-0.4 -1.49,-0.66 -2.04,-1.14 -1.48,-1.32 -1.38,-0.61 -1.45,-1.74 -0.04,0.04 -0.08,0.1 -0.11,0.13l-0.48 0.41c-1.23,-0.57 -1.93,-0.29 -3.35,-0.52l-2.02 -0.95zm-8.43 0.05c0.15,-0.73 0.3,-0.65 0.99,-0.76 0.61,-0.1 0.86,-0.19 1.16,0.52l-2.15 0.25zm-1.89 -0.22c0.01,-0.06 0.06,-0.05 0.09,-0.08 -0.68,-0.41 -0.26,-0.02 -0.5,-0.53 0.71,-0.46 1.44,-0.2 2.26,0.18 -0.27,0.95 -0.51,0.87 -2.2,1.02l0.35 -0.59zm90.82 -0.96c0.19,-0.12 0.07,-0.31 0.63,-0.16 0.78,0.2 0.22,0.11 0.46,0.37 -0.5,0.34 -0.84,0.64 -1.09,-0.2zm-68.91 -0.64c0.72,-0.61 3.36,-0.01 4.29,0.64 -0.19,0.55 -0.41,1.02 -0.88,1.4 -0.1,0.68 -0.31,0.64 -0.65,1.4 -0.28,0.63 -0.21,0.84 -0.68,1.27 -1.06,-0.49 -1.1,-1.14 -2.72,-1.9 -1.62,-0.76 -1.51,-0.79 -2.24,-2.38l0.76 -0.96c0.98,0.23 0.43,0.47 2.11,0.54zm-24.71 1.09c-0.27,-0.25 -0.2,-0.24 -0.27,-0.65l1.26 0.18c0.98,0.24 0.79,0.98 0.35,1.66 -0.25,-0.02 -2.49,-0.79 -2.38,-1.55 0.12,-0.06 -0.22,-0.33 0.55,-0.07l0.5 0.42zm60.29 -0.38c-0.02,-0.49 0.12,-0.61 0.47,-1.07l1.8 0.65c-0.57,0.65 -1.47,0.54 -2.26,0.43zm-50.95 -0.17c-0.65,0 -0.69,0.08 -1.21,-0.29l0.45 -0.49c0.68,0.17 0.55,0.04 0.76,0.78zm0.56 -0.69c-0.69,0.16 -0.95,0.2 -1.11,-0.63 0.19,-0.18 1,0.08 1.61,0.14 0,0.06 0,0.51 0,0.54 0.06,0.47 -0.02,0.11 0.13,0.35 0.16,-0.69 -0.3,-0.48 0.64,-0.79 0.03,-0.01 0.12,0.01 0.14,-0.05 0.02,-0.06 0.1,-0.04 0.15,-0.05 0.28,0.39 0.54,0.75 0.66,1.44 -0.52,0.39 -0.2,0.27 -0.91,0.13 0.33,0.64 0.44,0.26 0.38,0.55 -0.89,0.02 -2.12,0.09 -2.86,-0.33 0.15,-0.6 0.17,-0.19 0.72,-0.74 0.22,-0.23 0.22,-0.37 0.44,-0.57zm-2.5 0.4c-0.22,-0.8 0.06,-0.99 0.83,-0.99 -0.12,0.57 -0.35,0.85 -0.83,0.99zm32.02 4.12c-0.23,0.28 -0.07,0.12 -0.38,0.38 -0.11,0.1 -0.2,0.16 -0.3,0.23 -0.33,0.23 -0.44,0.29 -0.8,0.5 -0.62,0.98 -1.47,1.49 -1.9,3 -0.33,1.18 -0.36,3.04 -1.12,3.7 -0.17,0.68 -0.41,1.04 -0.64,1.59 -0.14,0.34 -0.18,0.49 -0.33,0.73 -0.09,0.16 -0.15,0.21 -0.24,0.34 -0.02,0.03 -0.08,0.14 -0.1,0.11 -0.02,-0.03 -0.07,0.07 -0.1,0.11 -0.77,-0.44 -0.75,-0.92 -1.16,-1.6 -0.39,-0.63 -0.83,-0.99 -0.37,-1.71 -0.07,-0.29 0.1,-2.61 0.16,-2.81 0.17,-0.7 0.09,-1.41 0.31,-1.96 0.09,-0.23 0.59,-1.03 0.76,-1.34 0.49,-0.87 0.38,-0.56 0.98,-1.15 0.61,-0.59 0.36,-0.54 0.61,-1.53 0.51,-0.41 1.2,-0.63 1.93,-1.05 0.64,-0.36 1.07,-0.74 1.66,-1.18 1.14,-0.87 2.76,-1.17 4.41,-1.54 0.14,-0.13 1.74,-0.95 1.97,-1.01 -0.27,2.68 0.29,1.6 -1.82,3.77 -1.09,1.12 -0.71,0.54 -1.83,1.19 -0.63,0.36 -1.07,0.84 -1.71,1.24zm6.38 -4.88c-0.17,-1.3 0.41,-1.43 1.63,-1.27l-0.68 0.8c-0.11,0.11 -0.09,0.14 -0.28,0.26l-0.67 0.21zm-43.06 -0.38c0.87,0.25 0.33,-0.14 0.55,0.49 0.48,-0.87 -0.14,-0.73 0.9,-0.76l-0.49 0.48 0.43 0.45 0.65 -0.28c0.67,0.65 0.68,-0.11 1.28,0.62 -0.32,0.48 0.25,0.23 -1.55,0.27 -0.54,0.01 -1.08,-0.19 -1.57,-0.27 -0.85,-0.01 -0.66,0.13 -1.29,-0.69 -0.3,1.02 0.41,0.39 -0.48,0.87 -0.45,-0.26 -0.28,0.03 -0.53,-0.8 -0.29,0.66 -0.03,0.32 -1.06,0.62l-0.12 -0.65c-0.02,-0.07 -0.13,-0.26 -0.19,-0.33 0.72,-0.44 1.21,-0.01 1.23,-0.81 0,-0.02 -0.03,0 -0.04,0.01 1.27,-0.6 1,0.09 1.29,0.37l1 0.42zm24.8 -1.14c1.67,0.05 0.45,0.11 1.73,-0.35l0.14 0.24c0.37,0.6 1.38,0.8 1.48,1.88 -1.18,0 -0.79,0.04 -1.09,-0.33 -0.8,-1 0.51,0.45 -0.22,-0.31 -0.73,-0.76 -1.59,-0.58 -2.03,-1.12zm-14.86 1.39c-0.46,-1.1 0.29,-1.97 0.74,-2.07 1.44,-0.32 0.33,1.6 -0.74,2.07zm14.86 -1.39c-0.76,0.13 -0.3,0.07 -0.95,0.39 0.34,-1.02 0.26,-0.98 1.27,-0.88 -0.12,0.4 -0.02,0.28 -0.32,0.5zm-7.46 0.13c-0.73,-0.21 -1.49,0.25 -1.71,-0.59 0.96,-0.04 1.42,-0.25 1.71,0.59zm-25.08 0.39c-0.1,-0.15 -0.19,-0.36 -0.38,-0.52l-0.54 -0.35c0.64,-0.62 1.11,-0.26 1.58,0.18 -0.28,0.21 -0.3,-0.03 -0.67,0.7zm54.65 3.45c-0.45,0.71 -0.88,1.2 -1.48,1.67 -0.39,0.31 -1.24,1.16 -1.62,1.31 -0.6,1.15 -4.69,2.61 -5.87,3.93 -0.6,0.67 -2.26,2.56 -3.18,2.45 -0.04,-0.34 0.3,-2.65 0.39,-2.94 0.31,-0.95 2.7,-2.98 3.62,-3.46 4.6,-2.37 1.47,-3.21 6.63,-3.95 0.91,-0.13 2.19,-0.11 2.93,-0.63 0.74,-0.52 1.07,-1.11 2.26,-1.07 0.58,-0.64 0.27,0.27 0.85,-0.84l0.2 0.11c0,-0.02 -0.02,-0.03 -0.02,-0.05 0.45,-0.22 0.29,0.26 0.24,-0.45 0.89,0.24 0.64,0.21 1.54,0.02 0.16,0.04 0.41,0.12 0.52,0.11l1.27 -0.46 -0.35 -0.64c0.84,-0.22 0.98,-0.61 1.88,-0.52 0.46,0.04 1.21,0.39 1.79,0.55 -0.75,2.01 -1.29,0.8 -2.53,0.82 0.37,0.76 0.09,0.48 0.83,0.88l-0.52 0.35c-1.04,0.63 -0.19,1.17 -1.73,1.26 -0.88,0.05 -0.19,0.16 -0.82,-0.27l-0.18 0.5c-2.38,0.3 -2.03,-1.51 -6.67,1.3zm-31.6 -3.7c0.83,0.09 2.71,0.72 3.77,1 -0.45,0.9 -0.86,0.91 -0.43,2.16 -1.26,-0.28 -2.33,-1.03 -3.61,-1.14 -0.76,-0.07 -1.5,0.06 -2.23,-0.07 -0.85,-0.16 -1.01,-0.26 -2.05,-0.27 0.84,-1.48 2.37,-1.73 2.42,-1.86 0.02,-0.06 0.09,-0.03 0.13,-0.06 -0.16,-0.25 -0.27,0.31 -0.12,-0.29l1.52 -0.62c0.97,-0.49 1.08,-0.25 1.39,-0.18 -0.43,0.95 -0.5,0.48 -1.44,0.53l0.65 0.8zm59.88 -1.85l1.06 -0.09 0.05 0.51 -1.22 0.08 0.1 -0.51zm-2.75 2.7l-0.65 0.19c-0.26,-0.18 -0.35,-0.25 -0.53,-0.44 -0.02,0.03 -0.03,0.08 -0.04,0.1l-0.08 0.54c-0,-0.02 -0.02,0.07 -0.04,0.11 -0.22,-0.31 -0.22,-0.27 -0.34,-0.75 -0.85,0.31 0.01,0.12 -0.73,0.32l-0.15 -0.38c-0.6,0.02 -0.11,0.01 -0.51,0.17 -0.05,0.02 -0.31,0.18 -0.57,0.26l-0.08 -0.22c-0.82,-0.61 -0.24,-0.23 -1.26,-0.39l0.01 -0.43c-0.12,-0.7 -0.28,0.07 -0.62,-0.91 0.49,0.09 1.07,0.28 1.27,-0.08 0.01,-0.02 0.01,-0.07 0.02,-0.09l-0.01 -0.38c0.01,-0.05 0.02,-0.11 0.03,-0.16l0.28 -0.54 0.52 1.04c0.14,-1.77 1.18,-0.01 1.78,-1.38 0.97,0.32 0.33,-0.14 0.88,0.62 1.32,-0.52 0.88,-0.12 2.12,-0.1 -0.25,0.76 -0.57,0.72 -0.7,0.88 1.77,0.01 0.53,-0.02 1.23,0.53l-0.56 0.31c-0.07,0.03 -0.11,0.03 -0.17,0.06 -0.44,0.19 -0.18,-0.25 -0.46,0.23 -0.02,0.03 -0.03,0.08 -0.04,0.12l-0.01 1.22c-0.77,-0.21 -0.5,0.2 -0.59,-0.48zm-22.58 -1.2c-0.22,0.7 0.19,0.17 -0.53,0.56 -0.47,0.26 -0.06,-0.02 -0.33,0.2 -0.04,0.03 -0.08,0.09 -0.11,0.11l-0.25 0.28c-0.6,-0.01 -1.08,0.39 -1.72,0.58 -0.74,0.22 -1.51,0.22 -2.29,0.21 0.61,-1.59 0.66,-0.71 2.09,-2.42l0.8 -0.27c0.09,-0.02 0.37,-0.05 0.49,-0.06l-0.08 -0.32c-0.49,-0.23 -0.15,0.09 -0.32,-0.39 0.96,-0.55 1.33,-0.28 2.06,0.39 0.11,0.11 0.17,0.15 0.29,0.27l0.19 0.23c-0.18,0.57 0,0.21 -0.28,0.62zm1.35 -1.67c0.79,-0.07 1.71,-0.5 2.35,-0.18 0.28,0.88 -0.54,0.67 -1.22,0.94l-1.13 -0.76zm-7.2 0.48c0.83,-1.5 -0.11,-0.71 0.74,-1.1 0.21,0.35 0.28,-0.41 0.18,0.59 -0.06,0.57 -0.54,0.76 -1.1,0.78l0.18 -0.27zm-13.65 0.29c0.12,-0.18 0.27,-0.28 0.48,-0.52 0.5,-0.57 0.19,-0.32 0.47,-0.8 0.23,-0.38 -0.25,-0.59 1.48,-0.17 -0.18,0.68 -0.2,0.59 -0.64,0.86l0.88 0.55 -3.13 3.36c-0.24,-0.49 0.03,-0.62 -0.02,-1.42 -1.27,-0.77 -0.75,-0.38 -1.5,-1.61 0.3,-0.27 0.35,-0.17 0.63,-0.48 0.41,-0.45 -0.05,-0.59 2.12,-1.07 -0.26,0.55 -0.65,0.76 -0.77,1.28zm44.84 -0.59c-0.94,0.25 -0.67,0.12 -0.93,-0.01 -0.17,-0.7 0.19,0.03 -0.37,-1.07 1.88,0.02 1.36,-0.24 2.27,0.42 -0.35,0.23 -0.67,0.52 -0.97,0.66zm-39.93 2.85c0.23,-1.83 0.09,-2.2 1.27,-3.11 0.75,-0.58 2.09,-1.09 3.1,-0.81 -0.2,1.08 -0.88,1.51 -0.99,1.87 0.8,0.06 0.72,-0.18 0.98,-0.78 0.57,0.45 0.46,0.4 1.23,0.86 -1.49,1.36 -3.21,1.19 -5.58,1.97zm22.78 -3.72c0.65,-0.66 0.06,-0.25 0.66,-0.43 0.19,0.36 0.45,0.39 -0.24,1.13l-0.42 -0.71zm-11.65 0.06c-0.74,-0.01 -0.78,0.17 -0.64,-0.47 0.07,-0.02 -0.2,-0.46 0.42,0.01 0.41,0.32 0.05,0 0.22,0.45zm-14.87 5.17c-0.12,-1.04 0.99,-2.17 1.73,-2.95 0.23,-0.25 0.45,-0.43 0.62,-0.63 1.22,-1.4 0.19,-1.63 -0.05,-2.19 0.65,0.05 1.03,0.1 1.49,0.52l-1.11 1.11c0.49,3.89 -0.73,2.18 -1.7,3.26 -0.33,0.36 -0.35,0.61 -0.98,0.87zm22.44 -5.29c0.16,-1.02 0.3,-0.58 1.04,-0.56 0.7,0.02 0.84,-0.23 1.33,0.08 -0.6,0.41 -1.48,0.53 -2.37,0.49zm-13.08 0.4c0.4,-0.44 0.22,-0.19 0.74,-0.46 0.87,-0.46 1.04,-1.24 2.62,-1.14 0.01,0.45 -0.65,1.67 -1.01,1.86 -0.66,0.35 -1.79,0.12 -2.35,-0.26zm16.41 -0.6c-0.26,-0.29 -0.71,-0.32 0.18,-1.17 0.34,0.26 0.24,0.13 0.47,0.42 -0.17,0.66 -0.26,0.58 -0.65,0.75zm-10.74 -0.8c1.14,-0.14 1.59,-0.03 2.35,0.51 -0.25,0.32 -0.09,0.21 -1.49,0.48l-0.86 -0.98zm-9.1 -0.48c0,-0.03 0.03,-0.05 0.04,-0.07 0.6,0.03 0.53,-0.04 1.18,-0.13 -0.27,0.63 0.01,0.3 -0.59,0.57 -0.79,0.35 -1.53,1.31 -1.92,0.43 -0.02,-0.05 -0.06,-0.11 -0.08,-0.17l-0.18 -0.62c0.71,0.02 0.93,-0.07 1.41,0.21l0.14 -0.22zm15.09 0.95c-0.4,0.5 -0.34,0.68 -0.99,0.85 -0.29,0.08 -1.12,0.17 -1.41,0.14 -0.28,-0.61 -0.31,-0.43 -0.3,-1.15 0.33,-0.12 0.45,-0.1 0.89,-0.17 0.41,-0.06 0.16,-0.05 0.68,-0.11l1.08 -0.46c0.04,-0.01 0.27,-0.04 0.33,-0.05 -0.43,-0.24 -0.46,-0.21 -0.82,-0.78 0.66,0.05 1.1,0.24 1.32,0.34l0.54 0.45c-0.02,0.06 -0.21,0.46 -0.22,0.48 -0.02,0.62 -0,0.13 0.3,0.85 -0.82,-0.1 -0.36,-0.06 -0.48,0.08 -0.42,0.46 0.88,0.28 -0.68,0.36l-0.12 -0.53c-0.13,-0.62 0.36,0.29 -0.1,-0.29zm22.26 -1.75c0.22,-0.7 0.09,-0.91 0.88,-0.51 -0.25,0.43 -0.38,0.39 -0.88,0.51zm-24.12 -2.79c0.03,-0.01 0.08,-0.01 0.11,-0.02 0.02,-0.01 0.06,-0.02 0.07,-0.03l0.5 0.03c-0.17,0.46 -0.06,0.36 -0.44,0.77l-0.71 -0.59 0.47 -0.16zm10.35 -2.08c0.7,0.01 0.16,-0.05 0.36,0.39 -0.57,0.26 -0.21,0.3 -0.78,-0.09 -0.02,-0.3 0.14,-0.31 0.42,-0.3zm-1.11 0.3c-0.07,0.27 0.01,0.11 -0.17,0.33 -0.44,-0.05 -0.22,0.03 -0.52,-0.16 -0.23,-0.15 -0.08,-0.09 -0.29,-0.35l-1.03 -0.96c1.53,-0.07 0.77,-0.55 2.25,-0.32 -0.13,0.75 0.1,0.25 -0.19,0.58 0.56,0.24 0.35,-0.14 0.48,0.32 -0.24,0.58 0.01,0.34 -0.54,0.57zm-27.29 -6.84c-0.15,0.31 -0.68,0.43 -1.01,0.45 -0.66,0.03 -0.66,-0.55 -1.39,0.45 -0.25,-0.16 -0.29,0.1 -0.18,-0.21l-0.29 0.19c-0.05,0.02 -0.09,0.05 -0.15,0.07 -0.68,0.23 0.73,0.03 -0.29,0.07 -1.04,0.04 0.18,-0.97 -2.68,-0.18 -1.16,0.32 -0.94,0.04 -1.07,-0.18 -0.31,0.01 -0.15,-0.03 -0.48,0.41 -0.39,-0.15 -0.18,-0.1 -0.39,-0.28 -0.05,-0.04 -0.06,-0.39 -0.04,-0.07 -0.72,0.29 -0.56,0.05 -1.16,0.12 -1.05,0.13 -0.39,0.21 -0.53,-0.01l-1.42 0.39c-0.03,0.01 -0.08,0.04 -0.11,0.05l-0.21 0.07c-0.02,0.01 -0.08,0.02 -0.1,0.02l-0.34 0.14c-0.67,0.38 -0.83,0.55 -2.02,0.47 -0.18,0.54 0.02,0.04 -0.31,0.5 -0.19,0.26 -0.09,0.14 -0.26,0.32l0.35 0.34 -0.61 0.35c0.44,0.44 0.13,-0.17 0.41,0.7 -0.5,-0.03 -0.7,-0.17 -1.04,-0.33l-0.6 0.34c-1.25,-0.32 -0.25,0.16 -2.07,-0.33 -0.82,-0.22 -0.25,0.23 -1.77,0.43l-0.95 0.12c-0.92,0.23 -0.25,0.21 -0.88,0.53 -0.12,0.06 -0.5,0.11 -0.74,0.16 0.18,0.3 0.33,0.44 0.44,0.8 -1.18,-0.15 -0.71,0.02 -0.85,0.49 -1.22,-0.51 -1.7,0.32 -2.38,0.26 -2.71,-0.26 -1.03,0.09 -4.06,0.21l-0.28 -0.62c-0.47,0.42 -0.07,0.19 -0.77,0.16 -0.04,-0 -0.09,-0.01 -0.14,-0.01l-0.48 -0.03c-1.26,-0.12 -0.74,-0.11 -1.77,0.13 -0.98,0.23 -0.08,0.21 -1.13,0.2 -1.11,-0.01 -0.86,0.23 -1.44,-0.17l-0.16 0.13c-0.02,0.02 -0.06,0.06 -0.08,0.08 -0.83,0.88 -0.11,0.34 -1.12,0.68 -0.82,0.28 -0.78,0.51 -1.67,0.54 0.18,0.56 0.49,0.39 -0.26,0.51 -1.32,0.24 -0.42,0.73 -2,0.82 0.02,0.31 0.13,0.64 -0.18,0.97 -0.02,0.02 -0.06,0.05 -0.08,0.06 -0.02,0.01 -0.07,0.03 -0.09,0.04 -0.02,0.01 -0.07,0.02 -0.1,0.03 -0,0 -0.27,-0 -0.59,0.13 -0.84,0.35 -0.17,0.12 -0.39,0.3 -0.34,0.28 -0.18,-0.01 -0.58,0.23 -0.02,0.01 -0.06,0.04 -0.08,0.05l-0.74 0.93 -2.3 0.17c-0.03,0.01 -0.08,0.03 -0.12,0.05l-0.93 0.3c0.29,-0.52 -0.26,-0.05 0.49,-0.52 0.21,-0.13 0.33,-0.12 0.51,-0.18 -0.25,-0.35 0.44,-0.34 -0.59,-0.24l-0.95 0.43c-0.91,0.36 -0.55,0.76 -0.65,0.62l-1.23 0.2 -0.78 -0.09c0.05,0.74 0.07,0.24 -0.18,0.42l0.06 0.47c-0.76,-0.21 -0.27,-0.17 -0.68,0.61l2.29 -0.47c0.05,0.02 0.25,0.1 0.3,0.11 0.88,0.21 0.31,-0.3 1.82,-0.54l-0.07 0.96c-1.12,0.11 -0.44,0.5 -2.64,0.98 -0.2,0.38 -0.19,0.18 -0.75,0.09 0.48,0.74 0.12,0.5 -0.23,0.54 -0.06,0.98 -0.33,0.66 0.33,1.1 -1.15,0.5 -0.11,0.43 -0.98,1.16l0.37 -0.08c0.51,-0.01 0.4,0.46 0.8,-0.33 0.93,0.18 2.59,-0.33 3.31,0.17 -0.45,0.62 -0.33,0.12 -1.1,0.46 -0.44,0.2 -0.52,0.53 -0.85,0.47l1.7 -0.36c0.77,-0.37 0.5,-0.83 1.56,-0.45 0.01,1.13 0.11,0.24 -0.61,1.08 -0.37,0.42 -0.15,0.55 -0.54,0.61l0.15 0.18c0.36,-0.51 0.94,-1.47 1.58,-1.2 0.03,0.01 0.09,0.04 0.13,0.05 0.83,0.31 0.52,-0.06 1.58,0.06 -0.11,1.55 -0.9,1.8 -1.69,2.02 1.77,0.13 1.22,-1.31 1.92,-1.58l0.85 -0.26c0.15,-0.03 0.09,-0.02 0.23,-0.05 1.57,-0.29 1.5,-1.9 2.87,-0.79l-0.75 0.28c0.2,0.3 0.69,0.46 0.91,0.53 0.67,0.21 0.45,-0.08 0.94,-0.37 1.35,2.02 0.6,0.65 1.57,1.6l-0.51 1.7c0.78,0.61 0.02,-0.21 0.29,0.45 0.24,0.58 -0.02,0.67 0.24,1.11 0.76,-0.28 -0.54,-1.51 -0.13,-2.69 0.04,-0.02 -0.01,-0.26 1.01,-0.04 0.26,0.43 0.4,0.22 -0.1,0.66l0.59 -0.24 0.62 0.33c-0.12,-1.02 -0.15,-0.29 0.13,-0.63l1.08 0.01 1.39 -0.32 1.59 -0.35 2.12 -0.01c1.17,1.49 1.94,0.9 3.03,1.65 0.97,-0.18 2.33,0.82 3.44,1.06 0.79,0.18 2.94,0.63 3.26,0.98 5.33,1.07 3.47,-0.05 5.33,3 1.79,2.93 4.99,2.94 7.91,8.35 0.82,1.53 2.08,2.6 2.36,5.99 0.12,0.94 0.78,1.77 0.77,2.65 0.29,0.34 0.54,1.35 0.63,1.78 0.13,0.65 0.23,1.29 0.34,1.94l-0.48 0.19c-0.07,0.04 -0.26,0.2 -0.38,0.27l-0.29 -0.26 -0.42 -0.06c0.15,0.31 0.58,0.53 -0.54,1.28 -0.16,0.11 -0.1,0.07 -0.31,0.13 -0.65,-0.55 -0.21,-0.17 -0.54,-0.85 -0.26,0.17 -0.31,0.26 -0.67,0.28l-0.05 -0.55 -0.23 -0.35c-0.64,0.59 -0.06,0.63 -0.71,0.71l-0.37 -0.69c-0.8,1.03 -0.52,0.08 -1.07,0.74 -0.02,0.02 -0.05,0.08 -0.07,0.1l-0.24 0.27c-0.5,-0.64 -0.01,-0.49 -1.54,-0.47 -0.68,-0 -0.4,-0.02 -0.98,0.26l0.21 -0.11c-0.25,0.26 -0.17,0.81 -0.89,0.1 -0.18,0.88 -0.67,1.09 -1.33,0.48 -0.02,-0.02 -0.08,-0.04 -0.09,-0.06l-0.18 -0.13c-0.84,-0.77 0.54,0.74 -0.18,-0.17 -0.27,-0.35 -0.13,-0.02 -0.24,-0.52 -0.78,-2.43 -0.79,-2.43 -0.2,-5.12 0.22,-0.98 0.36,-1.67 0.34,-2.72 -0.02,-1.24 -0.44,-1.73 -0.48,-2.54 -0.58,-0.55 -0.16,-1.24 -0.36,-2.15 -0.15,-0.69 -0.57,-1.06 -0.82,-1.85l-0.41 -1.12c-0.53,-0.36 -0.59,-0.73 -1.15,-1 -1.58,-0.79 -4.61,0.48 -5.05,0.58 -1.07,0.23 -6.67,0.14 -7.64,-0.09l-0.56 0.23c-0.07,0.02 -0.35,0.09 -0.44,0.11l-3.1 0.82c-0.64,0.56 -2.29,0.21 -4.13,3.59 -1.27,2.35 -0.35,5.01 -0.87,7.13 0.68,1.19 -0.45,2.56 0.4,2.72 0.48,-0.5 0.16,-1.81 0.13,-2.53l0.26 -2.7c0.22,0.7 0.44,1.7 0.74,2.46 0.35,0.86 0.84,1.47 1.06,2.28 -1.64,0.92 -2.45,1.82 -2.99,2.07 -0.16,0.4 -0.7,0.8 0.15,1.85 0.37,0.47 0.87,0.71 1.18,1.13 0.8,-0.07 0.47,0.29 0.84,-0.58 0.21,-0.5 0.16,-1.29 1.62,-1.94l0.26 3.12c-2.09,0.16 -4.65,0.07 -6.79,0.09 -1.87,0.02 -4.86,0.3 -6.4,-0.31 0,-0.88 0.3,-1.25 0.56,-2.01 1.12,0.54 1.95,2.1 3.4,1.99 -0.09,-0.41 -0.02,-0.3 -0.17,-0.63 -0.82,-0.1 -1.65,-1.15 -2.01,-2.03 0.29,-0.62 0.79,-1.62 1.12,-2.27 0.95,-0.2 2.61,0.28 1.6,-1.12 -0.52,-0.72 -1.02,-1.1 -1.91,-0.78 -2.46,0.88 -1.84,1.32 -5.13,0.73 -2.07,-0.37 -3.38,0.43 -4.5,1.85 -1.71,2.16 -3.83,1.1 -4.48,1.18 -0.2,0.8 0.23,0.78 0.77,1.11 2.31,0.07 2.41,-0.67 3.81,-1.02 -0.21,1.68 -1.02,0.68 -1.37,2.61l0.14 0.86 -3.68 0.09c1.32,0.22 4.06,0.08 4.93,0.23 0.5,0.08 0.11,-0.05 0.32,0.11 1.07,-0.22 3.97,-0.05 5.39,-0.04 0.56,0 1.35,-0.06 1.8,0.19 1.24,-0.42 23.97,0.05 27.37,0.07 9.09,0.07 18.27,0.08 27.4,0.08 18.27,0 36.45,-0.18 54.73,-0.3l7.32 -0.12c0.83,-0.04 1.86,-0.15 2.61,0.09 0.62,-0.38 1.78,-0.12 3.07,-0.33l-7.86 -0.18c0.16,-0.08 1,-0.92 1.15,-1.09 0.54,-0.59 0.33,-1.03 0.52,-1.97 0.19,0.09 1.25,0.9 1.48,1.16 0.69,0.81 0.05,1.1 -0.09,1.9 0.91,0.06 1.1,0.08 1.23,-0.77 0.44,-2.87 -0.92,-1.78 -0.96,-4.18 0.73,0.48 0.91,1.74 2.72,1.36l0.84 -0.3c0.39,-0.94 0.6,-1.58 0.14,-2.62 -0.13,0.53 -0.29,0.17 -0.27,0.96 0.01,0.76 0.32,0.22 0.08,0.97 -0.15,0.48 -1.08,0.96 -1.64,0.39 -0.85,-0.17 -1.73,-1.96 -1.72,-3.09l-0.19 -0.21c-0.02,-0.03 -0.06,-0.07 -0.09,-0.1 -0.03,-0.04 -0.13,-0.16 -0.17,-0.2 -0.43,-0.46 -1.12,-0.75 -1.16,-0.87 -0.02,-0.07 -0.08,-0.06 -0.12,-0.1 -0.45,0.05 -2.63,0.08 -3.06,-0 -0.04,0.03 -0.1,0.05 -0.14,0.06 -0.03,0.01 -0.09,0.04 -0.14,0.06 -0.84,0.26 0.68,-0.1 -0.3,0.09 -0.18,0.03 -0.51,0.04 -0.7,0.04 -2.85,-0.02 -2.04,-0.66 -5,-2.09l-1.21 -0.55c-0.04,-0.02 -0.08,-0.04 -0.13,-0.05l-0.85 -0.09c-0.98,-0.13 -1.18,0.39 -1.62,1.02 -0.42,0.61 -0.89,0.89 -1.38,1.37l0.05 1.05 0.86 0.81c0.02,0.03 0.04,0.08 0.06,0.11 0.01,0.02 0.11,0.35 0.13,0.39 0.16,0.46 0.63,1.13 0.87,1.41 0.74,0.85 0.07,0.2 0.8,0.45 1.06,0.36 0.52,0.45 1.04,0.41 0.02,-0 0.07,-0.02 0.09,-0.02 0.02,-0 0.07,-0.02 0.09,-0.02 0.61,-0.09 0.2,-0.1 0.56,0 -0.37,1.51 -2.99,2.39 -3.27,2.96 -0.37,0.75 0.63,1.45 1.39,0.86 0.78,-0.6 0.3,-0.9 1.68,-1.53 0.19,-0.43 1.02,-0.91 1.58,-1.07 0.27,1.06 0.69,1.11 0.45,2.41l-0.83 0.15c-0.21,0.83 -2.01,0.47 -2.79,0.45 -2.6,-0.06 -7.4,0.07 -9.42,-0.12 0.24,-0.96 0.42,-0.43 0.28,-1.99 -0.07,-0.76 -0.17,-1.56 0.18,-2.1 -0.15,-1.18 0.23,-1.2 0.41,-2.04 0.23,-1.03 -0.28,-1.08 -0.43,-1.9 -0.18,-0.95 0.22,-3.28 0.39,-4.32 0.36,1.14 0.79,2.25 0.95,3.48 0.18,1.39 -0.34,3.22 0.22,4.4 0.67,-0.54 0.64,-0.81 0.58,-1.96 -0.07,-1.35 0.24,-0.94 0.27,-1.94 -0.86,-1.22 -0.91,-0.53 -1.07,-2.65 -0.02,-0.07 -0.78,-3.14 -0.78,-3.14l-0.92 -0.86c-0.02,-0.07 -0.06,-0.08 -0.09,-0.12 -0.31,-0.03 -3.21,-1.13 -4.01,-1.36 -0.64,-0.18 -1.47,-0.3 -1.88,-0.76 -0.27,-0.29 -0.26,-0.56 -0.41,-0.99l-0.36 -0.63c-0.01,-0.04 -0.05,-0.05 -0.07,-0.07 -1.5,-0.62 -2.37,-1.15 -2.94,-2.68 -0.65,-0.29 -1.47,-2.56 -1.89,-3.38 -0.84,-1.63 -1.34,-2 -2.53,-2.95l0.16 -0.47c0.13,-0.71 0.16,-0.31 -0.31,-0.4 -0.22,0.43 -0.6,0.41 -1.24,0.34 -0.28,-0.67 -0.09,-0.71 -0.05,-1.39l-0.89 0.07c-0.21,0.5 -0.22,0.95 -0.43,1.35 -0.3,0.58 -0.58,0.49 -0.87,0.89 -0.43,0.59 -0.08,0.65 -0.5,1.28 -0.11,0.16 -0.5,0.51 -0.71,0.78l-0.04 0.86c0.94,0.08 0.98,-0.46 2.2,-0.76 0.84,-0.21 1.16,-0.68 2.11,-0.54l0.34 1c0.21,0.41 0.97,2.53 1.1,3.18 0.15,0.75 0.88,3.19 0.88,3.45 0.16,0.15 0.12,0.11 0.29,0.34l0.46 0.8c0.19,0.31 0.59,0.78 0.71,1.07 0.53,1.18 -0.76,0.87 -0.55,2.81 0.44,0.94 1.28,1.81 1.5,2.42 0.19,0.53 0.75,2.68 0.75,3.1 0.47,0.52 0.22,1.1 0.25,1.9 0.03,0.65 0.19,1.09 0.24,1.76 0.05,0.74 -0.14,3.16 -0.48,3.61 -0.6,0.67 0.67,-0.13 -0.15,0.08l-0.45 -0.02c-0.26,-0.08 0.42,0.17 -0.2,-0.07 -1.64,-0.63 -0.68,0 -1.42,-0.28 -0.02,-0.01 -0.07,-0.04 -0.1,-0.05l-1.24 -0.13c-0.04,0.01 -0.15,0.04 -0.19,0.05l-0.35 0.02c-0.02,0 -0.08,-0 -0.1,-0.01 -0.55,-0.05 -0.67,-0.19 -1.27,-0.69 0.06,0.91 0.14,0.24 -0.21,0.56 -0.46,-0.36 -0.74,-0.16 -1.36,-0.6 -0.68,-0.48 -0.25,-0.1 -0.88,-0.28 0.14,-0.63 0.21,-0.75 0.74,-0.95 0.15,-2.59 -0.81,-0.36 0.47,-4 -0,0.31 -0.15,1.38 0.36,1.57l-0.03 -1.98c0.03,-0.67 0.08,-1.35 -0.08,-2 -0.15,-0.62 -0.41,-0.8 -0.48,-1.35l-1.62 -1.56c-0.02,-0.07 -0.07,-0.07 -0.11,-0.1 -3.2,0.31 -3.49,-0.36 -4.37,-0.49 -1.18,-0.17 -3.03,0.2 -4.65,-0.07 -1.9,-0.32 -1.71,-0.84 -3.99,-0.8 -0.79,0.01 -1.75,-0.27 -2.42,0.01 -0.7,0.29 -0.44,0.71 -1.35,1.06l-0.19 -0.37c-0.65,0.08 -0.19,-0.14 -0.6,0.15 -0,0.87 0.27,0.64 -0.03,1.26 -0.63,1.28 -1.49,2.11 -2.67,0.94 -0.23,0.37 -0.03,0.1 -0.17,0.46 -0.14,0.33 -0.01,0.15 -0.16,0.34 -0.77,-0.37 -0.87,-0.46 -1.2,-1.2l-0.48 -1.01 -0.06 1.01c0.02,0.87 0.07,1.55 0.37,2.25 0.52,1.21 0.22,0.79 0.33,2.16 0.2,0.07 0.58,0.31 0.83,0.44 1.57,0.15 2.6,-0.16 3.66,-0.61 0.13,-0.12 -0.12,-0.06 0.31,-0.13 0.66,-0.11 1.88,0.45 2.39,0.71 0.1,0.81 -0.1,1.68 -0.5,2.26 -1.26,-0.02 -0.42,-0.24 -1.41,-0.42l0.06 0.25c0.01,0.02 0.03,0.07 0.04,0.08 0.12,0.3 0.06,-0.32 0.17,0.35 -0.7,0.23 -0.33,0 -1.26,0.01l0.13 -0.55 -0.35 -0.76c-0.43,0.74 0.01,0.5 -0.13,1.45l-1.09 -0.56 -0.04 1.1c-0.82,-0.61 0.25,-0.26 -0.8,-0.51l-0.92 0c0.05,-0.36 0.7,-0.43 -0.58,-0.79l-0.47 0.49c-0.21,-0.61 -0.4,-0.71 -0.71,-1.13l0.17 0.92c-0.61,-0.21 -0.37,-0.34 -0.64,-0 -0.17,0.22 -0.02,0.34 -0.3,0.79 0,0 -0.56,-0.22 -0.17,-0.84 -0.31,-0.15 -0.34,-0.15 -0.59,-0.26l-0.2 0.44c-0.31,0.19 0.06,0.1 -0.43,0.06 -0.04,-0 -0.09,-0.02 -0.13,-0.02l-0.56 -0.17c-0.02,-0 -0.07,0.01 -0.09,0.01 -0.04,0 -0.19,0.59 -0.75,-0.41 0,0.03 0.07,0.52 0.07,0.52l-0.27 0.57c-0.46,-1.96 -2.07,-2.87 -2.41,-3.58 -0.37,-0.78 -0.49,-1.44 -0.85,-2.15 -0.42,-0.83 -0.71,-1.06 -0.99,-1.99 -0.19,-0.62 -0.19,-1.15 -0.33,-1.77 -0.17,-0.75 -0.73,-1.05 -0.46,-1.42 0.2,-1.44 -0.14,-3.16 0.85,-3.83 0.05,-0.85 0.29,-1.16 0.81,-1.62 0.52,-0.45 0.91,-0.89 1.46,-0.98 0.35,-0.54 0.94,-0.88 1.46,-1.1 0.13,-0.65 1.37,-1.91 2.06,-2.25 0.72,-1.28 2.22,-0.52 5.32,-3.58 1.64,-1.62 3.28,-2.6 5.69,-3.06l0.46 -0.34c0.08,-0.04 0.37,-0.16 0.49,-0.21 1.89,-0.86 1.42,-0.37 3.43,-0.4 0.72,0.41 2.34,0.7 3.3,0.61 0.17,-0.37 0.3,-0.32 0.89,-0.37 0.24,-0.02 1.06,-0.17 1.06,0.15 1.35,0.11 3.35,-0.05 4.73,-0.17 0.4,-0.21 1.95,-0.28 2.5,-0.13 0.41,0.11 0.26,0.11 0.32,0.14 0.02,0.01 0.07,0.1 0.08,0.07 0.01,-0.03 0.05,0.04 0.07,0.07l0.96 0.15 -0.97 -0.76c1.27,-0.09 1.12,0.27 2.38,-0.04 0.69,-0.17 1.62,-0.54 2.22,0.09l0.9 -0.1c0.13,-0.71 -0.1,-0.26 0.2,-0.72 0.86,-0.04 2.7,-0.06 3.11,0.69 0.46,0.01 0.12,0.06 0.25,-0.22l-0.1 -0.41 2.87 -0.14c0.9,0.11 1.76,0.47 2.41,0.78l0.6 0.1 1.26 -0.22c1.18,-0.74 1.17,0.05 2.18,0.32 -0.3,0.31 0.45,0.7 -1.06,0.21l0.02 0.42 1.42 0.38 0.65 0.02c-0.77,-0.43 -0.34,0.19 -0.63,-0.46 1.28,-0.12 0.59,-0.39 2,0.03 0.25,-0.57 0.17,-0.55 0.63,-0.6 0.39,0.1 1.22,0.4 1.47,0.42 -0.32,-0.1 -0.5,-0.46 -1.25,-0.65 0.03,-0.02 -0.25,-0.79 0.96,-0.11 0.01,0.01 0.47,0.44 0.54,0.52 0.51,-0.18 1.29,-0.8 2.16,0.43l0.5 -0.12 -0.04 -0.3c-0.26,-0.52 -0.25,0.18 -1.35,-0.83 -0.28,-0.26 -0.17,0.03 -0.3,-0.38 0.74,-0.46 1.1,0.01 1.54,0.48 0.38,-0.14 0.87,-0.3 1.25,-0.46 -0.12,-0.04 -0.43,-0.09 -0.57,-0.13 -1.42,-0.39 0.96,-0.16 -1.7,-0.88 -1.04,-0.28 -0.18,-0.39 -1.2,-0.06 0.11,-1.62 0.25,-0.12 -0.68,-1 -0.02,-0.02 -0.05,-0.07 -0.08,-0.09l-0.55 -0.33c-1.2,-0.31 -0.8,0.31 -1.11,-0.45 -0.37,0.07 -0.35,0.17 -0.87,-0.07l-0.21 -0.16c-0.02,-0.06 -0.06,-0.06 -0.1,-0.1 -0.67,0.37 -0.67,0.64 -1.55,0.16 -0.66,0.41 -2.38,-0.46 -3.4,-0.56 -0.66,-0.06 -1.99,-0.09 -2.48,-0.42 -0.02,-0.01 -0.07,-0.03 -0.09,-0.08 -0.01,-0.05 -0.06,-0.06 -0.08,-0.09 -0.35,0.85 0.2,0.3 -0.53,0.62 -0.39,-0.38 -0.28,-0.35 -0.81,-0.53 0.22,-0.29 0.14,-0.67 0.97,-0.72 0.05,-0 0.23,-0.17 0.99,0.32 0.22,0.14 0.28,0.25 0.37,0.38l0.7 -0.91c-1.89,-1.17 -1.01,-0.15 -1.73,-0.94 -0.6,-0.66 -0.04,-0.78 -1.68,-0.96 0.5,-0.22 0.69,-0.13 0.94,-0.29 -0.61,-0.73 -1.1,-0.03 -0.58,-1.09l-0.77 0.09c-0.15,0.17 -1.66,-0.52 -2.01,-0.7 -0.02,-0.01 -0.06,-0.03 -0.08,-0.04 -0.32,-0.19 -0.39,-0.49 -1.27,-0.81 -0.26,0.5 0.31,0.15 0,0.8 -1.14,-0.31 -0.09,-0.89 -1.5,-0.84 0.2,0.56 1.15,0.2 0.33,0.67 -0.67,0.39 -1.38,-0.26 -1.29,0.44l-0.43 0.36c-0.02,-0.03 -0.07,0.06 -0.1,0.1 -0.84,-0.39 -0.7,-0.15 -1.24,-0.57 0.11,-0.19 0.11,-0.25 0.27,-0.4 0.09,-0.09 0.09,-0.1 0.23,-0.18 0.94,-0.53 0.85,0.17 0.88,0.22 0.47,-0.24 -0.19,0.22 0.12,-0.16 0.42,-0.5 0.17,-0.09 0.81,-0.55 -1.9,-0.05 -0.13,-0.57 -1.79,-0.68 0.01,-0.03 0.2,-0.54 0.2,-0.57 0.09,-0.53 0.01,0.18 -0,-0.22l-0.02 -0.12c0.78,0.22 0.62,-0.02 1.22,0.36 0.4,0.26 0.69,0.5 1.19,0.4 -0.26,-0.15 -0.63,-0.23 -0.92,-0.33 0.35,-0.52 0.89,-0.72 -0.43,-0.9 -0.79,-0.11 -2.54,-0.32 -2.93,-0.65l-0.8 -0.88c-0.01,-0.05 -0.06,-0.04 -0.08,-0.07 -1.48,0.16 -0.95,-0.21 -2.17,-0.4 -0.78,-0.12 0.2,0.32 -1.48,-0.53 0.06,-0.42 0.07,-0.38 0.05,-0.48 -0.02,-0.08 -0.07,-0.18 -0.14,-0.26l-2.36 -1.08c0.02,-0.72 -0.07,-0.38 0.18,-0.82 -0.14,0.04 -1.02,0.52 -1.79,-0.09 -0.59,0.29 -1.61,0.48 -1.84,-0.55 -0.47,0.48 0.03,0.34 -0.76,0.2l-1.53 0.02c-0.15,-0.29 -0.43,0.2 -0.45,0.21 -0.42,0.29 -0.87,0.07 -1.74,-0.11 -0.1,-0.31 -0.33,0.05 0.49,-0.38 -1.2,-0.19 -0.59,-0.56 -1.02,-1.14 -0.52,-0.07 -1.06,-0.14 -1.47,-0.29 -0.73,-0.26 0.31,-0.05 -0.67,-0.24 -2.14,-0.4 -1.63,0.24 -3.16,0.4 -1.37,0.14 -1.32,-0.18 -2.5,-0.48 -2.22,-0.57 -1.43,0.25 -1.55,0.5 -0.38,-0.07 -0.66,-0.21 -0.88,-0.19l-0.18 0.06c-0.04,0.01 -0.2,0.07 -0.24,0.09 -0.85,0.26 -0.61,-0.01 -0.78,-0.15 -0.45,-0.37 -0.35,-0.04 -0.81,-0.48 -0.35,0.81 0.17,0.28 -0.49,0.7 -0.47,-0.21 -0.61,-0.34 -0.88,-0.64 -1.36,0.61 -0.95,-0.11 -1.96,0.11 1.01,0.31 0.48,-0.19 0.7,0.49 -0.37,0.17 -1,0.08 -1.57,0.08 -0.88,0.01 -0.82,0.07 -1.52,0.17 -1.13,0.15 -2.01,-0.37 -3.15,-0.37z"/>
   <path class="fil3 str0" d="M411.85 262.47l-4.49 15.65c0,0 -5.03,-3.72 -12.7,-4.18 -7.67,-0.46 -7.67,-0.46 -7.67,-0.46"/>
   <path class="fil3 str0" d="M411.85 259.83l-5.06 17.07c0,0 -5.03,-3.72 -12.7,-4.18 -7.67,-0.46 -7.67,-0.46 -7.67,-0.46"/>
   <path class="fil3 str0" d="M88.32 261.18l4.76 16.94c0,0 4.29,11.32 4.81,28.96"/>
   <path class="fil3 str0" d="M88.34 259.1l5.11 17.5c0,0 4.73,11.03 5.25,28.66"/>
   <path class="fil2" d="M94.69 184.98l14.65 0 0 51.47 -14.65 -51.47zm-6.21 -7.74c27.83,-61.57 89.78,-104.41 161.74,-104.41 71.96,0 133.91,42.84 161.74,104.41l-77.14 0 -39.2 0 -45.4 0 -45.4 0 -39.2 0 -77.14 0zm329.15 0c-28.16,-64.51 -92.52,-109.6 -167.41,-109.6 -74.89,0 -139.25,45.09 -167.41,109.6 -1.11,2.55 -2.17,5.13 -3.17,7.74l8.95 0 0 52.92 0 22.05 4.49 15.37 0 -7.83 0 -7.55 0 -62.73 16.26 58.82 0.11 0.38c-0.03,0.04 -0.07,0.08 -0.11,0.12 -5.67,6.5 -10.9,13.39 -15.65,20.65 0.74,1.93 3.06,8.51 4.28,18.43 0.45,-7.67 2.36,-14.75 9.84,-24.31 1.48,-1.89 2.99,-3.75 4.53,-5.58 5.11,-6.05 10.6,-11.77 16.43,-17.12 1.49,-1.37 3,-2.71 4.54,-4.03 5.24,-4.51 10.72,-8.72 16.43,-12.61 1.5,-1.02 3.01,-2.02 4.54,-2.99 4.95,-3.16 10.05,-6.09 15.28,-8.75 1.5,-0.77 3.01,-1.51 4.54,-2.23 4.99,-2.37 10.1,-4.52 15.29,-6.42 1.5,-0.55 3.01,-1.08 4.53,-1.59 5.03,-1.69 10.13,-3.15 15.29,-4.38 1.51,-0.36 3.02,-0.7 4.54,-1.02 5.06,-1.07 10.16,-1.92 15.29,-2.54 1.51,-0.18 3.02,-0.35 4.54,-0.49 5.54,-0.53 11.09,-0.81 16.66,-0.81 5.56,0 11.12,0.28 16.66,0.81 1.51,0.15 3.03,0.31 4.54,0.49 5.13,0.62 10.23,1.47 15.29,2.54 1.52,0.32 3.03,0.66 4.54,1.02 5.16,1.23 10.26,2.69 15.29,4.38 1.52,0.51 3.03,1.04 4.53,1.59 5.19,1.9 10.3,4.04 15.29,6.42 1.52,0.72 3.04,1.47 4.54,2.23 5.23,2.67 10.33,5.59 15.28,8.75 1.53,0.98 3.04,1.97 4.54,2.99 5.71,3.89 11.19,8.1 16.43,12.61 1.53,1.32 3.05,2.66 4.54,4.03 5.83,5.35 11.32,11.08 16.43,17.12 1.55,1.83 3.06,3.69 4.53,5.58 0.36,0.46 0.72,0.92 1.07,1.39 0.12,0.01 0.25,0.01 0.37,0.02 6.4,0.38 10.96,3.04 12.3,3.91 -4.65,-7.05 -9.76,-13.76 -15.28,-20.08 -0.04,-0.04 -0.07,-0.08 -0.11,-0.12l0.11 -0.38 16.26 -58.82 0 62.73 0 7.55 0 7.46 4.49 -15.12 0 -21.93 0 -52.92 8.95 0c-1,-2.61 -2.06,-5.19 -3.17,-7.74zm-261.04 9.19l-0.95 -1.44 0.82 0 1.94 0 12.05 0 0 0.08 0.02 0 -0.01 22.18c-0.01,-0.01 -0.01,-0.01 -0.02,-0.02l0 0.27 -1.22 -1.86c-1.45,-2.04 -3.81,-5.65 -6.12,-9.3l-6.51 -9.91zm32.67 13.91l-12.17 -15.36 12.97 0 -0 14.17 0 2.19 -0.8 -1.01zm20.4 -3.81l-12.95 -11.55 12.54 0 0.4 0 0 0.26 0 11.29zm4.38 -0.15l-0.02 -8.32 10.33 6.7c-3.42,0.44 -6.81,0.97 -10.2,1.6 -0.04,0.01 -0.07,0.01 -0.11,0.02zm15.23 -3.29l-12.51 -8.11 12.51 0 0 8.11zm4.49 0.72l0 -6.29 9 5.83c-3.02,0.08 -6.02,0.23 -9,0.46zm23.94 -0.46l9 -5.83 0 6.29c-2.98,-0.22 -5.98,-0.38 -9,-0.46zm-19.88 -8.19l-0.28 -0.18 10.5 0 0 0.06 0.15 0 -0.01 6.67 -10.36 -6.55zm14.45 6.55l-0.01 -6.67 0.15 0 0 -0.06 10.5 0 -0.28 0.18 -10.36 6.55zm-57.75 9.45l0.02 -12.85 3.18 2.83c0.68,0.59 1.42,1.25 2.17,1.94l5.7 5.09c-3.72,0.88 -7.4,1.87 -11.05,2.99 -0.01,0 -0.01,0 -0.02,0zm91.78 -4.8c-3.39,-0.63 -6.78,-1.15 -10.2,-1.6l10.33 -6.7 -0.02 8.32c-0.04,-0.01 -0.07,-0.01 -0.11,-0.02zm-15.12 -3.27l0 -8.11 12.51 0 -12.51 8.11zm-135.46 -8.11l15.11 0 0 31.04 -15.11 -31.04zm170.2 16.18c-0.01,-0 -0.01,-0 -0.02,-0 -3.65,-1.11 -7.34,-2.11 -11.05,-2.99l5.7 -5.09c0.75,-0.68 1.49,-1.35 2.17,-1.94l3.18 -2.83 0.02 12.85zm-15.14 -4.63l0 -11.29 0 -0.26 0.4 0 12.54 0 -12.95 11.55zm-176.17 -11.55l15.47 0 0 42.11 -15.47 -42.11zm60.07 14.12l0.04 -9.75c0.06,0.02 0.12,0.07 0.2,0.12l0 -0.49 1.89 2.38c2.7,3.01 7.13,8.58 9.43,11.5 0.24,0.3 0.45,0.57 0.64,0.81 -0.08,0.03 -0.17,0.06 -0.25,0.09 -3.97,1.41 -7.87,2.95 -11.71,4.62 -0.09,0.04 -0.19,0.08 -0.28,0.12l0.04 -9.41zm170.43 19.27c-4.12,-2.42 -8.33,-4.68 -12.64,-6.78 -0.08,-0.04 -0.16,-0.08 -0.25,-0.12l1.24 -1.94c1.03,-1.88 2.44,-3.93 3.55,-5.58l2.31 -3.63c1.05,-1.72 2.65,-4.31 4.04,-6.35l1.75 -2.75 0 0.37 0 26.76zm-19.61 -9.99c-3.84,-1.67 -7.74,-3.21 -11.71,-4.62 -0.08,-0.03 -0.17,-0.06 -0.25,-0.09 2.02,-2.56 7.09,-8.99 10.07,-12.3l1.89 -2.38 0 0.49c0.08,-0.06 0.14,-0.1 0.2,-0.12l0.08 19.15c-0.09,-0.04 -0.18,-0.08 -0.28,-0.12zm-15.13 -7.03l-0 -16.37 12.97 0 -4.67 5.9c-0.11,0.26 -0.23,0.52 -0.34,0.78 -0.05,-0.05 -0.11,-0.11 -0.16,-0.16l-7.8 9.85zm19.6 5.89l-0.01 -22.18 0.02 0 0 -0.08 13.99 0 0.82 0 -7.47 11.35c-2.31,3.65 -4.67,7.26 -6.12,9.3l-1.22 1.86 0 -0.27c-0.01,0.01 -0.01,0.01 -0.02,0.02zm22.06 15.4c-0,0 -0,-0 -0,-0l13.83 -29.66 0 0.37 0 39.19c-4.45,-3.51 -9.06,-6.81 -13.82,-9.9zm-2.44 -6.62l0 -31.04 15.11 0 -15.11 31.04zm20.75 11.07l0 -42.11 15.47 0 -15.47 42.11zm20.75 -42.11l14.65 0 -14.65 51.47 0 -51.47zm-256.53 47.56l0 -39.19 0 -0.37 13.83 29.66c-0,0 -0,0 -0,0 -4.76,3.09 -9.37,6.39 -13.82,9.9zm20.75 -14.17l0 -23.42 0 -3.34 0 -0.37 1.69 2.66 0.06 0.09c1.39,2.04 2.99,4.63 4.04,6.35l2.31 3.63c1.11,1.64 2.52,3.7 3.55,5.58l1.24 1.94c-0.08,0.04 -0.16,0.08 -0.25,0.12 -4.31,2.1 -8.53,4.36 -12.64,6.78zm216.12 18.73l15.18 -42.61 0 57.09c-4.79,-5.11 -9.86,-9.94 -15.18,-14.48zm-257.61 14.48l0 -57.09 15.18 42.61c-5.32,4.54 -10.39,9.37 -15.18,14.48z"/>
   <g>
    <path class="fil4" d="M37.71 320.3l-0.19 0.38c-0.46,-0.09 -0.93,-0.15 -1.39,-0.19 -0.76,-0.8 -1.37,-1.6 -1.82,-2.41 -0.45,-0.81 -0.85,-1.78 -1.18,-2.91 -0.61,-2.12 -0.76,-4.02 -0.44,-5.7 0.32,-1.68 1.04,-3.11 2.16,-4.29 1.12,-1.18 2.55,-2.02 4.3,-2.53 2.51,-0.73 4.83,-0.43 6.95,0.88 2.12,1.32 3.63,3.55 4.54,6.68 0.3,1.04 0.51,2.1 0.62,3.17 0.11,1.08 0.12,2.18 0.03,3.29l-0.16 0.14c-0.48,-0.02 -0.93,0 -1.35,0.06 -0.73,0.1 -1.63,0.27 -2.69,0.51l-0.3 -1.04c1.26,-0.42 1.95,-0.67 2.06,-0.75 0.11,-0.09 0.26,-0.37 0.45,-0.85 0.19,-0.48 0.28,-1.09 0.27,-1.82 -0,-0.73 -0.13,-1.5 -0.36,-2.32 -0.56,-1.94 -1.61,-3.31 -3.13,-4.1 -1.53,-0.8 -3.36,-0.89 -5.49,-0.27 -2.31,0.67 -3.98,1.9 -5.01,3.69 -0.96,1.65 -1.12,3.59 -0.47,5.81 0.25,0.86 0.57,1.64 0.96,2.34 0.39,0.7 0.94,1.44 1.65,2.22zm-1.69 4.46l0.97 -0.36c0.44,1.03 0.73,1.59 0.87,1.7 0.15,0.11 0.37,0.13 0.67,0.07 0.46,-0.1 1.57,-0.47 3.32,-1.13l6.48 -2.44c2.19,-0.83 3.36,-1.31 3.54,-1.46 0.1,-0.08 0.17,-0.19 0.2,-0.3 0.05,-0.2 -0.1,-0.84 -0.43,-1.92l0.97 -0.36c0.54,1.59 0.98,2.85 1.33,3.77 0.55,1.46 1.07,2.78 1.57,3.97l-0.97 0.36c-0.43,-0.94 -0.71,-1.49 -0.85,-1.63 -0.09,-0.09 -0.18,-0.13 -0.3,-0.15 -0.18,-0.02 -0.65,0.09 -1.43,0.35 -1.15,0.39 -2.31,0.81 -3.48,1.24l-0.98 0.37c0.27,0.83 0.74,2.13 1.41,3.91 0.59,1.58 1.05,2.73 1.37,3.46 2.56,-0.95 4.26,-1.61 5.08,-1.98 0.44,-0.2 0.68,-0.38 0.74,-0.56 0.08,-0.24 -0.05,-0.88 -0.39,-1.94l0.97 -0.36c0.68,1.97 1.15,3.3 1.41,3.99 0.44,1.19 0.93,2.43 1.48,3.73l-0.97 0.36c-0.44,-0.98 -0.73,-1.55 -0.88,-1.68 -0.08,-0.08 -0.18,-0.12 -0.29,-0.13 -0.19,-0.01 -0.86,0.18 -1.99,0.57 -1.74,0.59 -3.14,1.09 -4.21,1.49l-5.36 2.08c-1.21,0.47 -1.89,0.77 -2.06,0.89 -0.16,0.12 -0.26,0.26 -0.29,0.41 -0.02,0.16 0.12,0.76 0.44,1.83l-0.97 0.36 -0.46 -1.32c-0.34,-0.99 -0.61,-1.76 -0.82,-2.32 -0.44,-1.16 -0.97,-2.52 -1.61,-4.08l0.97 -0.36c0.44,1.03 0.75,1.59 0.92,1.69 0.18,0.1 0.54,0.07 1.07,-0.1 0.92,-0.28 2.85,-0.97 5.8,-2.05 -0.33,-0.88 -0.7,-1.86 -1.1,-2.94 -0.63,-1.69 -1.2,-3.16 -1.71,-4.43l-0.78 0.29c-2.07,0.77 -3.62,1.38 -4.63,1.82 -0.68,0.3 -1.05,0.54 -1.11,0.74 -0.06,0.19 0.07,0.82 0.39,1.89l-0.97 0.36 -0.49 -1.41c-0.3,-0.89 -0.58,-1.68 -0.84,-2.38l-1.56 -3.96zm9 21.38c0.42,0.67 0.72,1.06 0.91,1.16 0.13,0.07 0.51,0.09 1.12,0.06 1.2,-0.08 2.85,-0.23 4.94,-0.47l11.73 -1.35 0.89 1.63 -9.15 11.5c-1.14,1.47 -1.74,2.32 -1.8,2.55 -0.06,0.23 0.1,0.75 0.47,1.56l-1 0.55c-0.61,-1.23 -1.21,-2.38 -1.8,-3.45 -0.7,-1.28 -1.39,-2.48 -2.07,-3.6l1 -0.55c0.52,0.86 0.84,1.34 0.98,1.44 0.13,0.1 0.28,0.11 0.44,0.02 0.14,-0.08 0.52,-0.49 1.15,-1.24l1.45 -1.74c-0.48,-0.92 -1.03,-1.94 -1.65,-3.07 -0.54,-0.98 -1.03,-1.87 -1.49,-2.66l-1.51 0.2c-0.41,0.05 -1.01,0.17 -1.78,0.35 -0.17,0.04 -0.32,0.09 -0.45,0.16 -0.17,0.09 -0.24,0.23 -0.23,0.41 0.01,0.18 0.22,0.74 0.64,1.67l-1 0.55c-0.35,-0.75 -0.82,-1.66 -1.41,-2.73 -0.56,-1.02 -1.03,-1.82 -1.4,-2.4l1 -0.55zm14.69 1.36l-6.97 0.79c0.34,0.69 0.74,1.45 1.18,2.27 0.47,0.85 0.93,1.66 1.39,2.43l4.4 -5.48zm-5.55 18.64l0.86 -0.57 0.46 0.6c0.37,0.49 0.67,0.75 0.9,0.78 0.23,0.03 0.79,-0.23 1.67,-0.78 1.76,-1.1 3.65,-2.33 5.66,-3.67 1.07,-0.71 2.29,-1.52 3.65,-2.44 0.82,-0.55 1.29,-0.94 1.42,-1.14 0.06,-0.1 0.09,-0.23 0.06,-0.38 -0.02,-0.15 -0.29,-0.69 -0.81,-1.61l0.86 -0.57c0.55,0.86 1.09,1.69 1.63,2.5 0.63,0.94 1.24,1.85 1.83,2.71 -0.64,0.97 -1.26,1.94 -1.87,2.93 -0.43,0.7 -2.23,3.72 -5.4,9.07 6.38,-0.79 11.01,-1.46 13.9,-2 0.52,0.87 1.02,1.68 1.53,2.44 0.59,0.89 1.18,1.73 1.77,2.53l-0.86 0.57c-0.67,-0.89 -1.1,-1.36 -1.29,-1.41 -0.19,-0.05 -0.57,0.09 -1.14,0.42 -0.91,0.54 -2.6,1.63 -5.07,3.28 -1.24,0.83 -2.56,1.71 -3.93,2.65 -1.37,0.94 -2.13,1.51 -2.27,1.71 -0.07,0.12 -0.11,0.24 -0.11,0.38 0,0.13 0.26,0.67 0.78,1.62l-0.86 0.57c-0.71,-1.16 -1.36,-2.19 -1.95,-3.08 -0.6,-0.9 -1.42,-2.1 -2.49,-3.61l0.86 -0.57 0.43 0.6c0.34,0.47 0.61,0.73 0.81,0.77 0.2,0.04 0.56,-0.08 1.08,-0.37 0.52,-0.3 1.7,-1.05 3.53,-2.27l6.34 -4.21c-2.89,0.36 -6.65,0.87 -11.28,1.52 -1.91,0.27 -3.44,0.52 -4.61,0.74l-0.45 -0.68c0.86,-1.33 1.92,-3.04 3.18,-5.15l5.08 -8.6 -1.43 0.95c-3.95,2.62 -6.66,4.44 -8.14,5.46 -0.59,0.42 -0.92,0.75 -0.96,0.99 -0.05,0.24 0.21,0.82 0.76,1.75l-0.86 0.57c-0.43,-0.74 -0.88,-1.47 -1.35,-2.18 -0.7,-1.06 -1.35,-1.99 -1.95,-2.79zm16.18 23.81l0.46 -0.37c0.52,0.19 0.95,0.31 1.29,0.36 0.97,-0.65 2.99,-2.22 6.09,-4.72 2.24,-1.81 3.8,-3.12 4.68,-3.94 0.48,-0.44 0.72,-0.74 0.72,-0.92 0.01,-0.25 -0.3,-0.81 -0.95,-1.69l0.8 -0.65 1.48 1.91 1.13 1.46c0.35,0.44 0.88,1.07 1.6,1.92 0.69,0.81 1.18,1.4 1.47,1.76 1.17,1.45 1.76,2.68 1.79,3.7 0.02,1.02 -0.39,1.87 -1.22,2.54 -0.86,0.7 -1.82,0.96 -2.86,0.78 -1.05,-0.18 -2.14,-0.74 -3.29,-1.68l-0.08 0.07c0.82,1.26 1.3,2.21 1.44,2.88 0.14,0.66 0.08,1.33 -0.19,2.02 -0.27,0.69 -0.72,1.29 -1.36,1.81 -0.78,0.63 -1.71,0.99 -2.79,1.08 -1.08,0.09 -2.12,-0.11 -3.11,-0.59 -1,-0.48 -2.07,-1.43 -3.21,-2.85 -0.23,-0.28 -0.56,-0.71 -0.99,-1.29 -0.4,-0.54 -0.74,-0.98 -1,-1.31 -0.3,-0.37 -0.94,-1.12 -1.92,-2.25zm11.15 -2.8l0.41 0.51c0.89,1.11 1.72,1.72 2.48,1.85 0.76,0.13 1.57,-0.16 2.42,-0.84 0.75,-0.6 1.15,-1.23 1.21,-1.88 0.06,-0.65 -0.25,-1.39 -0.92,-2.23 -0.25,-0.31 -0.58,-0.66 -0.99,-1.07 -2.04,1.59 -3.29,2.57 -3.74,2.94l-0.88 0.72zm-7 5.68c0.21,0.45 0.45,0.85 0.72,1.19 0.75,0.93 1.6,1.43 2.53,1.49 0.94,0.07 1.92,-0.32 2.96,-1.16 0.67,-0.54 1.13,-1.1 1.39,-1.68 0.24,-0.57 0.31,-1.14 0.2,-1.71 -0.11,-0.57 -0.46,-1.22 -1.05,-1.95l-0.81 -0.98 -0.26 0.21 -2.57 2.04 -2.56 2.1 -0.55 0.45zm7.73 11.75l0.47 -0.44c0.45,0.18 0.91,0.32 1.36,0.4 1.07,-0.79 3.13,-2.63 6.19,-5.54 2.08,-1.98 3.44,-3.32 4.08,-4.01 0.35,-0.36 0.52,-0.64 0.5,-0.84 -0.01,-0.2 -0.36,-0.72 -1.05,-1.59l0.75 -0.71c1.33,1.47 2.39,2.63 3.18,3.46l4.84 4.98c0.5,0.53 0.94,1.03 1.3,1.49l-0.04 0.16c-0.78,0.5 -1.75,1.24 -2.91,2.23l-0.69 -0.73c0.86,-0.87 1.3,-1.36 1.32,-1.46 0.02,-0.1 -0.05,-0.29 -0.22,-0.58 -0.37,-0.61 -1.05,-1.44 -2.05,-2.48 -0.49,-0.51 -1.07,-1.09 -1.76,-1.74 -1.97,1.73 -3.52,3.12 -4.66,4.17 0.58,0.69 1.14,1.32 1.69,1.89 0.8,0.85 1.32,1.33 1.53,1.45 0.13,0.07 0.29,0.06 0.47,-0.03 0.15,-0.07 0.57,-0.39 1.27,-0.97l0.75 0.79c-1.06,0.95 -1.75,1.58 -2.06,1.87l-2.02 2.01 -0.75 -0.79c0.76,-0.81 1.18,-1.3 1.23,-1.48 0.04,-0.11 0.01,-0.24 -0.08,-0.4 -0.22,-0.37 -0.84,-1.09 -1.86,-2.15 -0.32,-0.33 -0.71,-0.71 -1.18,-1.13 -0.34,0.3 -0.67,0.6 -1.01,0.92 -1.74,1.66 -3.06,2.97 -3.94,3.92l1.7 1.83c0.98,1.03 1.93,1.92 2.86,2.67 0.7,-0.38 1.48,-0.85 2.32,-1.38l0.73 0.77c-1.22,0.89 -2.34,1.8 -3.36,2.73 -0.57,-0.52 -1.09,-1.04 -1.58,-1.55 -0.32,-0.33 -0.94,-1 -1.85,-2.01 -0.86,-0.94 -1.65,-1.8 -2.39,-2.57 -0.97,-1.02 -2.01,-2.07 -3.11,-3.16zm11.65 12.03l0.69 -0.77c0.79,0.58 1.25,0.89 1.42,0.93 0.1,0.02 0.21,0.01 0.31,-0.05 0.2,-0.09 0.7,-0.56 1.49,-1.42 1.23,-1.32 2.19,-2.37 2.88,-3.14 0.93,-1.05 2.1,-2.39 3.51,-4.03 1.04,-1.23 1.64,-2.02 1.79,-2.37 0.05,-0.1 0.05,-0.21 0.01,-0.32 -0.04,-0.15 -0.39,-0.58 -1.03,-1.29l0.69 -0.77c1.27,1.19 2.09,1.96 2.47,2.29l4.78 4.14c1.02,0.91 1.68,1.67 1.98,2.29 0.29,0.61 0.38,1.26 0.27,1.94 -0.11,0.68 -0.43,1.31 -0.96,1.9 -0.67,0.75 -1.47,1.22 -2.41,1.4 -0.94,0.18 -2.15,0.01 -3.62,-0.51l-0.7 4.82 -0.5 3.71c-0.04,0.65 -0.02,1.07 0.06,1.28 0.07,0.21 0.27,0.46 0.6,0.76l-0.63 0.72 -0.56 -0.48c-1.61,-1.41 -2.64,-2.3 -3.12,-2.69 0.23,-1.36 0.54,-3.36 0.92,-5.99l0.68 -4.68c0.15,-0.05 0.29,-0.12 0.44,-0.21 0.23,0.25 0.4,0.43 0.53,0.54 0.59,0.52 1.37,0.8 2.36,0.83 0.99,0.03 1.87,-0.39 2.65,-1.26 0.68,-0.76 0.98,-1.55 0.9,-2.37 -0.08,-0.82 -0.56,-1.63 -1.46,-2.43 -0.29,-0.25 -0.69,-0.58 -1.21,-0.97l-2.54 2.74 -3.22 3.47c-0.71,0.8 -1.59,1.85 -2.64,3.16 -0.78,0.99 -1.2,1.56 -1.26,1.71 -0.04,0.12 -0.02,0.24 0.03,0.38 0.06,0.19 0.44,0.63 1.12,1.3l-0.69 0.77c-1.09,-1.04 -2.08,-1.95 -2.95,-2.72 -0.93,-0.83 -1.94,-1.69 -3.04,-2.6zm27.65 24.03c-2.54,-1.79 -4.02,-3.8 -4.46,-6.05 -0.43,-2.25 0.16,-4.52 1.76,-6.8 1.12,-1.59 2.4,-2.72 3.84,-3.38 1.44,-0.66 2.95,-0.88 4.53,-0.66 1.58,0.22 3.28,0.97 5.11,2.25 1.75,1.23 2.98,2.53 3.7,3.89 0.71,1.36 1.01,2.76 0.89,4.2 -0.12,1.44 -0.7,2.91 -1.74,4.39 -1.13,1.61 -2.44,2.77 -3.92,3.48 -1.49,0.71 -3.05,0.96 -4.71,0.76 -1.65,-0.2 -3.32,-0.89 -4.99,-2.07zm1.18 -0.84c1.39,0.98 2.85,1.24 4.39,0.8 1.55,-0.44 3.05,-1.7 4.51,-3.78 1.54,-2.19 2.25,-4.2 2.12,-6.03 -0.11,-1.48 -0.95,-2.78 -2.55,-3.9 -1.49,-1.05 -2.99,-1.37 -4.5,-0.96 -1.51,0.41 -2.98,1.63 -4.42,3.67 -1.03,1.47 -1.68,2.87 -1.96,4.21 -0.27,1.34 -0.22,2.48 0.16,3.41 0.38,0.94 1.12,1.8 2.23,2.58zm10.51 7.98l0.52 -0.89c0.92,0.52 1.5,0.76 1.73,0.72 0.16,-0.02 0.38,-0.24 0.65,-0.66 0.91,-1.37 1.9,-2.99 2.98,-4.86 0.8,-1.38 1.63,-2.87 2.51,-4.47 0.88,-1.6 1.35,-2.55 1.4,-2.84 0.02,-0.14 0,-0.25 -0.05,-0.34 -0.08,-0.15 -0.55,-0.51 -1.41,-1.08l0.52 -0.89c1.24,0.78 2.32,1.43 3.24,1.96 1.33,0.77 2.74,1.57 4.22,2.39 0.98,0.54 1.79,1 2.45,1.38 0.47,0.27 0.92,0.55 1.33,0.83l-0.02 0.29c-0.68,0.82 -1.4,1.84 -2.15,3.05l-0.94 -0.54 0.59 -1.22c0.19,-0.39 0.28,-0.64 0.25,-0.77 -0.03,-0.13 -0.25,-0.37 -0.65,-0.72 -0.41,-0.35 -1.04,-0.77 -1.89,-1.26 -0.63,-0.36 -1.3,-0.72 -2.03,-1.08 -0.8,1.19 -1.34,2.03 -1.64,2.55l-1.34 2.37 -0.3 0.5c0.43,0.27 0.95,0.58 1.56,0.93 1.11,0.64 1.79,1 2.05,1.08 0.13,0.04 0.25,0.03 0.35,-0.03 0.17,-0.11 0.5,-0.53 0.99,-1.27l0.94 0.54c-0.39,0.63 -0.78,1.27 -1.14,1.9 -0.35,0.6 -0.89,1.56 -1.62,2.89l-0.94 -0.54c0.48,-0.97 0.73,-1.56 0.74,-1.76 0,-0.11 -0.05,-0.23 -0.17,-0.34 -0.3,-0.3 -0.98,-0.75 -2.04,-1.37l-1.44 -0.8 -2.38 4.23c-0.56,1.03 -0.85,1.65 -0.87,1.85 -0.01,0.13 0.02,0.25 0.1,0.36 0.1,0.16 0.68,0.58 1.72,1.26l-0.52 0.89c-1.14,-0.72 -2.22,-1.37 -3.24,-1.96 -0.9,-0.52 -2.26,-1.28 -4.07,-2.26zm36.02 15.58l0.16 0.4c-0.38,0.29 -0.73,0.59 -1.07,0.91 -1.1,0.03 -2.11,-0.05 -3.01,-0.26 -0.91,-0.2 -1.89,-0.56 -2.95,-1.07 -1.99,-0.96 -3.5,-2.12 -4.54,-3.47 -1.04,-1.36 -1.62,-2.85 -1.75,-4.47 -0.13,-1.62 0.2,-3.25 0.99,-4.88 1.13,-2.35 2.9,-3.88 5.29,-4.58 2.4,-0.7 5.06,-0.33 8,1.08 0.98,0.47 1.9,1.02 2.78,1.66 0.88,0.64 1.7,1.36 2.47,2.17l-0 0.21c-0.33,0.35 -0.62,0.69 -0.85,1.05 -0.42,0.61 -0.89,1.39 -1.41,2.34l-0.98 -0.47c0.53,-1.22 0.8,-1.9 0.82,-2.04 0.01,-0.14 -0.1,-0.44 -0.33,-0.9 -0.23,-0.47 -0.62,-0.94 -1.17,-1.42 -0.55,-0.48 -1.2,-0.91 -1.96,-1.28 -1.82,-0.88 -3.54,-1.01 -5.15,-0.41 -1.61,0.6 -2.9,1.91 -3.87,3.91 -1.05,2.17 -1.24,4.23 -0.6,6.2 0.59,1.82 1.93,3.23 4.01,4.23 0.81,0.39 1.6,0.67 2.38,0.84 0.78,0.17 1.7,0.26 2.75,0.25zm11.69 6.73c-2.94,-0.99 -4.94,-2.5 -6,-4.53 -1.05,-2.04 -1.14,-4.37 -0.25,-7.02 0.62,-1.85 1.53,-3.29 2.72,-4.33 1.2,-1.04 2.58,-1.68 4.15,-1.92 1.58,-0.24 3.42,-0.01 5.54,0.7 2.03,0.68 3.58,1.57 4.65,2.68 1.07,1.1 1.75,2.35 2.05,3.77 0.3,1.42 0.16,2.99 -0.42,4.71 -0.63,1.87 -1.55,3.35 -2.77,4.45 -1.22,1.1 -2.65,1.79 -4.29,2.07 -1.64,0.28 -3.44,0.09 -5.38,-0.56zm0.89 -1.14c1.61,0.54 3.09,0.38 4.44,-0.48 1.36,-0.86 2.44,-2.5 3.25,-4.91 0.85,-2.53 0.96,-4.66 0.32,-6.39 -0.52,-1.39 -1.71,-2.39 -3.55,-3.02 -1.73,-0.58 -3.26,-0.46 -4.59,0.36 -1.33,0.82 -2.4,2.41 -3.19,4.78 -0.57,1.7 -0.8,3.23 -0.68,4.59 0.13,1.36 0.5,2.43 1.13,3.23 0.63,0.79 1.59,1.41 2.88,1.84zm12.14 4.96l0.21 -1.01 0.75 0.1c0.61,0.09 1,0.06 1.19,-0.09 0.19,-0.14 0.4,-0.72 0.63,-1.73 0.47,-2.02 0.95,-4.22 1.43,-6.59 0.26,-1.26 0.55,-2.7 0.87,-4.3 0.19,-0.97 0.26,-1.58 0.2,-1.81 -0.03,-0.12 -0.1,-0.22 -0.22,-0.31 -0.12,-0.09 -0.69,-0.28 -1.71,-0.57l0.21 -1.01c0.99,0.22 1.96,0.43 2.92,0.63 1.11,0.23 2.18,0.44 3.21,0.63 0.23,1.14 0.48,2.27 0.74,3.39 0.19,0.8 1.04,4.21 2.56,10.24 3.97,-5.05 6.78,-8.79 8.45,-11.22 0.98,0.25 1.91,0.47 2.81,0.65 1.05,0.21 2.06,0.4 3.04,0.54l-0.21 1.01c-1.11,-0.16 -1.74,-0.19 -1.91,-0.09 -0.17,0.1 -0.34,0.46 -0.51,1.1 -0.26,1.03 -0.69,3 -1.29,5.9 -0.3,1.46 -0.61,3.02 -0.91,4.65 -0.31,1.64 -0.44,2.57 -0.41,2.81 0.03,0.14 0.09,0.25 0.19,0.34 0.1,0.09 0.66,0.29 1.7,0.6l-0.21 1.01c-1.32,-0.32 -2.51,-0.59 -3.56,-0.81 -1.05,-0.22 -2.49,-0.48 -4.31,-0.81l0.21 -1.01 0.73 0.12c0.57,0.09 0.95,0.09 1.12,-0.02 0.17,-0.11 0.34,-0.45 0.5,-1.03 0.16,-0.58 0.46,-1.94 0.9,-4.1l1.53 -7.46c-1.8,2.29 -4.11,5.3 -6.93,9.03 -1.16,1.54 -2.08,2.79 -2.75,3.77l-0.8 -0.16c-0.33,-1.55 -0.79,-3.51 -1.37,-5.89l-2.46 -9.68 -0.34 1.68c-0.95,4.65 -1.59,7.85 -1.92,9.61 -0.12,0.72 -0.12,1.18 0.01,1.38 0.13,0.2 0.72,0.43 1.78,0.7l-0.21 1.01c-0.82,-0.22 -1.66,-0.42 -2.49,-0.59 -1.25,-0.26 -2.36,-0.46 -3.35,-0.61zm27.13 5.76l0.05 -1.03 0.76 -0.01c0.61,-0 1,-0.09 1.16,-0.26 0.16,-0.17 0.29,-0.77 0.37,-1.8 0.16,-2.07 0.31,-4.32 0.44,-6.73 0.07,-1.28 0.14,-2.75 0.22,-4.38 0.04,-0.99 0.02,-1.6 -0.07,-1.82 -0.05,-0.11 -0.13,-0.21 -0.27,-0.28 -0.13,-0.08 -0.72,-0.18 -1.78,-0.31l0.06 -1.03c1.01,0.07 2.01,0.13 2.98,0.18 1.13,0.06 2.22,0.11 3.27,0.15 0.39,1.09 0.81,2.17 1.24,3.25 0.3,0.76 1.66,4.01 4.06,9.74 3.17,-5.59 5.4,-9.71 6.69,-12.35 1.01,0.11 1.96,0.18 2.87,0.23 1.07,0.06 2.09,0.09 3.09,0.09l-0.06 1.03c-1.12,0.01 -1.75,0.08 -1.9,0.19 -0.15,0.12 -0.26,0.51 -0.34,1.16 -0.11,1.06 -0.24,3.07 -0.4,6.03 -0.08,1.49 -0.15,3.07 -0.21,4.73 -0.06,1.67 -0.06,2.61 0.02,2.84 0.05,0.13 0.13,0.24 0.24,0.31 0.11,0.07 0.7,0.19 1.77,0.34l-0.05 1.03c-1.36,-0.12 -2.57,-0.21 -3.64,-0.27 -1.07,-0.06 -2.53,-0.11 -4.38,-0.16l0.05 -1.03 0.74 0.01c0.58,0 0.95,-0.06 1.1,-0.19 0.15,-0.13 0.27,-0.49 0.34,-1.09 0.07,-0.6 0.17,-1.99 0.28,-4.19l0.41 -7.6c-1.44,2.53 -3.27,5.85 -5.51,9.96 -0.92,1.69 -1.64,3.07 -2.16,4.14l-0.82 -0.04c-0.55,-1.48 -1.3,-3.35 -2.24,-5.62l-3.87 -9.21 -0.09 1.71c-0.25,4.74 -0.41,8 -0.47,9.79 -0.01,0.73 0.06,1.18 0.22,1.36 0.16,0.18 0.78,0.32 1.86,0.43l-0.06 1.03c-0.85,-0.1 -1.7,-0.17 -2.55,-0.21 -1.27,-0.07 -2.4,-0.1 -3.4,-0.1zm28.55 1.71l-0.03 -0.65c0.44,-0.22 0.83,-0.48 1.19,-0.76 0.11,-1.32 0.07,-4.09 -0.11,-8.31 -0.12,-2.87 -0.23,-4.78 -0.33,-5.71 -0.04,-0.5 -0.14,-0.81 -0.3,-0.93 -0.15,-0.12 -0.78,-0.21 -1.88,-0.26l-0.04 -1.03c1.98,-0.03 3.55,-0.07 4.7,-0.12l6.94 -0.37c0.73,-0.03 1.39,-0.03 1.98,0l0.1 0.14c-0.14,0.92 -0.22,2.14 -0.23,3.66l-1.01 0.04c-0.1,-1.22 -0.17,-1.87 -0.23,-1.96 -0.06,-0.08 -0.25,-0.15 -0.58,-0.21 -0.71,-0.12 -1.78,-0.15 -3.22,-0.09 -0.71,0.03 -1.53,0.09 -2.47,0.18 0.01,2.62 0.04,4.7 0.09,6.25 0.9,0.01 1.75,0 2.53,-0.03 1.17,-0.05 1.87,-0.12 2.1,-0.2 0.14,-0.06 0.23,-0.18 0.29,-0.38 0.04,-0.15 0.08,-0.68 0.11,-1.59l1.08 -0.05c0.02,1.42 0.04,2.35 0.05,2.79l0.19 2.84 -1.08 0.05c-0.11,-1.11 -0.21,-1.74 -0.31,-1.9 -0.06,-0.1 -0.17,-0.17 -0.35,-0.21 -0.42,-0.07 -1.37,-0.08 -2.84,-0.02 -0.46,0.02 -1,0.07 -1.62,0.15 0,0.45 0.01,0.9 0.03,1.36 0.1,2.4 0.22,4.26 0.37,5.55l2.5 -0.08c1.42,-0.06 2.72,-0.19 3.89,-0.4 0.17,-0.78 0.33,-1.67 0.48,-2.66l1.06 -0.04c-0.13,1.5 -0.18,2.95 -0.15,4.32 -0.76,0.09 -1.5,0.14 -2.2,0.17 -0.46,0.02 -1.37,0.05 -2.73,0.08 -1.27,0.03 -2.44,0.07 -3.51,0.11 -1.4,0.06 -2.88,0.15 -4.43,0.27zm16.73 -0.73l-0.05 -1.03c0.97,-0.14 1.52,-0.24 1.66,-0.33 0.09,-0.06 0.15,-0.14 0.18,-0.25 0.08,-0.21 0.1,-0.89 0.07,-2.06 -0.05,-1.8 -0.1,-3.22 -0.16,-4.26 -0.07,-1.4 -0.18,-3.18 -0.33,-5.33 -0.12,-1.61 -0.25,-2.59 -0.39,-2.94 -0.04,-0.11 -0.11,-0.19 -0.22,-0.24 -0.14,-0.08 -0.68,-0.15 -1.64,-0.2l-0.05 -1.03c1.74,-0.04 2.86,-0.07 3.37,-0.1l6.31 -0.41c1.37,-0.07 2.37,0.01 3.01,0.24 0.64,0.23 1.16,0.63 1.55,1.19 0.4,0.57 0.61,1.24 0.65,2.03 0.05,1.01 -0.19,1.9 -0.74,2.69 -0.54,0.79 -1.52,1.52 -2.93,2.18l2.89 3.92 2.25 3c0.43,0.49 0.74,0.78 0.94,0.87 0.2,0.1 0.52,0.14 0.96,0.12l0.05 0.95 -0.74 0.05c-2.13,0.12 -3.5,0.22 -4.11,0.28 -0.79,-1.13 -1.97,-2.77 -3.55,-4.91l-2.8 -3.81c0.07,-0.15 0.12,-0.3 0.17,-0.45 0.34,0.02 0.59,0.02 0.75,0.01 0.78,-0.04 1.54,-0.4 2.26,-1.07 0.73,-0.67 1.06,-1.59 1,-2.76 -0.05,-1.02 -0.4,-1.79 -1.03,-2.32 -0.63,-0.53 -1.55,-0.77 -2.75,-0.71 -0.38,0.02 -0.9,0.07 -1.55,0.16l0.12 3.73 0.14 4.73c0.06,1.07 0.17,2.44 0.34,4.1 0.13,1.25 0.24,1.95 0.31,2.1 0.06,0.11 0.15,0.19 0.29,0.25 0.18,0.09 0.75,0.14 1.71,0.14l0.05 1.03c-1.51,0.03 -2.85,0.07 -4.01,0.13 -1.24,0.07 -2.57,0.16 -3.99,0.29zm36 -8.35l0.37 0.21c-0.12,0.46 -0.21,0.92 -0.27,1.38 -0.84,0.71 -1.68,1.27 -2.51,1.68 -0.83,0.41 -1.83,0.74 -2.98,1 -2.15,0.49 -4.06,0.53 -5.71,0.12 -1.66,-0.41 -3.05,-1.22 -4.16,-2.4 -1.11,-1.19 -1.87,-2.66 -2.27,-4.44 -0.58,-2.55 -0.15,-4.84 1.28,-6.88 1.44,-2.04 3.75,-3.42 6.93,-4.15 1.06,-0.24 2.12,-0.39 3.2,-0.44 1.08,-0.05 2.18,0.01 3.29,0.15l0.13 0.16c-0.04,0.48 -0.05,0.93 -0.01,1.35 0.05,0.74 0.18,1.64 0.36,2.71l-1.06 0.24c-0.35,-1.28 -0.55,-1.98 -0.63,-2.1 -0.08,-0.11 -0.36,-0.28 -0.82,-0.5 -0.47,-0.22 -1.07,-0.34 -1.8,-0.38 -0.73,-0.04 -1.5,0.04 -2.33,0.23 -1.97,0.45 -3.39,1.41 -4.28,2.89 -0.89,1.48 -1.08,3.3 -0.59,5.47 0.54,2.35 1.67,4.08 3.4,5.22 1.6,1.05 3.52,1.32 5.77,0.81 0.87,-0.2 1.67,-0.47 2.39,-0.83 0.72,-0.35 1.49,-0.86 2.31,-1.52zm5.41 2.77l-0.22 -0.61c0.35,-0.34 0.66,-0.7 0.91,-1.08 -0.28,-1.3 -1.13,-3.93 -2.54,-7.91 -0.96,-2.71 -1.63,-4.5 -2,-5.36 -0.19,-0.46 -0.37,-0.73 -0.56,-0.8 -0.18,-0.07 -0.81,0.03 -1.88,0.31l-0.35 -0.97c1.89,-0.62 3.37,-1.12 4.46,-1.5l6.52 -2.4c0.69,-0.24 1.32,-0.44 1.89,-0.58l0.13 0.1c0.14,0.92 0.42,2.11 0.85,3.57l-0.95 0.34c-0.45,-1.14 -0.71,-1.74 -0.79,-1.8 -0.08,-0.06 -0.29,-0.07 -0.62,-0.03 -0.71,0.09 -1.74,0.38 -3.1,0.86 -0.67,0.24 -1.44,0.54 -2.31,0.9 0.78,2.5 1.42,4.48 1.92,5.95 0.86,-0.25 1.67,-0.51 2.41,-0.77 1.1,-0.39 1.75,-0.66 1.95,-0.81 0.12,-0.1 0.17,-0.24 0.16,-0.45 -0,-0.16 -0.13,-0.68 -0.37,-1.56l1.02 -0.36c0.44,1.36 0.73,2.24 0.87,2.65l1.01 2.66 -1.02 0.36c-0.43,-1.03 -0.71,-1.6 -0.86,-1.73 -0.08,-0.08 -0.21,-0.11 -0.39,-0.09 -0.43,0.06 -1.34,0.33 -2.72,0.82 -0.43,0.15 -0.94,0.36 -1.51,0.62 0.13,0.43 0.28,0.86 0.43,1.29 0.81,2.27 1.47,4 1.98,5.19l2.37 -0.81c1.34,-0.48 2.54,-0.98 3.6,-1.52 -0.06,-0.8 -0.17,-1.69 -0.32,-2.68l1 -0.35c0.32,1.48 0.7,2.87 1.13,4.18 -0.7,0.3 -1.39,0.58 -2.05,0.81 -0.43,0.15 -1.3,0.45 -2.59,0.88 -1.21,0.4 -2.31,0.78 -3.32,1.14 -1.32,0.47 -2.71,0.99 -4.16,1.56z"/>
    <path class="fil4" d="M329.41 467.12c0.71,-0.35 1.13,-0.61 1.25,-0.79 0.08,-0.12 0.14,-0.49 0.17,-1.11 0.05,-1.21 0.06,-2.86 0.04,-4.96l-0.15 -11.8 1.71 -0.72 10.51 10.26c1.35,1.29 2.13,1.97 2.35,2.05 0.22,0.08 0.75,-0.02 1.6,-0.31l0.44 1.05c-1.28,0.49 -2.49,0.97 -3.61,1.44 -1.34,0.57 -2.61,1.13 -3.8,1.69l-0.44 -1.05c0.91,-0.43 1.42,-0.7 1.53,-0.83 0.12,-0.12 0.14,-0.27 0.07,-0.44 -0.06,-0.15 -0.43,-0.57 -1.11,-1.27l-1.59 -1.62c-0.97,0.39 -2.04,0.83 -3.22,1.33 -1.03,0.43 -1.96,0.84 -2.79,1.21l0.04 1.52c0.01,0.42 0.07,1.02 0.17,1.81 0.02,0.18 0.06,0.33 0.11,0.46 0.07,0.17 0.2,0.27 0.38,0.27 0.18,0.01 0.76,-0.15 1.72,-0.47l0.44 1.05c-0.78,0.27 -1.73,0.65 -2.86,1.13 -1.07,0.45 -1.92,0.84 -2.53,1.15l-0.44 -1.05zm2.85 -14.47l0.07 7.01c0.72,-0.27 1.52,-0.58 2.38,-0.95 0.9,-0.38 1.75,-0.76 2.55,-1.13l-5 -4.93zm17.64 6.56l-0.42 -0.95c0.92,-0.45 1.44,-0.76 1.56,-0.91 0.08,-0.11 0.11,-0.24 0.11,-0.4 0,-0.22 -0.23,-0.9 -0.71,-2.03 -0.77,-1.87 -1.37,-3.28 -1.79,-4.22l-2.19 -4.89c-0.57,-1.3 -0.94,-2.03 -1.12,-2.19 -0.09,-0.1 -0.21,-0.15 -0.33,-0.16 -0.2,-0.03 -0.81,0.14 -1.85,0.5l-0.42 -0.94c1.22,-0.48 2.12,-0.85 2.69,-1.1 0.64,-0.28 1.35,-0.63 2.14,-1.03 2.78,1.48 5.87,3.05 9.28,4.72 2.27,1.11 4.2,2.01 5.8,2.69l-2.03 -4.59c-0.77,-1.74 -1.45,-3.23 -2.03,-4.48 -0.36,-0.73 -0.62,-1.17 -0.79,-1.3 -0.09,-0.07 -0.2,-0.1 -0.34,-0.09 -0.14,0.02 -0.71,0.2 -1.69,0.55l-0.42 -0.95c0.86,-0.32 1.7,-0.66 2.53,-1.03 1.13,-0.5 2.15,-0.98 3.05,-1.43l0.42 0.95c-0.83,0.43 -1.32,0.72 -1.47,0.87 -0.08,0.09 -0.14,0.17 -0.17,0.27 -0.03,0.1 -0.04,0.2 -0.02,0.33 0.03,0.21 0.26,0.81 0.7,1.82l2.01 4.64 2.03 4.67c0.55,1.25 1.13,2.49 1.73,3.72l-0.08 0.23c-1.01,0.24 -1.72,0.42 -2.13,0.54 -2.94,-1.32 -6.54,-3.02 -10.8,-5.09 -2.15,-1.05 -3.91,-1.96 -5.29,-2.72l1.98 4.49c0.54,1.22 1.2,2.69 2,4.39 0.58,1.26 0.96,1.97 1.13,2.12 0.07,0.07 0.15,0.11 0.26,0.12 0.18,0.02 0.77,-0.15 1.76,-0.5l0.42 0.95c-1.26,0.5 -2.15,0.87 -2.68,1.1 -0.45,0.2 -1.38,0.64 -2.82,1.33zm21.27 -11.48l-0.34 -0.55c0.32,-0.59 0.54,-1.02 0.67,-1.3 -0.67,-1.32 -2.07,-3.71 -4.18,-7.16 -0.91,-1.49 -1.7,-2.74 -2.35,-3.72 -0.65,-0.99 -1.05,-1.53 -1.2,-1.63 -0.07,-0.05 -0.15,-0.08 -0.24,-0.08 -0.14,0.01 -0.72,0.24 -1.72,0.7l-0.57 -0.92c1.11,-0.62 2.36,-1.36 3.77,-2.22l5.25 -3.31c1.93,-1.18 3.54,-1.84 4.84,-1.96 1.3,-0.12 2.55,0.13 3.75,0.78 1.2,0.64 2.24,1.68 3.12,3.11 1.13,1.84 1.64,3.71 1.54,5.61 -0.1,1.9 -0.64,3.53 -1.61,4.91 -0.97,1.37 -2.21,2.52 -3.71,3.44l-4.12 2.43c-0.65,0.4 -1.62,1.02 -2.91,1.87zm3.55 -3.99c0.67,-0.27 1.32,-0.59 1.95,-0.98 1.6,-0.98 2.69,-1.96 3.25,-2.93 0.56,-0.97 0.78,-2.14 0.67,-3.5 -0.12,-1.36 -0.64,-2.8 -1.57,-4.31 -1.22,-2 -2.67,-3.2 -4.35,-3.61 -1.48,-0.37 -3.26,0.08 -5.33,1.35 -0.45,0.28 -1.2,0.78 -2.25,1.53l4.01 6.75c1.72,2.82 2.93,4.72 3.62,5.72zm20.48 -12.13l-0.7 -0.76c0.8,-0.81 1.21,-1.32 1.22,-1.52 0.02,-0.2 -0.14,-0.5 -0.48,-0.92 -0.7,-0.87 -2.08,-2.42 -4.13,-4.66 -0.78,-0.86 -1.94,-2.09 -3.46,-3.7 -1.03,-1.1 -1.61,-1.69 -1.75,-1.76 -0.13,-0.08 -0.27,-0.1 -0.41,-0.06 -0.2,0.06 -0.72,0.42 -1.56,1.1l-0.7 -0.76c1.3,-1.12 2.29,-1.99 2.96,-2.6 1.15,-1.06 2.18,-2.03 3.08,-2.93l0.7 0.76c-0.79,0.82 -1.2,1.31 -1.23,1.49 -0.03,0.18 0.08,0.44 0.33,0.77 0.5,0.64 1.58,1.88 3.25,3.7 2.22,2.42 3.78,4.11 4.68,5.05 0.89,0.94 1.47,1.45 1.72,1.55 0.11,0.05 0.25,0.04 0.41,-0.02 0.16,-0.06 0.63,-0.4 1.4,-1.02l0.7 0.76 -1.11 0.97c-0.71,0.61 -1.33,1.16 -1.87,1.66l-3.05 2.9zm8.57 -8.15l-0.64 -0.81c0.78,-0.67 1.2,-1.09 1.29,-1.27 0.05,-0.13 0.05,-0.26 0,-0.42 -0.05,-0.22 -0.45,-0.81 -1.19,-1.79 -1.21,-1.62 -2.14,-2.83 -2.78,-3.64l-3.33 -4.19c-0.88,-1.11 -1.42,-1.73 -1.63,-1.84 -0.11,-0.07 -0.24,-0.09 -0.36,-0.07 -0.2,0.02 -0.75,0.34 -1.67,0.94l-0.64 -0.81c1.06,-0.77 1.84,-1.35 2.33,-1.74 0.55,-0.43 1.15,-0.94 1.82,-1.53 3.06,0.74 6.45,1.5 10.16,2.26 2.48,0.51 4.57,0.9 6.29,1.17l-3.1 -3.94c-1.18,-1.5 -2.2,-2.77 -3.08,-3.83 -0.53,-0.62 -0.89,-0.98 -1.09,-1.06 -0.1,-0.05 -0.22,-0.05 -0.35,0 -0.13,0.05 -0.63,0.37 -1.5,0.96l-0.64 -0.81c0.75,-0.52 1.48,-1.07 2.19,-1.63 0.97,-0.77 1.84,-1.48 2.6,-2.14l0.64 0.81c-0.7,0.63 -1.1,1.03 -1.2,1.21 -0.06,0.1 -0.09,0.2 -0.1,0.3 -0,0.1 0.02,0.21 0.06,0.32 0.08,0.19 0.45,0.72 1.13,1.59l3.1 4 3.13 4.02c0.85,1.08 1.71,2.13 2.59,3.17l-0.02 0.24c-0.92,0.49 -1.56,0.84 -1.93,1.05 -3.18,-0.54 -7.09,-1.3 -11.73,-2.25 -2.35,-0.48 -4.28,-0.93 -5.8,-1.32l3.03 3.85c0.83,1.05 1.83,2.3 3.03,3.76 0.88,1.07 1.42,1.67 1.62,1.77 0.08,0.05 0.18,0.07 0.28,0.05 0.18,-0.02 0.71,-0.33 1.58,-0.92l0.64 0.81c-1.09,0.8 -1.87,1.37 -2.33,1.73 -0.38,0.3 -1.18,0.96 -2.4,1.99zm17.75 -16.4l-0.49 -0.42c0.12,-0.66 0.2,-1.14 0.23,-1.44 -1.05,-1.04 -3.12,-2.87 -6.22,-5.49 -1.34,-1.13 -2.47,-2.07 -3.39,-2.8 -0.93,-0.73 -1.47,-1.12 -1.65,-1.18 -0.08,-0.03 -0.17,-0.03 -0.25,0 -0.13,0.05 -0.6,0.45 -1.41,1.21l-0.83 -0.7c0.86,-0.94 1.82,-2.03 2.88,-3.29l3.95 -4.79c1.46,-1.73 2.79,-2.85 3.98,-3.38 1.19,-0.52 2.46,-0.67 3.81,-0.43 1.34,0.23 2.66,0.89 3.94,1.98 1.65,1.4 2.72,3.01 3.22,4.84 0.5,1.83 0.5,3.55 0.01,5.17 -0.49,1.61 -1.31,3.08 -2.44,4.43l-3.15 3.6c-0.5,0.59 -1.22,1.48 -2.17,2.69zm2.12 -4.9c0.55,-0.46 1.06,-0.98 1.54,-1.54 1.22,-1.44 1.94,-2.7 2.16,-3.8 0.23,-1.1 0.07,-2.28 -0.47,-3.53 -0.53,-1.25 -1.48,-2.46 -2.84,-3.61 -1.79,-1.51 -3.54,-2.2 -5.26,-2.07 -1.52,0.12 -3.07,1.1 -4.64,2.95 -0.34,0.4 -0.89,1.12 -1.66,2.16l5.93 5.15c2.52,2.13 4.26,3.56 5.23,4.29zm-1.88 -21.67l-0.86 -0.58c1,-1.39 1.86,-2.63 2.59,-3.7 0.46,-0.68 1.09,-1.66 1.88,-2.94l0.86 0.58c-0.43,0.64 -0.68,1.13 -0.75,1.47 -0.03,0.12 -0.02,0.23 0.03,0.34 0.04,0.14 0.17,0.3 0.39,0.49 0.36,0.3 1.47,1.1 3.31,2.37 1.28,0.88 2.59,1.78 3.93,2.67 1.1,0.74 1.99,1.16 2.67,1.25 0.68,0.1 1.31,-0.01 1.88,-0.33 0.82,-0.45 1.51,-1.09 2.06,-1.91 0.75,-1.12 1.14,-2.1 1.17,-2.94 0.03,-0.84 -0.21,-1.58 -0.73,-2.22 -0.51,-0.64 -1.87,-1.7 -4.06,-3.17l-3.89 -2.6c-0.88,-0.58 -1.43,-0.89 -1.66,-0.93 -0.13,-0.02 -0.25,-0 -0.37,0.07 -0.21,0.1 -0.63,0.56 -1.26,1.37l-0.86 -0.58c0.65,-0.87 1.23,-1.7 1.75,-2.46 0.44,-0.66 0.97,-1.48 1.57,-2.47l0.86 0.58c-0.47,0.69 -0.68,1.18 -0.64,1.45 0.04,0.27 0.37,0.64 0.98,1.11 1.51,1.13 3.25,2.37 5.23,3.7 1.26,0.85 2.08,1.42 2.46,1.71 0.91,0.72 1.58,1.51 2,2.36 0.42,0.85 0.54,1.87 0.37,3.08 -0.17,1.2 -0.71,2.48 -1.61,3.83 -0.94,1.4 -1.94,2.42 -2.98,3.07 -1.05,0.65 -2.02,0.95 -2.92,0.91 -0.9,-0.04 -1.97,-0.47 -3.21,-1.31l-4.69 -3.22c-0.37,-0.25 -1.35,-0.88 -2.91,-1.9 -0.49,-0.31 -0.86,-0.48 -1.09,-0.51 -0.14,-0.01 -0.27,0.02 -0.4,0.1 -0.13,0.08 -0.5,0.48 -1.09,1.22zm22.01 -12.33l0.52 -0.95c1.09,0.59 1.76,0.91 1.98,0.95 0.22,0.04 0.59,-0.04 1.09,-0.23 0.5,-0.2 1.01,-0.53 1.52,-1 0.51,-0.47 0.93,-1.01 1.26,-1.62 0.57,-1.04 0.75,-2.02 0.54,-2.95 -0.21,-0.93 -0.73,-1.62 -1.55,-2.07 -0.76,-0.42 -1.46,-0.53 -2.09,-0.34 -0.64,0.2 -1.36,0.83 -2.17,1.92 -1.2,1.6 -2.12,2.63 -2.75,3.07 -0.63,0.45 -1.33,0.68 -2.11,0.71 -0.78,0.03 -1.59,-0.19 -2.41,-0.64 -1.39,-0.76 -2.3,-1.89 -2.72,-3.39 -0.43,-1.51 -0.05,-3.32 1.12,-5.47 0.46,-0.84 0.93,-1.55 1.41,-2.13 0.48,-0.58 1.05,-1.12 1.69,-1.62l0.33 0.04c0.4,0.38 0.77,0.69 1.13,0.95 0.35,0.25 0.97,0.65 1.87,1.2l-0.52 0.95c-1.16,-0.59 -1.82,-0.88 -2,-0.88 -0.32,0.01 -0.77,0.22 -1.35,0.64 -0.58,0.42 -1.07,1 -1.48,1.73 -0.55,1.01 -0.74,1.92 -0.55,2.75 0.19,0.82 0.66,1.45 1.44,1.87 0.47,0.26 0.95,0.37 1.42,0.33 0.47,-0.04 0.91,-0.21 1.3,-0.53 0.39,-0.32 1.06,-1.1 2.02,-2.33 0.85,-1.13 1.49,-1.85 1.91,-2.19 0.68,-0.56 1.41,-0.86 2.2,-0.9 0.8,-0.04 1.64,0.18 2.54,0.67 1.56,0.85 2.53,2.16 2.91,3.92 0.38,1.76 0,3.68 -1.13,5.75 -0.5,0.92 -1.05,1.71 -1.64,2.37 -0.59,0.65 -1.31,1.27 -2.16,1.85 -0.44,-0.41 -0.86,-0.76 -1.26,-1.03 -0.55,-0.37 -1.32,-0.84 -2.3,-1.39zm14.38 -15.11l-0.95 -0.41c0.19,-0.43 0.35,-0.9 0.48,-1.41 0.06,-0.24 0.06,-0.42 0.01,-0.55 -0.05,-0.13 -0.18,-0.27 -0.4,-0.42 -0.31,-0.2 -1.5,-0.78 -3.59,-1.73 -1.48,-0.68 -3,-1.36 -4.55,-2.04 -3.06,-1.34 -4.61,-2.01 -4.68,-2.02 -0.07,-0.01 -0.22,0.25 -0.45,0.78 -0.47,1.07 -0.84,2.01 -1.12,2.81 -0.16,0.46 -0.23,0.73 -0.22,0.81 0.01,0.08 0.06,0.15 0.15,0.22 0.08,0.07 0.74,0.44 1.96,1.09l-0.44 0.99c-1.49,-0.67 -2.79,-1.2 -3.91,-1.57l-0.04 -0.17c1.18,-2.38 2.27,-4.72 3.27,-7.01 1,-2.29 2.07,-4.87 3.2,-7.76l0.24 -0.04c1,0.61 2.21,1.27 3.63,1.96l-0.43 0.97c-1.34,-0.5 -2.08,-0.75 -2.22,-0.72 -0.11,0.01 -0.22,0.11 -0.34,0.29 -0.37,0.57 -0.96,1.77 -1.76,3.6 -0.07,0.15 -0.08,0.26 -0.05,0.31 0.04,0.05 0.24,0.15 0.59,0.31l7.74 3.48c2.25,0.99 3.64,1.57 4.17,1.76 0.53,0.19 0.88,0.23 1.05,0.13 0.12,-0.07 0.46,-0.64 1.04,-1.71l0.95 0.41c-0.54,1.11 -1.09,2.29 -1.65,3.56 -0.73,1.66 -1.3,3.02 -1.7,4.08zm6.33 -14.26l-0.97 -0.35c0.24,-0.95 0.36,-1.5 0.33,-1.66 -0.02,-0.1 -0.07,-0.19 -0.16,-0.27 -0.16,-0.15 -0.78,-0.43 -1.87,-0.85 -1.69,-0.64 -3.02,-1.13 -4,-1.48 -1.32,-0.47 -3.01,-1.04 -5.05,-1.73 -1.53,-0.5 -2.48,-0.76 -2.87,-0.76 -0.11,-0 -0.22,0.03 -0.3,0.11 -0.13,0.1 -0.4,0.58 -0.81,1.44l-0.97 -0.34c0.63,-1.62 1.03,-2.67 1.2,-3.15l2.03 -5.99c0.46,-1.29 0.91,-2.19 1.37,-2.69 0.46,-0.5 1.02,-0.83 1.69,-0.98 0.67,-0.15 1.38,-0.09 2.12,0.17 0.95,0.34 1.68,0.91 2.2,1.71 0.52,0.8 0.82,1.98 0.89,3.54l4.72 -1.17 3.63 -0.93c0.61,-0.21 1,-0.38 1.17,-0.53 0.17,-0.15 0.33,-0.43 0.48,-0.84l0.9 0.32 -0.24 0.7c-0.7,2.02 -1.13,3.31 -1.31,3.9 -1.35,0.3 -3.31,0.77 -5.89,1.4l-4.59 1.14c-0.11,-0.12 -0.23,-0.23 -0.36,-0.33 0.14,-0.3 0.24,-0.53 0.3,-0.69 0.26,-0.74 0.22,-1.57 -0.12,-2.49 -0.34,-0.93 -1.06,-1.59 -2.17,-1.98 -0.96,-0.34 -1.81,-0.32 -2.54,0.06 -0.73,0.38 -1.3,1.14 -1.7,2.27 -0.13,0.36 -0.28,0.86 -0.45,1.49l3.49 1.32 4.43 1.68c1.01,0.36 2.32,0.77 3.92,1.25 1.21,0.35 1.89,0.53 2.06,0.52 0.12,-0.01 0.23,-0.07 0.34,-0.17 0.16,-0.13 0.41,-0.64 0.78,-1.53l0.97 0.34c-0.55,1.4 -1.02,2.66 -1.41,3.75 -0.41,1.17 -0.83,2.44 -1.26,3.8zm7.7 -23.39l-1 -0.26c0.22,-0.83 0.3,-1.43 0.24,-1.79 -0.04,-0.21 -0.19,-0.39 -0.46,-0.52 -0.08,-0.04 -0.86,-0.28 -2.35,-0.74l-0.89 -0.25c-1.1,-0.29 -1.8,-0.42 -2.1,-0.39 -0.5,0.06 -1.75,0.4 -3.73,1.03 -1.99,0.62 -3.41,1.12 -4.29,1.5 -0.88,0.38 -1.48,0.73 -1.81,1.06 -0.12,0.12 -0.2,0.28 -0.26,0.5l-0.13 0.59 -0.97 -0.26c0.12,-1.41 0.19,-2.82 0.21,-4.22 0.32,-0.38 0.65,-0.67 1,-0.88 0.52,-0.3 1.48,-0.66 2.88,-1.08 1.4,-0.42 3.39,-0.89 5.97,-1.43l-1.45 -1.45c-1.31,-1.32 -3.14,-3.08 -5.49,-5.3l0.52 -1.98 0.61 0.16c0.4,0.56 1.36,1.68 2.88,3.33 2.4,2.6 3.81,4.07 4.25,4.41 0.28,0.21 0.89,0.44 1.84,0.69 1.91,0.5 3.27,0.82 4.07,0.95 0.42,0.07 0.71,0.03 0.86,-0.11 0.15,-0.14 0.39,-0.75 0.7,-1.83l1 0.26c-0.36,1.16 -0.7,2.36 -1.02,3.58 -0.35,1.34 -0.72,2.81 -1.09,4.41z"/>
   </g>
   <path class="fil4" d="M62.78 191.39l-1.21 -0.44c-0.1,-1.02 -0.28,-2.02 -0.55,-2.99 -4.22,-1.77 -8.66,-3.5 -13.31,-5.2 -3.66,-1.33 -7.12,-2.55 -10.4,-3.65 -2.33,-0.79 -3.7,-1.17 -4.11,-1.12 -0.24,0 -0.45,0.11 -0.65,0.32 -0.18,0.21 -0.74,1.31 -1.68,3.32l-1.94 -0.71c1.21,-3.01 2.29,-5.83 3.24,-8.44 0.92,-2.52 1.75,-4.94 2.47,-7.24l1.94 0.71c-0.64,2.21 -0.91,3.53 -0.79,3.94 0.07,0.26 0.31,0.51 0.71,0.76 0.4,0.25 2.95,1.25 7.62,3l11.53 4.35c2.18,0.79 4.7,1.66 7.59,2.6 0.85,-2.03 1.45,-3.54 1.81,-4.53 1.08,-2.98 1.75,-5.56 2.01,-7.77 -1.27,-0.95 -2.81,-1.99 -4.64,-3.12l0.76 -2.09c2.17,1.2 4.92,2.57 8.24,4.1 -0.45,1.53 -0.9,2.93 -1.36,4.19l-3.21 8.52 -1.45 3.82c-0.66,1.76 -1.53,4.31 -2.62,7.64zm16.9 -39.12l-1.65 -1.25c1.27,-1.89 1.9,-3.02 1.85,-3.42 -0.04,-0.39 -0.46,-0.94 -1.27,-1.64 -1.69,-1.45 -4.96,-4.01 -9.81,-7.67 -1.85,-1.4 -4.57,-3.41 -8.14,-6.02 -2.42,-1.8 -3.79,-2.74 -4.08,-2.84 -0.29,-0.1 -0.57,-0.09 -0.83,0.02 -0.37,0.18 -1.26,1.09 -2.66,2.72l-1.65 -1.25c2.15,-2.68 3.78,-4.74 4.87,-6.19 1.89,-2.5 3.56,-4.79 5,-6.87l1.65 1.24c-1.26,1.89 -1.88,3.02 -1.88,3.38 0.01,0.37 0.32,0.83 0.93,1.4 1.21,1.09 3.78,3.12 7.73,6.1 5.25,3.97 8.92,6.71 11.02,8.23 2.09,1.53 3.41,2.33 3.95,2.43 0.24,0.06 0.5,-0.01 0.79,-0.19 0.3,-0.18 1.09,-1.02 2.39,-2.51l1.65 1.25 -1.84 2.31c-1.17,1.45 -2.2,2.77 -3.08,3.93l-4.96 6.82zm-4.82 -52.17l-1.35 -1.57c2.48,-2 4.72,-3.86 6.73,-5.59 1.77,-1.53 3.69,-3.25 5.74,-5.15l1.35 1.57c-1.38,1.37 -2.17,2.26 -2.33,2.64 -0.17,0.38 -0.13,0.72 0.12,1.01 0.33,0.38 2.16,1.43 5.52,3.16l16.77 8.53 -4.87 -14.38c-1.8,-5.3 -3.04,-8.36 -3.72,-9.15 -0.26,-0.3 -0.58,-0.4 -0.97,-0.29 -0.39,0.11 -1.42,0.8 -3.09,2.08l-1.35 -1.57c2.4,-1.93 3.99,-3.23 4.77,-3.91 0.83,-0.71 2.27,-2.02 4.33,-3.93l1.35 1.57c-1.17,1.24 -1.79,2.03 -1.84,2.39 -0.1,0.51 0.43,2.61 1.59,6.33l6.29 19.12c1.2,3.81 2.27,6.76 3.2,8.87l-2.78 2.39 -20.71 -10.42c-4.73,-2.37 -7.98,-3.94 -9.74,-4.72 -1.03,-0.48 -1.75,-0.69 -2.16,-0.64 -0.41,0.05 -1.35,0.61 -2.84,1.66zm63.12 -10.09l-0.98 -1.82c1.94,-1.19 2.98,-1.96 3.11,-2.35 0.13,-0.37 -0.03,-1.04 -0.47,-2.01 -0.94,-2.02 -2.85,-5.7 -5.74,-11.05 -1.11,-2.04 -2.74,-5 -4.91,-8.86 -1.46,-2.64 -2.31,-4.07 -2.54,-4.27 -0.22,-0.21 -0.48,-0.32 -0.76,-0.32 -0.42,0.01 -1.6,0.47 -3.55,1.37l-0.98 -1.82c3.07,-1.54 5.4,-2.75 7,-3.61 2.76,-1.49 5.22,-2.88 7.4,-4.18l0.98 1.82c-1.93,1.2 -2.96,1.96 -3.11,2.3 -0.15,0.34 -0.06,0.89 0.26,1.66 0.65,1.49 2.15,4.41 4.5,8.75 3.13,5.78 5.34,9.81 6.61,12.06 1.27,2.26 2.14,3.53 2.59,3.85 0.19,0.15 0.46,0.2 0.8,0.15 0.35,-0.04 1.42,-0.47 3.22,-1.29l0.98 1.82 -2.63 1.35c-1.66,0.83 -3.15,1.6 -4.43,2.3l-7.34 4.15zm26.86 -21.04l-0.34 -2.04c2,-0.42 3.16,-0.75 3.48,-0.98 0.21,-0.17 0.34,-0.41 0.41,-0.73 0.11,-0.43 0,-1.86 -0.35,-4.28 -0.56,-4.01 -1.02,-7.03 -1.35,-9.06l-1.79 -10.56c-0.46,-2.8 -0.81,-4.4 -1.07,-4.8 -0.13,-0.23 -0.33,-0.39 -0.56,-0.47 -0.36,-0.15 -1.64,-0.13 -3.84,0.04l-0.34 -2.04c2.6,-0.32 4.53,-0.59 5.77,-0.79 1.38,-0.23 2.93,-0.53 4.66,-0.92 4.64,4.25 9.84,8.85 15.62,13.77 3.85,3.29 7.14,6 9.88,8.11l-1.63 -9.9c-0.62,-3.75 -1.18,-6.99 -1.7,-9.69 -0.33,-1.6 -0.63,-2.58 -0.89,-2.91 -0.13,-0.18 -0.34,-0.29 -0.61,-0.33 -0.29,-0.04 -1.47,0.04 -3.55,0.23l-0.34 -2.04c1.82,-0.2 3.62,-0.44 5.41,-0.73 2.45,-0.4 4.65,-0.82 6.62,-1.25l0.34 2.04c-1.83,0.42 -2.92,0.73 -3.27,0.95 -0.21,0.12 -0.36,0.26 -0.47,0.44 -0.1,0.17 -0.17,0.38 -0.2,0.63 -0.04,0.42 0.1,1.7 0.44,3.87l1.57 9.99 1.6 10.06c0.44,2.7 0.94,5.39 1.48,8.06l-0.26 0.4c-2.07,-0.03 -3.54,-0.04 -4.39,-0.02 -5.04,-4.02 -11.16,-9.11 -18.37,-15.25 -3.64,-3.12 -6.6,-5.75 -8.88,-7.91l1.59 9.68c0.43,2.63 0.99,5.8 1.67,9.51 0.5,2.73 0.87,4.29 1.13,4.67 0.1,0.17 0.24,0.29 0.43,0.36 0.35,0.14 1.56,0.1 3.65,-0.09l0.34 2.04c-2.68,0.34 -4.6,0.6 -5.75,0.79 -0.96,0.16 -3,0.55 -6.12,1.17zm77.51 -26.46l-0.04 -2.07c3.07,0.02 5.79,0 8.2,-0.04 2.22,-0.04 4.61,-0.11 7.19,-0.23l0.03 1.64c-0.74,0.24 -1.44,0.53 -2.1,0.86 -0.18,1.7 -0.26,3.15 -0.24,4.34 0.01,0.85 0.15,2.55 0.4,5.08 -3.31,1.26 -6.09,2.13 -8.32,2.6 -2.23,0.46 -4.56,0.72 -6.96,0.76 -6.49,0.11 -11.61,-1.49 -15.34,-4.79 -3.73,-3.31 -5.64,-7.64 -5.73,-13.01 -0.09,-5.52 1.71,-9.96 5.39,-13.33 3.7,-3.38 9.05,-5.12 16.05,-5.24 2.48,-0.04 4.85,0.11 7.13,0.46 2.27,0.35 4.44,0.91 6.51,1.65l0.23 0.37c-0.45,2.14 -0.77,4.81 -0.95,7.99l-2.17 0.04c-0.04,-1.59 -0.18,-3 -0.4,-4.22 -1.1,-1.23 -2.5,-2.13 -4.2,-2.73 -1.7,-0.59 -3.7,-0.87 -6.01,-0.83 -4.32,0.07 -7.73,1.44 -10.25,4.11 -2.52,2.67 -3.74,6.27 -3.66,10.83 0.08,4.85 1.5,8.74 4.25,11.66 2.75,2.92 6.11,4.35 10.06,4.28 2.11,-0.04 4.34,-0.59 6.7,-1.66 0.12,-1.29 0.16,-2.52 0.14,-3.67 -0.04,-2.58 -0.22,-4.01 -0.53,-4.27 -0.3,-0.26 -2.1,-0.46 -5.39,-0.59zm35.96 2.07l2.15 0.31c-0.34,2.46 -0.47,3.92 -0.39,4.37 0.08,0.45 0.48,1.07 1.2,1.88 0.72,0.81 1.69,1.52 2.93,2.15 1.23,0.62 2.54,1.03 3.91,1.23 2.35,0.34 4.32,-0.01 5.91,-1.06 1.59,-1.04 2.52,-2.5 2.79,-4.36 0.25,-1.72 -0.03,-3.1 -0.83,-4.15 -0.81,-1.06 -2.52,-1.96 -5.11,-2.73 -3.85,-1.13 -6.41,-2.13 -7.68,-3 -1.28,-0.86 -2.21,-2.02 -2.81,-3.46 -0.6,-1.45 -0.76,-3.1 -0.49,-4.97 0.45,-3.13 1.94,-5.63 4.45,-7.48 2.52,-1.85 6.19,-2.43 11.03,-1.73 1.89,0.27 3.55,0.66 4.98,1.15 1.42,0.49 2.83,1.18 4.22,2.04l0.16 0.63c-0.43,1.02 -0.75,1.94 -0.98,2.77 -0.23,0.83 -0.55,2.28 -0.93,4.35l-2.15 -0.31c0.28,-2.58 0.37,-4.03 0.25,-4.37 -0.24,-0.59 -0.95,-1.29 -2.15,-2.08 -1.2,-0.79 -2.63,-1.31 -4.28,-1.55 -2.28,-0.33 -4.12,-0.03 -5.53,0.9 -1.41,0.93 -2.25,2.26 -2.5,4.01 -0.15,1.07 -0.03,2.03 0.37,2.9 0.4,0.86 1.04,1.55 1.9,2.06 0.87,0.51 2.8,1.22 5.77,2.15 2.71,0.81 4.52,1.49 5.45,2.03 1.52,0.88 2.6,2.05 3.24,3.49 0.64,1.46 0.82,3.2 0.52,5.23 -0.51,3.52 -2.28,6.26 -5.31,8.21 -3.04,1.94 -6.89,2.58 -11.56,1.91 -2.08,-0.3 -3.94,-0.77 -5.58,-1.42 -1.64,-0.65 -3.3,-1.55 -4.98,-2.74 0.46,-1.12 0.81,-2.14 1.05,-3.08 0.32,-1.29 0.65,-3.05 0.99,-5.28zm46.18 22.4l0.87 -1.88c0.86,0.4 1.79,0.73 2.79,1.02 0.47,0.12 0.84,0.14 1.11,0.05 0.26,-0.09 0.54,-0.35 0.85,-0.78 0.4,-0.61 1.61,-2.97 3.6,-7.11 1.41,-2.94 2.83,-5.95 4.25,-9.03 2.8,-6.06 4.2,-9.14 4.22,-9.28 0.02,-0.13 -0.5,-0.44 -1.55,-0.92 -2.13,-0.98 -3.98,-1.76 -5.58,-2.35 -0.92,-0.34 -1.45,-0.49 -1.61,-0.47 -0.15,0.02 -0.3,0.12 -0.45,0.28 -0.15,0.17 -0.9,1.46 -2.26,3.88l-1.97 -0.91c1.4,-2.95 2.5,-5.53 3.3,-7.75l0.34 -0.07c4.71,2.44 9.34,4.71 13.89,6.81 4.53,2.09 9.66,4.33 15.38,6.71l0.08 0.49c-1.27,1.98 -2.62,4.38 -4.05,7.17l-1.92 -0.89c1.06,-2.66 1.58,-4.14 1.53,-4.41 -0.02,-0.22 -0.21,-0.45 -0.56,-0.69 -1.13,-0.77 -3.5,-1.99 -7.14,-3.66 -0.3,-0.14 -0.51,-0.18 -0.61,-0.11 -0.11,0.07 -0.32,0.47 -0.65,1.17l-7.25 15.33c-2.06,4.46 -3.29,7.22 -3.68,8.27 -0.4,1.05 -0.5,1.75 -0.3,2.1 0.14,0.23 1.26,0.95 3.38,2.15l-0.87 1.88c-2.19,-1.13 -4.55,-2.27 -7.06,-3.43 -3.3,-1.52 -5.99,-2.71 -8.09,-3.57zm50.98 30.11c-4.7,-4.05 -7.26,-8.36 -7.68,-12.93 -0.42,-4.57 1.2,-8.96 4.84,-13.19 2.55,-2.95 5.32,-4.94 8.3,-5.97 3,-1.03 6.04,-1.17 9.14,-0.43 3.11,0.74 6.34,2.57 9.72,5.48 3.25,2.8 5.44,5.62 6.59,8.47 1.14,2.84 1.47,5.68 0.95,8.54 -0.51,2.85 -1.96,5.65 -4.33,8.4 -2.57,2.98 -5.4,5.03 -8.49,6.15 -3.1,1.11 -6.27,1.31 -9.52,0.59 -3.25,-0.72 -6.43,-2.43 -9.54,-5.1zm2.52 -1.44c2.57,2.21 5.43,3.03 8.59,2.46 3.16,-0.57 6.4,-2.79 9.73,-6.64 3.49,-4.05 5.3,-7.91 5.41,-11.59 0.08,-2.97 -1.35,-5.72 -4.31,-8.27 -2.77,-2.38 -5.69,-3.31 -8.77,-2.8 -3.09,0.51 -6.26,2.66 -9.52,6.45 -2.34,2.72 -3.92,5.39 -4.72,7.99 -0.79,2.61 -0.91,4.88 -0.35,6.83 0.57,1.94 1.88,3.8 3.94,5.58zm26.4 24.44l1.76 -1.08c1.14,1.69 1.89,2.64 2.23,2.84 0.24,0.13 0.51,0.16 0.83,0.1 0.44,-0.06 1.72,-0.71 3.82,-1.95 3.49,-2.04 6.12,-3.61 7.87,-4.69l9.09 -5.66c2.41,-1.49 3.76,-2.42 4.03,-2.81 0.16,-0.21 0.24,-0.45 0.22,-0.69 -0,-0.39 -0.5,-1.57 -1.49,-3.54l1.76 -1.08c1.28,2.28 2.26,3.97 2.92,5.04 0.73,1.19 1.61,2.51 2.63,3.96 -2.18,5.9 -4.45,12.46 -6.82,19.67 -1.59,4.81 -2.84,8.88 -3.75,12.22l8.54 -5.26c3.24,-2 6.01,-3.75 8.32,-5.25 1.36,-0.92 2.15,-1.56 2.35,-1.93 0.11,-0.19 0.14,-0.42 0.08,-0.7 -0.07,-0.28 -0.59,-1.34 -1.56,-3.2l1.76 -1.08c0.87,1.61 1.78,3.18 2.73,4.73 1.3,2.11 2.52,3.99 3.66,5.65l-1.76 1.08c-1.09,-1.53 -1.79,-2.43 -2.12,-2.67 -0.19,-0.15 -0.38,-0.23 -0.58,-0.27 -0.2,-0.03 -0.42,-0.02 -0.66,0.05 -0.4,0.12 -1.54,0.74 -3.42,1.87l-8.65 5.24 -8.7 5.3c-2.33,1.44 -4.63,2.91 -6.9,4.43l-0.47 -0.09c-0.76,-1.93 -1.31,-3.29 -1.65,-4.07 1.81,-6.19 4.2,-13.78 7.14,-22.79 1.5,-4.55 2.82,-8.29 3.94,-11.22l-8.35 5.15c-2.27,1.4 -4.99,3.12 -8.16,5.15 -2.33,1.5 -3.64,2.43 -3.9,2.82 -0.12,0.15 -0.18,0.33 -0.16,0.54 0.01,0.37 0.5,1.48 1.46,3.34l-1.76 1.09c-1.33,-2.36 -2.3,-4.03 -2.91,-5.02 -0.51,-0.83 -1.64,-2.57 -3.4,-5.23zm29.01 49.66l1.17 -0.54c0.74,0.64 1.51,1.18 2.31,1.63 2.53,-0.8 7.63,-2.97 15.29,-6.5 5.22,-2.41 8.66,-4.06 10.31,-4.96 0.89,-0.46 1.39,-0.88 1.5,-1.26 0.11,-0.37 -0.21,-1.6 -0.96,-3.68l1.88 -0.87c1.57,3.65 2.83,6.51 3.8,8.6l5.96 12.55c0.61,1.33 1.11,2.55 1.5,3.66l-0.18 0.28c-1.81,0.44 -4.12,1.23 -6.95,2.35l-0.84 -1.83c2.18,-1.1 3.33,-1.74 3.44,-1.91 0.1,-0.17 0.09,-0.58 -0.05,-1.24 -0.31,-1.4 -1.07,-3.4 -2.28,-6.02 -0.59,-1.28 -1.33,-2.76 -2.22,-4.43 -4.84,2 -8.67,3.64 -11.5,4.91 0.66,1.68 1.32,3.23 1.98,4.66 0.98,2.12 1.63,3.36 1.97,3.73 0.21,0.21 0.52,0.29 0.92,0.24 0.32,-0.03 1.33,-0.37 3.03,-1.01l0.91 1.97c-2.62,1.12 -4.33,1.85 -5.11,2.22l-5.11 2.5 -0.91 -1.97c1.97,-1.04 3.06,-1.71 3.29,-2.02 0.14,-0.18 0.18,-0.45 0.11,-0.8 -0.19,-0.84 -0.9,-2.6 -2.13,-5.27 -0.39,-0.84 -0.89,-1.8 -1.5,-2.89 -0.83,0.34 -1.66,0.71 -2.5,1.1 -4.37,2.02 -7.7,3.65 -9.98,4.89l2.05 4.56c1.19,2.59 2.42,4.88 3.69,6.9 1.58,-0.27 3.34,-0.65 5.28,-1.13l0.89 1.92c-2.88,0.91 -5.58,1.91 -8.11,3 -0.74,-1.35 -1.4,-2.66 -1.99,-3.94 -0.39,-0.84 -1.13,-2.5 -2.22,-5 -1.02,-2.33 -1.98,-4.46 -2.87,-6.4 -1.18,-2.55 -2.46,-5.22 -3.86,-7.99z"/>
   <g>
    <path class="fil5" d="M32.54 242.38c5.63,0 10.19,4.56 10.19,10.19 0,5.63 -4.56,10.19 -10.19,10.19 -5.63,0 -10.19,-4.56 -10.19,-10.19 0,-5.63 4.56,-10.19 10.19,-10.19z"/>
    <path class="fil5" d="M467.9 241.48c5.63,0 10.19,4.56 10.19,10.19 0,5.63 -4.56,10.19 -10.19,10.19 -5.63,0 -10.19,-4.56 -10.19,-10.19 0,-5.63 4.56,-10.19 10.19,-10.19z"/>
   </g>
   <g>
    <path class="fil2 str1" d="M146.37 168.71l-3.56 -0.16 0 2.23 0 0.5 0 2.85 3.56 0.02 0 -2.75 0 -0.5 0 -2.18zm-4.72 -11.34l-15.81 0.92 0 20.27 16.97 0.23 38.75 -1.19 0.01 -3.31 -1.92 -0.01 0 -4.05 1.94 0.09 0 -0.5 -1.94 -0.09 0 -3.55 1.96 0.14 0.09 -19.85 -7.71 -2 -0.05 16.57 -32.29 -3.67zm-7.46 10.95l0 2.17 3.58 0.12 0 -2.18 -3.58 -0.1zm-0.53 -0.02l-3.29 -0.09 0 2.15 3.29 0.11 0 -2.17zm4.64 -4.92l0 1.89 3.97 0.09 0 -1.78 -0.62 -0.04 0 -0.01 -3.35 -0.15zm-4.11 -0.19l0 1.98 3.58 0.09 0 -1.9 -3.58 -0.16zm-3.82 1.89l3.29 0.08 0 -1.99 -3.29 -0.15 0 2.06zm3.29 2.72l0 -2.15 -3.29 -0.08 0 2.14 3.29 0.09zm4.11 0.12l0 -2.17 -3.58 -0.09 0 2.15 3.58 0.1zm0.53 0.02l3.97 0.11 0 -2.19 -3.97 -0.1 0 2.17zm0 2.68l3.97 0.13 0 -2.2 -3.97 -0.11 0 2.19zm0 0.5l0 2.82 3.89 0.18 0.08 0 0 -2.87 -3.97 -0.13zm-4.11 -0.13l0 2.77 3.58 0.16 0 -2.81 -3.58 -0.12zm-0.53 -0.02l-3.29 -0.11 0 2.72 3.29 0.15 0 -2.76zm33.69 -1.79l3.58 0.18 -0 -3.74 -1.73 -0.16 -0 0 -1.88 -0.18 0.04 3.9zm-20.99 -0.97l0 -2.24 0 -0.5 0 -1.59 -3.56 -0.25 0 1.76 0 0.5 0 2.17 3.56 0.16zm0.56 -0.02l2.47 0.16 1.07 0.05 0 -2.33 0 -0.5 0 -1.41 -3.56 -0.25 0 1.57 0 0.5 0 0.65 0.03 1.57zm4.07 -2.11l0 2.3 2.28 0.15 1.28 0.06 0 -2.42 0 -0.5 0 -1.22 -3.56 -0.25 0 1.38 0 0.5zm4.09 0.1l0 2.41 1.72 0.1 1.85 0.08 0 -4.04 -3.56 -0.25 0 1.2 0 0.5zm7.66 2.78l0 -3.95 -3.56 -0.25 0 4.03 3.56 0.16zm4.09 0.19l0 -3.85 -3.56 -0.25 0 3.93 3.56 0.16zm8.19 0.37l0 -3.66 -3.56 -0.25 0 3.74 3.56 0.16zm4.09 0.19l0 -3.56 -3.56 -0.25 0 3.64 3.56 0.16zm-3.56 0.33l0 4.22 3.56 0.02 0 -4.07 -3.56 -0.16zm-4.09 -0.19l0 4.39 3.56 0.02 0 -4.24 -3.56 -0.16zm-4.09 -0.18l0 4.55 3.56 0.02 0 -4.41 -2.81 -0.13 -0.75 -0.03zm-4.09 -0.19l0 4.73 3.56 0.02 0 -4.58 -3.56 -0.16zm-4.09 -0.19l0 4.9 3.56 0.01 0 -4.75 -3.56 -0.16zm-0.53 -0.02l-3.56 -0.16 0 5.07 3.56 0.02 0 -4.92zm-4.09 4.9l0 -5.09 -3.56 -0.16 0 2.12 0 0.5 0 2.62 3.56 0.01zm-7.66 -5.44l0 2.18 0 0.5 0 2.74 3.56 0.02 0 -2.63 0 -0.5 0 -2.13 -3.56 -0.16z"/>
    <path class="fil6" d="M147.66 147.75l-0.03 9.76 26.04 3.11 0.01 -16.06 -5.11 0.54 -1.15 -16.36c-2.16,-0.6 -1.69,1 -1.81,2.81 -0.27,4.07 -0.9,10.42 -0.93,13.99l-3.61 0.58 -0.94 -11.91c-0.14,-1.63 0.13,-2.48 -0.82,-3.43l0.41 -0.77c0.6,-0.93 1.42,-0.88 2.39,-1.5 1.4,-0.89 3.03,0.41 3.39,-1.54 -1.54,-0.42 -0.52,0.08 -1.31,-0.81 -1.66,-0.04 -1.79,0.47 -3.7,0.88 -1.62,0.35 -0.96,1.07 -0.99,1.33 -0.05,0.38 -0.17,0.39 -0.25,1.04 -0.24,1.99 -0.08,0.82 -0.85,1.83 -0.41,0.54 -1.26,14.13 -1.32,15.34l-3.67 0.54c-0.03,-0.86 -0.8,-12.58 -1.19,-13.55 -0.23,-0.59 -0.23,0.07 -0.19,-0.43 0.11,-0.33 1.36,-0.88 1.75,-1.02 1.11,-0.4 1.42,0.34 2.22,-0.75l-0.2 -0.21c-1.33,-1.18 -1.46,-0.59 -2.9,-0.14 -0.82,0.25 -1.2,0.09 -1.34,0.61 -0.01,0.03 -0.07,0.32 -0.08,0.37 -0.33,2.02 -0.7,1 -0.87,2.44l-0.98 13.11c-0.66,0.19 -1.38,0.31 -1.96,0.21zm19.58 -20.43c-0.59,0.43 -0.56,0.22 -0.53,1.1 1.46,-0.44 0.05,-0.44 1.49,-1.23 0.38,-0.21 0.31,-0.16 0.64,-0.37 1.48,-0.95 0.64,0.4 2.96,-0.54 1.59,-0.65 1.82,-0.16 2.93,0.2 1.16,0.37 4.46,-0.1 2.02,-1.62 -0.04,-0.02 -0.09,-0.05 -0.13,-0.08l-0.09 -0.96c-2.14,-1.09 -4.38,-0.24 -5.25,-0.33 -0.87,-0.09 -0.86,-0.26 -2.01,-0.17 -1.07,0.46 -1.2,0.48 -0.62,1.51 -0.41,0.3 -0.85,0.63 -1.08,1.11 -0.44,0.93 0.11,0.96 -0.33,1.37z"/>
    <path class="fil6" d="M111.78 178.15l6.75 0.61 -0.05 -30.9 -6.71 1.08 0 29.2zm0.76 -3.34l5.23 0.48 -0 -2.36 -5.23 -0.29 0 2.18zm5.23 -2.35l-0.01 -3.94 -5.23 0 0 3.64 5.23 0.3zm-0.01 -4.41l-0.01 -3.69 -5.22 0.09 0 3.61 5.22 -0zm-0.01 -4.16l-0 -3.5 -5.21 0.18 0 3.4 5.22 -0.09zm-0.01 -3.96l-0.01 -3.62 -5.21 0.29 0 3.5 5.21 -0.18zm-0.01 -4.08l-0.01 -4.51 -5.2 0.84 0 3.96 5.2 -0.29z"/>
    <polygon class="fil2 str1" points="145.52,157.39 141.67,156.94 124.91,157.65 125.16,178.55 118.78,178.55 118.8,147.92 138.35,150.56 "/>
   </g>
   <path class="fil4" d="M250.22 66.68c50.68,0 96.57,20.54 129.78,53.76 33.21,33.21 53.76,79.1 53.76,129.78 0,50.68 -20.54,96.57 -53.76,129.78 -33.21,33.21 -79.1,53.76 -129.78,53.76 -50.68,0 -96.57,-20.54 -129.78,-53.76 -33.21,-33.21 -53.76,-79.1 -53.76,-129.78 0,-50.68 20.54,-96.57 53.76,-129.78 33.21,-33.21 79.1,-53.76 129.78,-53.76zm128.42 55.12c-32.87,-32.86 -78.27,-53.19 -128.42,-53.19 -50.15,0 -95.56,20.33 -128.42,53.19 -32.86,32.87 -53.19,78.27 -53.19,128.42 0,50.15 20.33,95.56 53.19,128.42 32.87,32.86 78.27,53.19 128.42,53.19 50.15,0 95.56,-20.33 128.42,-53.19 32.86,-32.87 53.19,-78.27 53.19,-128.42 0,-50.15 -20.33,-95.56 -53.19,-128.42z"/>
  </g>
 </g>
</svg>
